{"glyphs":{"0":{"ha":1018,"x_min":28,"x_max":990,"o":"m 510 -14 q 244 47 351 -14 q 83 215 138 107 q 28 465 28 322 q 83 716 28 608 q 244 884 138 824 q 510 944 351 944 q 775 884 668 944 q 936 716 882 824 q 990 465 990 608 q 936 215 990 322 q 775 47 882 107 q 510 -14 668 -14 m 510 240 q 633 260 589 240 q 693 330 676 281 q 710 465 710 379 q 693 601 710 551 q 633 670 676 650 q 510 690 589 690 q 387 670 431 690 q 326 601 343 650 q 308 465 308 551 q 326 330 308 379 q 387 260 343 281 q 510 240 431 240 z "},"1":{"ha":565,"x_min":14,"x_max":524,"o":"m 524 0 l 263 0 l 263 639 l 14 639 l 14 815 l 49 815 q 183 838 125 815 q 281 931 242 860 l 524 931 l 524 0 z "},"2":{"ha":917,"x_min":18,"x_max":889,"o":"m 886 0 l 18 0 l 18 164 q 44 299 18 243 q 131 396 71 356 q 292 468 192 436 l 544 549 q 593 569 575 558 q 619 594 611 579 q 628 629 628 608 q 617 670 628 653 q 573 697 607 688 q 468 707 539 707 q 349 694 390 707 q 293 653 308 681 q 278 583 278 626 l 278 565 l 22 565 l 22 586 q 68 762 22 681 q 214 894 114 843 q 478 944 314 944 q 715 904 625 944 q 847 792 806 864 q 889 625 889 721 q 853 479 889 538 q 753 384 817 421 q 606 326 689 347 l 397 275 q 343 260 367 268 q 306 240 319 253 q 293 203 293 226 l 554 235 l 886 235 l 886 0 z "},"3":{"ha":956,"x_min":28,"x_max":942,"o":"m 489 -14 q 230 25 332 -14 q 78 140 128 64 q 28 325 28 215 l 28 347 l 306 347 l 306 322 q 314 269 306 288 q 358 243 322 250 q 476 236 394 236 q 599 242 556 236 q 660 263 643 247 q 676 307 676 279 q 656 355 676 342 q 589 368 635 368 l 313 368 l 313 582 l 569 582 q 623 595 608 582 q 638 635 638 608 q 626 670 638 657 q 578 689 614 683 q 474 694 543 694 q 367 688 403 694 q 318 662 331 681 q 306 608 306 643 l 306 604 l 28 604 l 28 606 q 80 785 28 710 q 236 903 132 861 q 499 944 340 944 q 795 883 693 944 q 897 694 897 821 q 849 564 897 614 q 708 503 801 514 l 708 485 q 877 422 813 474 q 942 263 942 369 q 823 56 942 125 q 489 -14 704 -14 z "},"4":{"ha":1001,"x_min":14,"x_max":988,"o":"m 988 168 l 14 168 l 14 344 l 560 931 l 786 931 l 617 632 l 583 632 l 378 421 l 378 403 l 988 403 l 988 168 m 863 0 l 601 0 l 601 931 l 863 931 l 863 0 z "},"5":{"ha":1007,"x_min":42,"x_max":965,"o":"m 507 -14 q 249 18 353 -14 q 94 119 146 50 q 42 297 42 188 l 42 306 l 311 306 l 311 297 q 326 254 311 271 q 383 231 340 238 q 511 224 426 224 q 625 234 588 224 q 675 267 663 244 q 688 328 688 290 q 675 391 688 368 q 625 424 663 414 q 511 435 588 435 q 373 424 421 435 q 311 376 325 413 l 253 376 l 249 506 l 322 506 q 367 565 333 533 q 465 617 401 596 q 624 639 528 639 q 819 602 744 639 q 930 497 894 565 q 965 331 965 428 q 919 150 965 228 q 771 29 872 72 q 507 -14 669 -14 m 101 931 l 910 931 l 910 696 l 333 696 l 292 376 l 46 376 l 101 931 z "},"6":{"ha":997,"x_min":25,"x_max":965,"o":"m 528 -14 q 238 38 349 -14 q 76 194 126 89 q 25 458 25 299 q 61 680 25 588 q 162 831 97 772 q 313 917 226 889 q 501 944 400 944 q 738 904 639 944 q 890 792 838 864 q 943 625 943 721 l 943 613 l 651 613 l 651 625 q 636 672 651 657 q 588 690 621 686 q 501 694 554 694 q 389 683 432 694 q 326 632 346 671 q 306 511 306 593 l 306 461 l 324 461 q 381 517 344 492 q 475 559 418 543 q 610 575 532 575 q 804 546 725 575 q 924 455 883 517 q 965 296 965 393 q 855 70 965 154 q 528 -14 744 -14 m 513 238 q 626 246 588 238 q 677 272 664 254 q 690 315 690 289 q 677 364 690 346 q 626 390 664 382 q 513 397 588 397 q 388 390 429 397 q 334 364 347 382 q 321 315 321 346 q 335 272 321 289 q 390 246 349 254 q 513 238 432 238 z "},"7":{"ha":849,"x_min":14,"x_max":849,"o":"m 467 0 l 164 0 q 191 217 164 122 q 264 383 218 311 q 365 510 310 456 q 478 605 421 564 q 583 678 535 646 l 583 696 l 14 696 l 14 931 l 849 931 l 849 721 q 684 551 756 629 q 564 394 613 474 q 491 220 515 315 q 467 0 467 125 z "},"8":{"ha":964,"x_min":21,"x_max":943,"o":"m 483 -14 q 239 15 343 -14 q 78 103 135 43 q 21 257 21 163 q 53 380 21 333 q 134 451 85 426 q 236 485 183 475 l 236 503 q 100 567 149 519 q 51 699 51 615 q 161 879 51 814 q 482 944 271 944 q 806 879 697 944 q 915 699 915 814 q 867 567 915 615 q 728 503 818 519 l 728 485 q 836 451 788 475 q 914 380 885 426 q 943 257 943 333 q 885 103 943 163 q 725 15 828 43 q 483 -14 622 -14 m 482 236 q 604 244 563 236 q 662 269 646 251 q 678 314 678 286 q 663 359 678 343 q 606 382 649 375 q 482 389 564 389 q 358 382 400 389 q 301 359 315 375 q 286 314 286 343 q 302 269 286 286 q 360 244 318 251 q 482 236 403 236 m 482 565 q 592 572 554 565 q 642 593 629 579 q 656 629 656 607 q 642 669 656 654 q 592 689 629 683 q 482 694 554 694 q 376 689 413 694 q 326 669 339 683 q 313 629 313 654 q 326 593 313 607 q 376 572 339 579 q 482 565 413 565 z "},"9":{"ha":997,"x_min":25,"x_max":965,"o":"m 499 -14 q 263 26 361 -14 q 110 138 164 67 q 57 306 57 210 l 57 318 l 349 318 l 349 306 q 364 259 349 274 q 413 240 379 244 q 499 236 446 236 q 606 248 565 236 q 666 299 647 260 q 685 419 685 339 l 685 469 l 667 469 q 609 413 646 439 q 516 372 572 388 q 381 356 460 356 q 186 385 265 356 q 66 476 107 414 q 25 635 25 538 q 135 860 25 776 q 463 944 246 944 q 753 893 643 944 q 915 738 864 842 q 965 472 965 633 q 930 251 965 343 q 831 100 894 158 q 683 14 768 42 q 499 -14 599 -14 m 478 533 q 602 541 561 533 q 656 567 643 549 q 669 615 669 585 q 656 660 669 643 q 601 685 642 676 q 478 693 560 693 q 365 685 404 693 q 313 660 326 676 q 300 615 300 643 q 313 567 300 585 q 365 541 326 549 q 478 533 404 533 z "},"A":{"ha":1150,"x_min":-14,"x_max":1164,"o":"m 279 0 l -14 0 l 388 931 l 761 931 l 1164 0 l 864 0 l 643 538 l 582 694 l 564 694 l 504 538 l 279 0 m 910 172 l 224 172 l 224 407 l 910 407 l 910 172 z "},"À":{"ha":1150,"x_min":-14,"x_max":1164,"o":"m 279 0 l -14 0 l 388 931 l 761 931 l 1164 0 l 864 0 l 643 538 l 582 694 l 564 694 l 504 538 l 279 0 m 910 172 l 224 172 l 224 407 l 910 407 l 910 172 m 717 1014 l 436 1014 l 156 1200 l 532 1200 l 717 1014 z "},"Á":{"ha":1150,"x_min":-14,"x_max":1164,"o":"m 279 0 l -14 0 l 388 931 l 761 931 l 1164 0 l 864 0 l 643 538 l 582 694 l 564 694 l 504 538 l 279 0 m 910 172 l 224 172 l 224 407 l 910 407 l 910 172 m 714 1014 l 433 1014 l 618 1200 l 994 1200 l 714 1014 z "},"Â":{"ha":1150,"x_min":-14,"x_max":1164,"o":"m 279 0 l -14 0 l 388 931 l 761 931 l 1164 0 l 864 0 l 643 538 l 582 694 l 564 694 l 504 538 l 279 0 m 910 172 l 224 172 l 224 407 l 910 407 l 910 172 m 511 1014 l 232 1014 l 417 1194 l 732 1194 l 918 1014 l 638 1014 l 583 1072 l 567 1072 l 511 1014 z "},"Ã":{"ha":1150,"x_min":-14,"x_max":1164,"o":"m 279 0 l -14 0 l 388 931 l 761 931 l 1164 0 l 864 0 l 643 538 l 582 694 l 564 694 l 504 538 l 279 0 m 910 172 l 224 172 l 224 407 l 910 407 l 910 172 m 463 989 l 289 989 l 289 1058 q 299 1131 289 1094 q 341 1191 310 1167 q 433 1215 372 1215 q 487 1209 457 1215 q 556 1189 517 1203 l 603 1172 q 635 1163 621 1167 q 658 1158 649 1158 q 681 1167 674 1158 q 689 1193 689 1175 l 689 1203 l 861 1203 l 861 1135 q 830 1022 861 1067 q 728 976 799 976 q 664 985 696 976 q 601 1003 632 993 l 538 1024 q 507 1033 519 1031 q 486 1036 494 1036 q 467 1028 472 1036 q 463 1011 463 1021 l 463 989 z "},"Ä":{"ha":1150,"x_min":-14,"x_max":1164,"o":"m 279 0 l -14 0 l 388 931 l 761 931 l 1164 0 l 864 0 l 643 538 l 582 694 l 564 694 l 504 538 l 279 0 m 910 172 l 224 172 l 224 407 l 910 407 l 910 172 m 863 1014 l 615 1014 l 615 1207 l 863 1207 l 863 1014 m 535 1014 l 288 1014 l 288 1207 l 535 1207 l 535 1014 z "},"Å":{"ha":1150,"x_min":-14,"x_max":1164,"o":"m 574 811 q 407 866 471 811 q 343 1011 343 921 q 407 1157 343 1103 q 574 1211 471 1211 q 740 1157 676 1211 q 803 1011 803 1103 q 740 866 803 921 q 574 811 676 811 m 572 964 q 631 974 618 964 q 644 1011 644 985 q 631 1048 644 1038 q 572 1058 618 1058 q 513 1048 526 1058 q 500 1011 500 1038 q 513 974 500 985 q 572 964 526 964 m 279 0 l -14 0 l 388 931 l 761 931 l 1164 0 l 864 0 l 643 538 l 582 694 l 564 694 l 504 538 l 279 0 m 910 172 l 224 172 l 224 407 l 910 407 l 910 172 z "},"Ā":{"ha":1150,"x_min":-14,"x_max":1164,"o":"m 279 0 l -14 0 l 388 931 l 761 931 l 1164 0 l 864 0 l 643 538 l 582 694 l 564 694 l 504 538 l 279 0 m 910 172 l 224 172 l 224 407 l 910 407 l 910 172 m 821 1015 l 328 1015 l 328 1201 l 821 1201 l 821 1015 z "},"Ă":{"ha":1150,"x_min":-14,"x_max":1164,"o":"m 279 0 l -14 0 l 388 931 l 761 931 l 1164 0 l 864 0 l 643 538 l 582 694 l 564 694 l 504 538 l 279 0 m 910 172 l 224 172 l 224 407 l 910 407 l 910 172 m 575 1000 q 398 1055 465 1000 q 331 1194 331 1110 l 331 1213 l 513 1213 l 513 1199 q 524 1166 513 1176 q 575 1156 535 1156 q 627 1166 617 1156 q 638 1199 638 1176 l 638 1213 l 819 1213 l 819 1194 q 752 1055 819 1110 q 575 1000 685 1000 z "},"Ą":{"ha":1150,"x_min":-14,"x_max":1176,"o":"m 279 0 l -14 0 l 388 931 l 761 931 l 1164 0 l 864 0 l 643 538 l 582 694 l 564 694 l 504 538 l 279 0 m 910 172 l 224 172 l 224 407 l 910 407 l 910 172 m 1176 -260 l 1038 -260 q 926 -232 958 -260 q 894 -161 894 -204 q 916 -92 894 -122 q 964 -33 938 -62 l 996 0 l 1164 0 l 1101 -78 q 1093 -89 1096 -83 q 1090 -99 1090 -94 q 1093 -105 1090 -103 q 1101 -107 1096 -107 l 1176 -107 l 1176 -260 z "},"B":{"ha":992,"x_min":42,"x_max":978,"o":"m 665 0 l 42 0 l 42 931 l 633 931 q 801 905 735 931 q 901 829 868 879 q 935 706 935 779 q 883 558 935 617 q 703 494 831 500 l 703 481 q 910 415 843 475 q 978 258 978 356 q 946 122 978 181 q 845 32 914 64 q 665 0 776 0 m 301 364 l 301 235 l 632 235 q 697 248 679 235 q 714 300 714 261 q 697 351 714 339 q 632 364 681 364 l 301 364 m 301 696 l 301 578 l 606 578 q 660 591 646 578 q 674 636 674 604 q 656 682 674 668 q 599 696 639 696 l 301 696 z "},"C":{"ha":1069,"x_min":28,"x_max":1042,"o":"m 542 -14 q 265 45 381 -14 q 89 212 150 104 q 28 465 28 319 q 89 719 28 611 q 265 885 150 826 q 542 944 381 944 q 810 897 699 944 q 982 761 922 850 q 1042 547 1042 672 l 1042 524 l 750 524 l 750 547 q 706 660 750 626 q 546 694 661 694 q 399 676 451 694 q 326 608 347 657 q 306 465 306 558 q 326 324 306 374 q 399 255 347 274 q 546 236 451 236 q 706 270 661 236 q 750 383 750 304 l 750 407 l 1042 407 l 1042 383 q 982 170 1042 260 q 810 33 922 81 q 542 -14 699 -14 z "},"Ç":{"ha":1069,"x_min":28,"x_max":1042,"o":"m 542 -14 q 265 45 381 -14 q 89 212 150 104 q 28 465 28 319 q 89 719 28 611 q 265 885 150 826 q 542 944 381 944 q 810 897 699 944 q 982 761 922 850 q 1042 547 1042 672 l 1042 524 l 750 524 l 750 547 q 706 660 750 626 q 546 694 661 694 q 399 676 451 694 q 326 608 347 657 q 306 465 306 558 q 326 324 306 374 q 399 255 347 274 q 546 236 451 236 q 706 270 661 236 q 750 383 750 304 l 750 407 l 1042 407 l 1042 383 q 982 170 1042 260 q 810 33 922 81 q 542 -14 699 -14 m 608 -335 l 457 -335 l 457 -200 l 613 -200 q 622 -198 619 -200 q 624 -192 624 -196 q 622 -184 624 -186 q 613 -182 619 -182 l 457 -182 l 457 4 l 589 4 l 589 -50 l 608 -50 q 728 -88 688 -50 q 769 -190 769 -126 q 728 -295 769 -256 q 608 -335 688 -335 z "},"Ć":{"ha":1069,"x_min":28,"x_max":1042,"o":"m 542 -14 q 265 45 381 -14 q 89 212 150 104 q 28 465 28 319 q 89 719 28 611 q 265 885 150 826 q 542 944 381 944 q 810 897 699 944 q 982 761 922 850 q 1042 547 1042 672 l 1042 524 l 750 524 l 750 547 q 706 660 750 626 q 546 694 661 694 q 399 676 451 694 q 326 608 347 657 q 306 465 306 558 q 326 324 306 374 q 399 255 347 274 q 546 236 451 236 q 706 270 661 236 q 750 383 750 304 l 750 407 l 1042 407 l 1042 383 q 982 170 1042 260 q 810 33 922 81 q 542 -14 699 -14 m 674 1014 l 393 1014 l 578 1200 l 954 1200 l 674 1014 z "},"Ċ":{"ha":1069,"x_min":28,"x_max":1042,"o":"m 542 -14 q 265 45 381 -14 q 89 212 150 104 q 28 465 28 319 q 89 719 28 611 q 265 885 150 826 q 542 944 381 944 q 810 897 699 944 q 982 761 922 850 q 1042 547 1042 672 l 1042 524 l 750 524 l 750 547 q 706 660 750 626 q 546 694 661 694 q 399 676 451 694 q 326 608 347 657 q 306 465 306 558 q 326 324 306 374 q 399 255 347 274 q 546 236 451 236 q 706 270 661 236 q 750 383 750 304 l 750 407 l 1042 407 l 1042 383 q 982 170 1042 260 q 810 33 922 81 q 542 -14 699 -14 m 665 1014 l 404 1014 l 404 1207 l 665 1207 l 665 1014 z "},"Č":{"ha":1069,"x_min":28,"x_max":1042,"o":"m 542 -14 q 265 45 381 -14 q 89 212 150 104 q 28 465 28 319 q 89 719 28 611 q 265 885 150 826 q 542 944 381 944 q 810 897 699 944 q 982 761 922 850 q 1042 547 1042 672 l 1042 524 l 750 524 l 750 547 q 706 660 750 626 q 546 694 661 694 q 399 676 451 694 q 326 608 347 657 q 306 465 306 558 q 326 324 306 374 q 399 255 347 274 q 546 236 451 236 q 706 270 661 236 q 750 383 750 304 l 750 407 l 1042 407 l 1042 383 q 982 170 1042 260 q 810 33 922 81 q 542 -14 699 -14 m 599 1194 l 878 1194 l 693 1014 l 378 1014 l 192 1194 l 472 1194 l 526 1136 l 543 1136 l 599 1194 z "},"D":{"ha":1057,"x_min":57,"x_max":1029,"o":"m 528 0 l 122 0 l 122 235 l 528 235 q 660 249 611 235 q 729 312 708 263 q 750 465 750 361 q 729 619 750 571 q 660 682 708 668 q 528 696 611 696 l 122 696 l 122 931 l 528 931 q 794 876 682 931 q 968 717 907 821 q 1029 465 1029 613 q 968 214 1029 318 q 794 55 907 110 q 528 0 682 0 m 318 0 l 57 0 l 57 931 l 318 931 l 318 0 z "},"Ď":{"ha":1057,"x_min":57,"x_max":1029,"o":"m 528 0 l 122 0 l 122 235 l 528 235 q 660 249 611 235 q 729 312 708 263 q 750 465 750 361 q 729 619 750 571 q 660 682 708 668 q 528 696 611 696 l 122 696 l 122 931 l 528 931 q 794 876 682 931 q 968 717 907 821 q 1029 465 1029 613 q 968 214 1029 318 q 794 55 907 110 q 528 0 682 0 m 318 0 l 57 0 l 57 931 l 318 931 l 318 0 m 607 1194 l 886 1194 l 701 1014 l 386 1014 l 200 1194 l 481 1194 l 535 1136 l 551 1136 l 607 1194 z "},"E":{"ha":900,"x_min":42,"x_max":868,"o":"m 303 0 l 42 0 l 42 931 l 303 931 l 303 0 m 868 0 l 113 0 l 113 235 l 868 235 l 868 0 m 847 351 l 113 351 l 113 585 l 847 585 l 847 351 m 868 696 l 113 696 l 113 931 l 868 931 l 868 696 z "},"È":{"ha":900,"x_min":35,"x_max":868,"o":"m 303 0 l 42 0 l 42 931 l 303 931 l 303 0 m 868 0 l 113 0 l 113 235 l 868 235 l 868 0 m 847 351 l 113 351 l 113 585 l 847 585 l 847 351 m 868 696 l 113 696 l 113 931 l 868 931 l 868 696 m 596 1014 l 315 1014 l 35 1200 l 411 1200 l 596 1014 z "},"É":{"ha":900,"x_min":42,"x_max":874,"o":"m 303 0 l 42 0 l 42 931 l 303 931 l 303 0 m 868 0 l 113 0 l 113 235 l 868 235 l 868 0 m 847 351 l 113 351 l 113 585 l 847 585 l 847 351 m 868 696 l 113 696 l 113 931 l 868 931 l 868 696 m 593 1014 l 313 1014 l 497 1200 l 874 1200 l 593 1014 z "},"Ê":{"ha":900,"x_min":42,"x_max":868,"o":"m 303 0 l 42 0 l 42 931 l 303 931 l 303 0 m 868 0 l 113 0 l 113 235 l 868 235 l 868 0 m 847 351 l 113 351 l 113 585 l 847 585 l 847 351 m 868 696 l 113 696 l 113 931 l 868 931 l 868 696 m 390 1014 l 111 1014 l 296 1194 l 611 1194 l 797 1014 l 517 1014 l 463 1072 l 446 1072 l 390 1014 z "},"Ë":{"ha":900,"x_min":42,"x_max":868,"o":"m 303 0 l 42 0 l 42 931 l 303 931 l 303 0 m 868 0 l 113 0 l 113 235 l 868 235 l 868 0 m 847 351 l 113 351 l 113 585 l 847 585 l 847 351 m 868 696 l 113 696 l 113 931 l 868 931 l 868 696 m 742 1014 l 494 1014 l 494 1207 l 742 1207 l 742 1014 m 414 1014 l 167 1014 l 167 1207 l 414 1207 l 414 1014 z "},"Ē":{"ha":900,"x_min":42,"x_max":868,"o":"m 303 0 l 42 0 l 42 931 l 303 931 l 303 0 m 868 0 l 113 0 l 113 235 l 868 235 l 868 0 m 847 351 l 113 351 l 113 585 l 847 585 l 847 351 m 868 696 l 113 696 l 113 931 l 868 931 l 868 696 m 700 1015 l 207 1015 l 207 1201 l 700 1201 l 700 1015 z "},"Ĕ":{"ha":900,"x_min":42,"x_max":868,"o":"m 303 0 l 42 0 l 42 931 l 303 931 l 303 0 m 868 0 l 113 0 l 113 235 l 868 235 l 868 0 m 847 351 l 113 351 l 113 585 l 847 585 l 847 351 m 868 696 l 113 696 l 113 931 l 868 931 l 868 696 m 454 1000 q 277 1055 344 1000 q 210 1194 210 1110 l 210 1213 l 392 1213 l 392 1199 q 403 1166 392 1176 q 454 1156 414 1156 q 506 1166 496 1156 q 517 1199 517 1176 l 517 1213 l 699 1213 l 699 1194 q 631 1055 699 1110 q 454 1000 564 1000 z "},"Ė":{"ha":900,"x_min":42,"x_max":868,"o":"m 303 0 l 42 0 l 42 931 l 303 931 l 303 0 m 868 0 l 113 0 l 113 235 l 868 235 l 868 0 m 847 351 l 113 351 l 113 585 l 847 585 l 847 351 m 868 696 l 113 696 l 113 931 l 868 931 l 868 696 m 585 1014 l 324 1014 l 324 1207 l 585 1207 l 585 1014 z "},"Ę":{"ha":900,"x_min":42,"x_max":881,"o":"m 303 0 l 42 0 l 42 931 l 303 931 l 303 0 m 868 0 l 113 0 l 113 235 l 868 235 l 868 0 m 847 351 l 113 351 l 113 585 l 847 585 l 847 351 m 868 696 l 113 696 l 113 931 l 868 931 l 868 696 m 881 -260 l 742 -260 q 631 -232 663 -260 q 599 -161 599 -204 q 620 -92 599 -122 q 668 -33 642 -62 l 700 0 l 868 0 l 806 -78 q 797 -89 800 -83 q 794 -99 794 -94 q 797 -105 794 -103 q 806 -107 800 -107 l 881 -107 l 881 -260 z "},"Ě":{"ha":900,"x_min":42,"x_max":868,"o":"m 303 0 l 42 0 l 42 931 l 303 931 l 303 0 m 868 0 l 113 0 l 113 235 l 868 235 l 868 0 m 847 351 l 113 351 l 113 585 l 847 585 l 847 351 m 868 696 l 113 696 l 113 931 l 868 931 l 868 696 m 518 1194 l 797 1194 l 613 1014 l 297 1014 l 111 1194 l 392 1194 l 446 1136 l 463 1136 l 518 1194 z "},"F":{"ha":900,"x_min":42,"x_max":874,"o":"m 303 0 l 42 0 l 42 931 l 303 931 l 303 0 m 853 324 l 113 324 l 113 557 l 853 557 l 853 324 m 874 696 l 113 696 l 113 931 l 874 931 l 874 696 z "},"G":{"ha":1107,"x_min":28,"x_max":1071,"o":"m 492 -14 q 242 45 346 -14 q 83 212 138 104 q 28 465 28 319 q 92 719 28 611 q 276 885 156 826 q 567 944 397 944 q 838 900 725 944 q 1010 773 950 856 q 1069 575 1069 690 l 1069 565 l 778 565 l 778 575 q 731 667 778 640 q 560 694 683 694 q 405 676 460 694 q 328 608 350 657 q 306 465 306 558 q 326 324 306 374 q 399 255 347 274 q 546 236 451 236 q 715 244 658 236 q 791 277 772 251 q 810 357 810 303 l 810 408 l 1071 414 l 1071 394 l 844 199 l 814 199 q 767 96 801 144 q 667 17 733 47 q 492 -14 601 -14 m 1071 0 l 828 0 l 828 265 l 810 294 l 810 496 l 1071 496 l 1071 0 m 1071 317 l 521 317 l 521 508 l 1071 508 l 1071 317 z "},"Ĝ":{"ha":1107,"x_min":28,"x_max":1071,"o":"m 492 -14 q 242 45 346 -14 q 83 212 138 104 q 28 465 28 319 q 92 719 28 611 q 276 885 156 826 q 567 944 397 944 q 838 900 725 944 q 1010 773 950 856 q 1069 575 1069 690 l 1069 565 l 778 565 l 778 575 q 731 667 778 640 q 560 694 683 694 q 405 676 460 694 q 328 608 350 657 q 306 465 306 558 q 326 324 306 374 q 399 255 347 274 q 546 236 451 236 q 715 244 658 236 q 791 277 772 251 q 810 357 810 303 l 810 408 l 1071 414 l 1071 394 l 844 199 l 814 199 q 767 96 801 144 q 667 17 733 47 q 492 -14 601 -14 m 1071 0 l 828 0 l 828 265 l 810 294 l 810 496 l 1071 496 l 1071 0 m 1071 317 l 521 317 l 521 508 l 1071 508 l 1071 317 m 501 1014 l 222 1014 l 407 1194 l 722 1194 l 908 1014 l 628 1014 l 574 1072 l 557 1072 l 501 1014 z "},"Ğ":{"ha":1107,"x_min":28,"x_max":1071,"o":"m 492 -14 q 242 45 346 -14 q 83 212 138 104 q 28 465 28 319 q 92 719 28 611 q 276 885 156 826 q 567 944 397 944 q 838 900 725 944 q 1010 773 950 856 q 1069 575 1069 690 l 1069 565 l 778 565 l 778 575 q 731 667 778 640 q 560 694 683 694 q 405 676 460 694 q 328 608 350 657 q 306 465 306 558 q 326 324 306 374 q 399 255 347 274 q 546 236 451 236 q 715 244 658 236 q 791 277 772 251 q 810 357 810 303 l 810 408 l 1071 414 l 1071 394 l 844 199 l 814 199 q 767 96 801 144 q 667 17 733 47 q 492 -14 601 -14 m 1071 0 l 828 0 l 828 265 l 810 294 l 810 496 l 1071 496 l 1071 0 m 1071 317 l 521 317 l 521 508 l 1071 508 l 1071 317 m 565 1000 q 388 1055 456 1000 q 321 1194 321 1110 l 321 1213 l 503 1213 l 503 1199 q 514 1166 503 1176 q 565 1156 525 1156 q 617 1166 607 1156 q 628 1199 628 1176 l 628 1213 l 810 1213 l 810 1194 q 742 1055 810 1110 q 565 1000 675 1000 z "},"Ġ":{"ha":1107,"x_min":28,"x_max":1071,"o":"m 492 -14 q 242 45 346 -14 q 83 212 138 104 q 28 465 28 319 q 92 719 28 611 q 276 885 156 826 q 567 944 397 944 q 838 900 725 944 q 1010 773 950 856 q 1069 575 1069 690 l 1069 565 l 778 565 l 778 575 q 731 667 778 640 q 560 694 683 694 q 405 676 460 694 q 328 608 350 657 q 306 465 306 558 q 326 324 306 374 q 399 255 347 274 q 546 236 451 236 q 715 244 658 236 q 791 277 772 251 q 810 357 810 303 l 810 408 l 1071 414 l 1071 394 l 844 199 l 814 199 q 767 96 801 144 q 667 17 733 47 q 492 -14 601 -14 m 1071 0 l 828 0 l 828 265 l 810 294 l 810 496 l 1071 496 l 1071 0 m 1071 317 l 521 317 l 521 508 l 1071 508 l 1071 317 m 696 1014 l 435 1014 l 435 1207 l 696 1207 l 696 1014 z "},"Ģ":{"ha":1107,"x_min":28,"x_max":1071,"o":"m 492 -14 q 242 45 346 -14 q 83 212 138 104 q 28 465 28 319 q 92 719 28 611 q 276 885 156 826 q 567 944 397 944 q 838 900 725 944 q 1010 773 950 856 q 1069 575 1069 690 l 1069 565 l 778 565 l 778 575 q 731 667 778 640 q 560 694 683 694 q 405 676 460 694 q 328 608 350 657 q 306 465 306 558 q 326 324 306 374 q 399 255 347 274 q 546 236 451 236 q 715 244 658 236 q 791 277 772 251 q 810 357 810 303 l 810 408 l 1071 414 l 1071 394 l 844 199 l 814 199 q 767 96 801 144 q 667 17 733 47 q 492 -14 601 -14 m 1071 0 l 828 0 l 828 265 l 810 294 l 810 496 l 1071 496 l 1071 0 m 1071 317 l 521 317 l 521 508 l 1071 508 l 1071 317 m 529 -278 l 224 -278 l 379 -97 l 758 -97 l 529 -278 z "},"H":{"ha":1039,"x_min":42,"x_max":997,"o":"m 997 0 l 736 0 l 736 931 l 997 931 l 997 0 m 303 0 l 42 0 l 42 931 l 303 931 l 303 0 m 871 350 l 110 350 l 110 585 l 871 585 l 871 350 z "},"I":{"ha":344,"x_min":42,"x_max":303,"o":"m 303 0 l 42 0 l 42 931 l 303 931 l 303 0 z "},"Ì":{"ha":344,"x_min":-247,"x_max":314,"o":"m 303 0 l 42 0 l 42 931 l 303 931 l 303 0 m 314 1014 l 33 1014 l -247 1200 l 129 1200 l 314 1014 z "},"Í":{"ha":344,"x_min":31,"x_max":592,"o":"m 303 0 l 42 0 l 42 931 l 303 931 l 303 0 m 311 1014 l 31 1014 l 215 1200 l 592 1200 l 311 1014 z "},"Î":{"ha":344,"x_min":-171,"x_max":515,"o":"m 303 0 l 42 0 l 42 931 l 303 931 l 303 0 m 108 1014 l -171 1014 l 14 1194 l 329 1194 l 515 1014 l 235 1014 l 181 1072 l 164 1072 l 108 1014 z "},"Ï":{"ha":344,"x_min":-115,"x_max":460,"o":"m 303 0 l 42 0 l 42 931 l 303 931 l 303 0 m 460 1014 l 213 1014 l 213 1207 l 460 1207 l 460 1014 m 132 1014 l -115 1014 l -115 1207 l 132 1207 l 132 1014 z "},"Ĩ":{"ha":344,"x_min":-114,"x_max":458,"o":"m 303 0 l 42 0 l 42 931 l 303 931 l 303 0 m 60 989 l -114 989 l -114 1058 q -103 1131 -114 1094 q -62 1191 -93 1167 q 31 1215 -31 1215 q 84 1209 54 1215 q 153 1189 114 1203 l 200 1172 q 232 1163 218 1167 q 256 1158 246 1158 q 278 1167 271 1158 q 286 1193 286 1175 l 286 1203 l 458 1203 l 458 1135 q 427 1022 458 1067 q 325 976 396 976 q 261 985 293 976 q 199 1003 229 993 l 135 1024 q 104 1033 117 1031 q 83 1036 92 1036 q 65 1028 69 1036 q 60 1011 60 1021 l 60 989 z "},"Ī":{"ha":344,"x_min":-75,"x_max":418,"o":"m 303 0 l 42 0 l 42 931 l 303 931 l 303 0 m 418 1015 l -75 1015 l -75 1201 l 418 1201 l 418 1015 z "},"Ĭ":{"ha":344,"x_min":-72,"x_max":417,"o":"m 303 0 l 42 0 l 42 931 l 303 931 l 303 0 m 172 1000 q -5 1055 63 1000 q -72 1194 -72 1110 l -72 1213 l 110 1213 l 110 1199 q 121 1166 110 1176 q 172 1156 132 1156 q 224 1166 214 1156 q 235 1199 235 1176 l 235 1213 l 417 1213 l 417 1194 q 349 1055 417 1110 q 172 1000 282 1000 z "},"Į":{"ha":344,"x_min":33,"x_max":315,"o":"m 303 0 l 42 0 l 42 931 l 303 931 l 303 0 m 315 -260 l 176 -260 q 65 -232 97 -260 q 33 -161 33 -204 q 55 -92 33 -122 q 103 -33 76 -62 l 135 0 l 303 0 l 240 -78 q 232 -89 235 -83 q 229 -99 229 -94 q 232 -105 229 -103 q 240 -107 235 -107 l 315 -107 l 315 -260 z "},"İ":{"ha":344,"x_min":42,"x_max":303,"o":"m 303 0 l 42 0 l 42 931 l 303 931 l 303 0 m 303 1014 l 42 1014 l 42 1207 l 303 1207 l 303 1014 z "},"J":{"ha":922,"x_min":14,"x_max":886,"o":"m 449 -14 q 194 33 290 -14 q 56 172 99 81 q 14 399 14 264 l 14 435 l 292 435 l 292 401 q 300 303 292 339 q 341 253 308 268 q 449 239 374 239 q 557 252 524 239 q 599 298 590 265 q 608 388 608 331 l 608 931 l 886 931 l 886 385 q 843 167 886 256 q 704 32 800 78 q 449 -14 608 -14 z "},"Ĵ":{"ha":922,"x_min":14,"x_max":1090,"o":"m 449 -14 q 194 33 290 -14 q 56 172 99 81 q 14 399 14 264 l 14 435 l 292 435 l 292 401 q 300 303 292 339 q 341 253 308 268 q 449 239 374 239 q 557 252 524 239 q 599 298 590 265 q 608 388 608 331 l 608 931 l 886 931 l 886 385 q 843 167 886 256 q 704 32 800 78 q 449 -14 608 -14 m 683 1014 l 404 1014 l 589 1194 l 904 1194 l 1090 1014 l 810 1014 l 756 1072 l 739 1072 l 683 1014 z "},"K":{"ha":1015,"x_min":42,"x_max":1029,"o":"m 1022 0 l 710 0 l 493 331 l 226 331 l 226 585 l 490 585 l 717 931 l 1029 931 l 707 474 l 1022 0 m 303 0 l 42 0 l 42 931 l 303 931 l 303 0 z "},"Ķ":{"ha":1015,"x_min":42,"x_max":1029,"o":"m 1022 0 l 710 0 l 493 331 l 226 331 l 226 585 l 490 585 l 717 931 l 1029 931 l 707 474 l 1022 0 m 303 0 l 42 0 l 42 931 l 303 931 l 303 0 m 496 -278 l 190 -278 l 346 -97 l 725 -97 l 496 -278 z "},"L":{"ha":868,"x_min":42,"x_max":840,"o":"m 303 0 l 42 0 l 42 931 l 303 931 l 303 0 m 840 0 l 114 0 l 114 235 l 840 235 l 840 0 z "},"Ĺ":{"ha":868,"x_min":42,"x_max":840,"o":"m 303 0 l 42 0 l 42 931 l 303 931 l 303 0 m 840 0 l 114 0 l 114 235 l 840 235 l 840 0 m 322 1014 l 42 1014 l 226 1200 l 603 1200 l 322 1014 z "},"Ļ":{"ha":868,"x_min":42,"x_max":840,"o":"m 303 0 l 42 0 l 42 931 l 303 931 l 303 0 m 840 0 l 114 0 l 114 235 l 840 235 l 840 0 m 425 -278 l 119 -278 l 275 -97 l 654 -97 l 425 -278 z "},"Ľ":{"ha":868,"x_min":42,"x_max":840,"o":"m 303 0 l 42 0 l 42 931 l 303 931 l 303 0 m 840 0 l 114 0 l 114 235 l 840 235 l 840 0 m 789 664 l 450 664 l 450 931 l 789 931 l 789 664 m 558 419 l 464 419 l 464 593 l 550 593 q 587 603 575 593 q 599 643 599 613 l 599 696 l 789 696 l 789 646 q 729 476 789 532 q 558 419 669 419 z "},"M":{"ha":1322,"x_min":42,"x_max":1281,"o":"m 303 0 l 42 0 l 42 931 l 396 931 l 567 544 l 658 304 l 676 304 l 764 544 l 926 931 l 1281 931 l 1281 0 l 1019 0 l 1019 385 l 1029 540 l 1011 540 l 958 385 l 819 56 l 503 56 l 364 385 l 311 540 l 293 540 l 303 385 l 303 0 z "},"N":{"ha":1022,"x_min":42,"x_max":981,"o":"m 303 0 l 42 0 l 42 931 l 319 931 l 578 582 l 714 368 l 732 368 l 719 571 l 719 931 l 981 931 l 981 0 l 703 0 l 428 358 l 310 542 l 292 542 l 303 364 l 303 0 z "},"Ñ":{"ha":1022,"x_min":42,"x_max":981,"o":"m 303 0 l 42 0 l 42 931 l 319 931 l 578 582 l 714 368 l 732 368 l 719 571 l 719 931 l 981 931 l 981 0 l 703 0 l 428 358 l 310 542 l 292 542 l 303 364 l 303 0 m 399 989 l 225 989 l 225 1058 q 235 1131 225 1094 q 277 1191 246 1167 q 369 1215 308 1215 q 423 1209 393 1215 q 492 1189 453 1203 l 539 1172 q 571 1163 557 1167 q 594 1158 585 1158 q 617 1167 610 1158 q 625 1193 625 1175 l 625 1203 l 797 1203 l 797 1135 q 766 1022 797 1067 q 664 976 735 976 q 600 985 632 976 q 538 1003 568 993 l 474 1024 q 443 1033 456 1031 q 422 1036 431 1036 q 403 1028 408 1036 q 399 1011 399 1021 l 399 989 z "},"Ń":{"ha":1022,"x_min":42,"x_max":981,"o":"m 303 0 l 42 0 l 42 931 l 319 931 l 578 582 l 714 368 l 732 368 l 719 571 l 719 931 l 981 931 l 981 0 l 703 0 l 428 358 l 310 542 l 292 542 l 303 364 l 303 0 m 650 1014 l 369 1014 l 554 1200 l 931 1200 l 650 1014 z "},"Ņ":{"ha":1022,"x_min":42,"x_max":981,"o":"m 303 0 l 42 0 l 42 931 l 319 931 l 578 582 l 714 368 l 732 368 l 719 571 l 719 931 l 981 931 l 981 0 l 703 0 l 428 358 l 310 542 l 292 542 l 303 364 l 303 0 m 496 -278 l 190 -278 l 346 -97 l 725 -97 l 496 -278 z "},"Ň":{"ha":1022,"x_min":42,"x_max":981,"o":"m 303 0 l 42 0 l 42 931 l 319 931 l 578 582 l 714 368 l 732 368 l 719 571 l 719 931 l 981 931 l 981 0 l 703 0 l 428 358 l 310 542 l 292 542 l 303 364 l 303 0 m 575 1194 l 854 1194 l 669 1014 l 354 1014 l 168 1194 l 449 1194 l 503 1136 l 519 1136 l 575 1194 z "},"O":{"ha":1092,"x_min":28,"x_max":1064,"o":"m 543 -14 q 266 45 382 -14 q 89 212 150 104 q 28 465 28 319 q 89 719 28 611 q 266 885 150 826 q 543 944 382 944 q 826 885 710 944 q 1003 719 942 826 q 1064 465 1064 611 q 1003 212 1064 319 q 826 45 942 104 q 543 -14 710 -14 m 543 236 q 690 255 638 236 q 765 324 743 274 q 786 465 786 374 q 765 608 786 558 q 690 676 743 657 q 543 694 638 694 q 397 676 449 694 q 326 608 346 657 q 306 465 306 558 q 326 324 306 374 q 397 255 346 274 q 543 236 449 236 z "},"Ò":{"ha":1092,"x_min":28,"x_max":1064,"o":"m 543 -14 q 266 45 382 -14 q 89 212 150 104 q 28 465 28 319 q 89 719 28 611 q 266 885 150 826 q 543 944 382 944 q 826 885 710 944 q 1003 719 942 826 q 1064 465 1064 611 q 1003 212 1064 319 q 826 45 942 104 q 543 -14 710 -14 m 543 236 q 690 255 638 236 q 765 324 743 274 q 786 465 786 374 q 765 608 786 558 q 690 676 743 657 q 543 694 638 694 q 397 676 449 694 q 326 608 346 657 q 306 465 306 558 q 326 324 306 374 q 397 255 346 274 q 543 236 449 236 m 688 1014 l 407 1014 l 126 1200 l 503 1200 l 688 1014 z "},"Ó":{"ha":1092,"x_min":28,"x_max":1064,"o":"m 543 -14 q 266 45 382 -14 q 89 212 150 104 q 28 465 28 319 q 89 719 28 611 q 266 885 150 826 q 543 944 382 944 q 826 885 710 944 q 1003 719 942 826 q 1064 465 1064 611 q 1003 212 1064 319 q 826 45 942 104 q 543 -14 710 -14 m 543 236 q 690 255 638 236 q 765 324 743 274 q 786 465 786 374 q 765 608 786 558 q 690 676 743 657 q 543 694 638 694 q 397 676 449 694 q 326 608 346 657 q 306 465 306 558 q 326 324 306 374 q 397 255 346 274 q 543 236 449 236 m 685 1014 l 404 1014 l 589 1200 l 965 1200 l 685 1014 z "},"Ô":{"ha":1092,"x_min":28,"x_max":1064,"o":"m 543 -14 q 266 45 382 -14 q 89 212 150 104 q 28 465 28 319 q 89 719 28 611 q 266 885 150 826 q 543 944 382 944 q 826 885 710 944 q 1003 719 942 826 q 1064 465 1064 611 q 1003 212 1064 319 q 826 45 942 104 q 543 -14 710 -14 m 543 236 q 690 255 638 236 q 765 324 743 274 q 786 465 786 374 q 765 608 786 558 q 690 676 743 657 q 543 694 638 694 q 397 676 449 694 q 326 608 346 657 q 306 465 306 558 q 326 324 306 374 q 397 255 346 274 q 543 236 449 236 m 482 1014 l 203 1014 l 388 1194 l 703 1194 l 889 1014 l 608 1014 l 554 1072 l 538 1072 l 482 1014 z "},"Õ":{"ha":1092,"x_min":28,"x_max":1064,"o":"m 543 -14 q 266 45 382 -14 q 89 212 150 104 q 28 465 28 319 q 89 719 28 611 q 266 885 150 826 q 543 944 382 944 q 826 885 710 944 q 1003 719 942 826 q 1064 465 1064 611 q 1003 212 1064 319 q 826 45 942 104 q 543 -14 710 -14 m 543 236 q 690 255 638 236 q 765 324 743 274 q 786 465 786 374 q 765 608 786 558 q 690 676 743 657 q 543 694 638 694 q 397 676 449 694 q 326 608 346 657 q 306 465 306 558 q 326 324 306 374 q 397 255 346 274 q 543 236 449 236 m 433 989 l 260 989 l 260 1058 q 270 1131 260 1094 q 311 1191 281 1167 q 404 1215 342 1215 q 458 1209 428 1215 q 526 1189 488 1203 l 574 1172 q 606 1163 592 1167 q 629 1158 619 1158 q 652 1167 644 1158 q 660 1193 660 1175 l 660 1203 l 832 1203 l 832 1135 q 801 1022 832 1067 q 699 976 769 976 q 635 985 667 976 q 572 1003 603 993 l 508 1024 q 478 1033 490 1031 q 457 1036 465 1036 q 438 1028 443 1036 q 433 1011 433 1021 l 433 989 z "},"Ö":{"ha":1092,"x_min":28,"x_max":1064,"o":"m 543 -14 q 266 45 382 -14 q 89 212 150 104 q 28 465 28 319 q 89 719 28 611 q 266 885 150 826 q 543 944 382 944 q 826 885 710 944 q 1003 719 942 826 q 1064 465 1064 611 q 1003 212 1064 319 q 826 45 942 104 q 543 -14 710 -14 m 543 236 q 690 255 638 236 q 765 324 743 274 q 786 465 786 374 q 765 608 786 558 q 690 676 743 657 q 543 694 638 694 q 397 676 449 694 q 326 608 346 657 q 306 465 306 558 q 326 324 306 374 q 397 255 346 274 q 543 236 449 236 m 833 1014 l 586 1014 l 586 1207 l 833 1207 l 833 1014 m 506 1014 l 258 1014 l 258 1207 l 506 1207 l 506 1014 z "},"Ō":{"ha":1092,"x_min":28,"x_max":1064,"o":"m 543 -14 q 266 45 382 -14 q 89 212 150 104 q 28 465 28 319 q 89 719 28 611 q 266 885 150 826 q 543 944 382 944 q 826 885 710 944 q 1003 719 942 826 q 1064 465 1064 611 q 1003 212 1064 319 q 826 45 942 104 q 543 -14 710 -14 m 543 236 q 690 255 638 236 q 765 324 743 274 q 786 465 786 374 q 765 608 786 558 q 690 676 743 657 q 543 694 638 694 q 397 676 449 694 q 326 608 346 657 q 306 465 306 558 q 326 324 306 374 q 397 255 346 274 q 543 236 449 236 m 792 1015 l 299 1015 l 299 1201 l 792 1201 l 792 1015 z "},"Ŏ":{"ha":1092,"x_min":28,"x_max":1064,"o":"m 543 -14 q 266 45 382 -14 q 89 212 150 104 q 28 465 28 319 q 89 719 28 611 q 266 885 150 826 q 543 944 382 944 q 826 885 710 944 q 1003 719 942 826 q 1064 465 1064 611 q 1003 212 1064 319 q 826 45 942 104 q 543 -14 710 -14 m 543 236 q 690 255 638 236 q 765 324 743 274 q 786 465 786 374 q 765 608 786 558 q 690 676 743 657 q 543 694 638 694 q 397 676 449 694 q 326 608 346 657 q 306 465 306 558 q 326 324 306 374 q 397 255 346 274 q 543 236 449 236 m 546 1000 q 369 1055 436 1000 q 301 1194 301 1110 l 301 1213 l 483 1213 l 483 1199 q 494 1166 483 1176 q 546 1156 506 1156 q 598 1166 588 1156 q 608 1199 608 1176 l 608 1213 l 790 1213 l 790 1194 q 723 1055 790 1110 q 546 1000 656 1000 z "},"Ő":{"ha":1092,"x_min":28,"x_max":1064,"o":"m 543 -14 q 266 45 382 -14 q 89 212 150 104 q 28 465 28 319 q 89 719 28 611 q 266 885 150 826 q 543 944 382 944 q 826 885 710 944 q 1003 719 942 826 q 1064 465 1064 611 q 1003 212 1064 319 q 826 45 942 104 q 543 -14 710 -14 m 543 236 q 690 255 638 236 q 765 324 743 274 q 786 465 786 374 q 765 608 786 558 q 690 676 743 657 q 543 694 638 694 q 397 676 449 694 q 326 608 346 657 q 306 465 306 558 q 326 324 306 374 q 397 255 346 274 q 543 236 449 236 m 843 1014 l 579 1014 l 690 1200 l 1032 1200 l 843 1014 m 438 1014 l 174 1014 l 283 1200 l 626 1200 l 438 1014 z "},"P":{"ha":931,"x_min":42,"x_max":917,"o":"m 557 235 l 129 235 l 129 469 l 528 469 q 627 490 597 469 q 657 583 657 511 q 627 675 657 654 q 528 696 597 696 l 129 696 l 129 931 l 557 931 q 749 890 668 931 q 873 772 829 849 q 917 583 917 694 q 873 395 917 474 q 749 276 829 317 q 557 235 668 235 m 303 0 l 42 0 l 42 931 l 303 931 l 303 0 z "},"Q":{"ha":1092,"x_min":28,"x_max":1064,"o":"m 543 -14 q 266 45 382 -14 q 89 212 150 104 q 28 465 28 319 q 89 719 28 611 q 266 885 150 826 q 543 944 382 944 q 826 885 710 944 q 1003 719 942 826 q 1064 465 1064 611 q 1003 212 1064 319 q 826 45 942 104 q 543 -14 710 -14 m 975 -196 l 632 -196 l 311 196 l 613 196 l 975 -196 m 543 236 q 690 255 638 236 q 765 324 743 274 q 786 465 786 374 q 765 608 786 558 q 690 676 743 657 q 543 694 638 694 q 397 676 449 694 q 326 608 346 657 q 306 465 306 558 q 326 324 306 374 q 397 255 346 274 q 543 236 449 236 z "},"R":{"ha":985,"x_min":42,"x_max":985,"o":"m 303 0 l 42 0 l 42 931 l 585 931 q 792 897 708 931 q 917 801 875 864 q 960 646 960 738 q 934 519 960 572 q 853 433 908 465 q 708 389 797 400 l 708 375 q 812 322 781 357 q 869 233 843 286 l 985 0 l 683 0 l 572 228 q 538 282 556 263 q 490 309 519 301 q 410 317 461 317 l 303 317 l 303 0 m 303 696 l 303 511 l 582 511 q 663 528 639 511 q 686 604 686 544 q 663 678 686 660 q 582 696 639 696 l 303 696 z "},"Ŕ":{"ha":985,"x_min":42,"x_max":985,"o":"m 303 0 l 42 0 l 42 931 l 585 931 q 792 897 708 931 q 917 801 875 864 q 960 646 960 738 q 934 519 960 572 q 853 433 908 465 q 708 389 797 400 l 708 375 q 812 322 781 357 q 869 233 843 286 l 985 0 l 683 0 l 572 228 q 538 282 556 263 q 490 309 519 301 q 410 317 461 317 l 303 317 l 303 0 m 303 696 l 303 511 l 582 511 q 663 528 639 511 q 686 604 686 544 q 663 678 686 660 q 582 696 639 696 l 303 696 m 624 1014 l 343 1014 l 528 1200 l 904 1200 l 624 1014 z "},"Ŗ":{"ha":985,"x_min":42,"x_max":985,"o":"m 303 0 l 42 0 l 42 931 l 585 931 q 792 897 708 931 q 917 801 875 864 q 960 646 960 738 q 934 519 960 572 q 853 433 908 465 q 708 389 797 400 l 708 375 q 812 322 781 357 q 869 233 843 286 l 985 0 l 683 0 l 572 228 q 538 282 556 263 q 490 309 519 301 q 410 317 461 317 l 303 317 l 303 0 m 303 696 l 303 511 l 582 511 q 663 528 639 511 q 686 604 686 544 q 663 678 686 660 q 582 696 639 696 l 303 696 m 469 -278 l 164 -278 l 319 -97 l 699 -97 l 469 -278 z "},"Ř":{"ha":985,"x_min":42,"x_max":985,"o":"m 303 0 l 42 0 l 42 931 l 585 931 q 792 897 708 931 q 917 801 875 864 q 960 646 960 738 q 934 519 960 572 q 853 433 908 465 q 708 389 797 400 l 708 375 q 812 322 781 357 q 869 233 843 286 l 985 0 l 683 0 l 572 228 q 538 282 556 263 q 490 309 519 301 q 410 317 461 317 l 303 317 l 303 0 m 303 696 l 303 511 l 582 511 q 663 528 639 511 q 686 604 686 544 q 663 678 686 660 q 582 696 639 696 l 303 696 m 549 1194 l 828 1194 l 643 1014 l 328 1014 l 142 1194 l 422 1194 l 476 1136 l 493 1136 l 549 1194 z "},"S":{"ha":950,"x_min":21,"x_max":929,"o":"m 493 -14 q 249 22 351 -14 q 90 131 146 57 q 35 324 35 206 l 35 332 l 296 332 l 296 303 q 309 255 296 272 q 364 231 322 238 q 493 224 406 224 q 610 228 572 224 q 658 245 647 233 q 668 278 668 257 q 649 315 668 303 q 574 335 631 328 l 282 374 q 138 420 196 386 q 50 510 79 454 q 21 640 21 565 q 44 750 21 696 q 121 848 68 804 q 260 918 174 892 q 472 944 346 944 q 717 903 621 944 q 862 787 814 863 q 910 607 910 711 l 910 599 l 649 599 l 649 619 q 634 672 649 653 q 576 700 619 692 q 444 708 532 708 q 343 702 378 708 q 295 683 308 696 q 282 650 282 671 q 288 626 282 636 q 309 610 294 615 q 349 600 324 604 l 640 557 q 817 499 754 540 q 904 403 879 458 q 929 288 929 347 q 885 140 929 208 q 746 28 842 71 q 493 -14 650 -14 z "},"Ś":{"ha":950,"x_min":21,"x_max":929,"o":"m 493 -14 q 249 22 351 -14 q 90 131 146 57 q 35 324 35 206 l 35 332 l 296 332 l 296 303 q 309 255 296 272 q 364 231 322 238 q 493 224 406 224 q 610 228 572 224 q 658 245 647 233 q 668 278 668 257 q 649 315 668 303 q 574 335 631 328 l 282 374 q 138 420 196 386 q 50 510 79 454 q 21 640 21 565 q 44 750 21 696 q 121 848 68 804 q 260 918 174 892 q 472 944 346 944 q 717 903 621 944 q 862 787 814 863 q 910 607 910 711 l 910 599 l 649 599 l 649 619 q 634 672 649 653 q 576 700 619 692 q 444 708 532 708 q 343 702 378 708 q 295 683 308 696 q 282 650 282 671 q 288 626 282 636 q 309 610 294 615 q 349 600 324 604 l 640 557 q 817 499 754 540 q 904 403 879 458 q 929 288 929 347 q 885 140 929 208 q 746 28 842 71 q 493 -14 650 -14 m 614 1014 l 333 1014 l 518 1200 l 894 1200 l 614 1014 z "},"Ŝ":{"ha":950,"x_min":21,"x_max":929,"o":"m 493 -14 q 249 22 351 -14 q 90 131 146 57 q 35 324 35 206 l 35 332 l 296 332 l 296 303 q 309 255 296 272 q 364 231 322 238 q 493 224 406 224 q 610 228 572 224 q 658 245 647 233 q 668 278 668 257 q 649 315 668 303 q 574 335 631 328 l 282 374 q 138 420 196 386 q 50 510 79 454 q 21 640 21 565 q 44 750 21 696 q 121 848 68 804 q 260 918 174 892 q 472 944 346 944 q 717 903 621 944 q 862 787 814 863 q 910 607 910 711 l 910 599 l 649 599 l 649 619 q 634 672 649 653 q 576 700 619 692 q 444 708 532 708 q 343 702 378 708 q 295 683 308 696 q 282 650 282 671 q 288 626 282 636 q 309 610 294 615 q 349 600 324 604 l 640 557 q 817 499 754 540 q 904 403 879 458 q 929 288 929 347 q 885 140 929 208 q 746 28 842 71 q 493 -14 650 -14 m 411 1014 l 132 1014 l 317 1194 l 632 1194 l 818 1014 l 538 1014 l 483 1072 l 467 1072 l 411 1014 z "},"Ş":{"ha":950,"x_min":21,"x_max":929,"o":"m 493 -14 q 249 22 351 -14 q 90 131 146 57 q 35 324 35 206 l 35 332 l 296 332 l 296 303 q 309 255 296 272 q 364 231 322 238 q 493 224 406 224 q 610 228 572 224 q 658 245 647 233 q 668 278 668 257 q 649 315 668 303 q 574 335 631 328 l 282 374 q 138 420 196 386 q 50 510 79 454 q 21 640 21 565 q 44 750 21 696 q 121 848 68 804 q 260 918 174 892 q 472 944 346 944 q 717 903 621 944 q 862 787 814 863 q 910 607 910 711 l 910 599 l 649 599 l 649 619 q 634 672 649 653 q 576 700 619 692 q 444 708 532 708 q 343 702 378 708 q 295 683 308 696 q 282 650 282 671 q 288 626 282 636 q 309 610 294 615 q 349 600 324 604 l 640 557 q 817 499 754 540 q 904 403 879 458 q 929 288 929 347 q 885 140 929 208 q 746 28 842 71 q 493 -14 650 -14 m 508 -335 l 357 -335 l 357 -200 l 513 -200 q 522 -198 519 -200 q 524 -192 524 -196 q 522 -184 524 -186 q 513 -182 519 -182 l 357 -182 l 357 4 l 489 4 l 489 -50 l 508 -50 q 628 -88 588 -50 q 669 -190 669 -126 q 628 -295 669 -256 q 508 -335 588 -335 z "},"Š":{"ha":950,"x_min":21,"x_max":929,"o":"m 493 -14 q 249 22 351 -14 q 90 131 146 57 q 35 324 35 206 l 35 332 l 296 332 l 296 303 q 309 255 296 272 q 364 231 322 238 q 493 224 406 224 q 610 228 572 224 q 658 245 647 233 q 668 278 668 257 q 649 315 668 303 q 574 335 631 328 l 282 374 q 138 420 196 386 q 50 510 79 454 q 21 640 21 565 q 44 750 21 696 q 121 848 68 804 q 260 918 174 892 q 472 944 346 944 q 717 903 621 944 q 862 787 814 863 q 910 607 910 711 l 910 599 l 649 599 l 649 619 q 634 672 649 653 q 576 700 619 692 q 444 708 532 708 q 343 702 378 708 q 295 683 308 696 q 282 650 282 671 q 288 626 282 636 q 309 610 294 615 q 349 600 324 604 l 640 557 q 817 499 754 540 q 904 403 879 458 q 929 288 929 347 q 885 140 929 208 q 746 28 842 71 q 493 -14 650 -14 m 539 1194 l 818 1194 l 633 1014 l 318 1014 l 132 1194 l 413 1194 l 467 1136 l 483 1136 l 539 1194 z "},"Ș":{"ha":950,"x_min":21,"x_max":929,"o":"m 493 -14 q 249 22 351 -14 q 90 131 146 57 q 35 324 35 206 l 35 332 l 296 332 l 296 303 q 309 255 296 272 q 364 231 322 238 q 493 224 406 224 q 610 228 572 224 q 658 245 647 233 q 668 278 668 257 q 649 315 668 303 q 574 335 631 328 l 282 374 q 138 420 196 386 q 50 510 79 454 q 21 640 21 565 q 44 750 21 696 q 121 848 68 804 q 260 918 174 892 q 472 944 346 944 q 717 903 621 944 q 862 787 814 863 q 910 607 910 711 l 910 599 l 649 599 l 649 619 q 634 672 649 653 q 576 700 619 692 q 444 708 532 708 q 343 702 378 708 q 295 683 308 696 q 282 650 282 671 q 288 626 282 636 q 309 610 294 615 q 349 600 324 604 l 640 557 q 817 499 754 540 q 904 403 879 458 q 929 288 929 347 q 885 140 929 208 q 746 28 842 71 q 493 -14 650 -14 m 479 -278 l 174 -278 l 329 -97 l 708 -97 l 479 -278 z "},"T":{"ha":960,"x_min":21,"x_max":939,"o":"m 611 0 l 350 0 l 350 931 l 611 931 l 611 0 m 939 696 l 21 696 l 21 931 l 939 931 l 939 696 z "},"Ț":{"ha":960,"x_min":21,"x_max":939,"o":"m 611 0 l 350 0 l 350 931 l 611 931 l 611 0 m 939 696 l 21 696 l 21 931 l 939 931 l 939 696 m 518 -278 l 213 -278 l 368 -97 l 747 -97 l 518 -278 z "},"Ť":{"ha":960,"x_min":21,"x_max":939,"o":"m 611 0 l 350 0 l 350 931 l 611 931 l 611 0 m 939 696 l 21 696 l 21 931 l 939 931 l 939 696 m 544 1194 l 824 1194 l 639 1014 l 324 1014 l 138 1194 l 418 1194 l 472 1136 l 489 1136 l 544 1194 z "},"U":{"ha":1022,"x_min":36,"x_max":986,"o":"m 511 -14 q 244 35 349 -14 q 88 176 139 85 q 36 390 36 267 l 36 931 l 297 931 l 297 411 q 314 307 297 344 q 377 254 331 269 q 511 239 424 239 q 646 254 600 239 q 708 307 692 269 q 725 411 725 344 l 725 931 l 986 931 l 986 390 q 935 176 986 267 q 778 35 883 85 q 511 -14 674 -14 z "},"Ù":{"ha":1022,"x_min":36,"x_max":986,"o":"m 511 -14 q 244 35 349 -14 q 88 176 139 85 q 36 390 36 267 l 36 931 l 297 931 l 297 411 q 314 307 297 344 q 377 254 331 269 q 511 239 424 239 q 646 254 600 239 q 708 307 692 269 q 725 411 725 344 l 725 931 l 986 931 l 986 390 q 935 176 986 267 q 778 35 883 85 q 511 -14 674 -14 m 653 1014 l 372 1014 l 92 1200 l 468 1200 l 653 1014 z "},"Ú":{"ha":1022,"x_min":36,"x_max":986,"o":"m 511 -14 q 244 35 349 -14 q 88 176 139 85 q 36 390 36 267 l 36 931 l 297 931 l 297 411 q 314 307 297 344 q 377 254 331 269 q 511 239 424 239 q 646 254 600 239 q 708 307 692 269 q 725 411 725 344 l 725 931 l 986 931 l 986 390 q 935 176 986 267 q 778 35 883 85 q 511 -14 674 -14 m 650 1014 l 369 1014 l 554 1200 l 931 1200 l 650 1014 z "},"Û":{"ha":1022,"x_min":36,"x_max":986,"o":"m 511 -14 q 244 35 349 -14 q 88 176 139 85 q 36 390 36 267 l 36 931 l 297 931 l 297 411 q 314 307 297 344 q 377 254 331 269 q 511 239 424 239 q 646 254 600 239 q 708 307 692 269 q 725 411 725 344 l 725 931 l 986 931 l 986 390 q 935 176 986 267 q 778 35 883 85 q 511 -14 674 -14 m 447 1014 l 168 1014 l 353 1194 l 668 1194 l 854 1014 l 574 1014 l 519 1072 l 503 1072 l 447 1014 z "},"Ü":{"ha":1022,"x_min":36,"x_max":986,"o":"m 511 -14 q 244 35 349 -14 q 88 176 139 85 q 36 390 36 267 l 36 931 l 297 931 l 297 411 q 314 307 297 344 q 377 254 331 269 q 511 239 424 239 q 646 254 600 239 q 708 307 692 269 q 725 411 725 344 l 725 931 l 986 931 l 986 390 q 935 176 986 267 q 778 35 883 85 q 511 -14 674 -14 m 799 1014 l 551 1014 l 551 1207 l 799 1207 l 799 1014 m 471 1014 l 224 1014 l 224 1207 l 471 1207 l 471 1014 z "},"Ũ":{"ha":1022,"x_min":36,"x_max":986,"o":"m 511 -14 q 244 35 349 -14 q 88 176 139 85 q 36 390 36 267 l 36 931 l 297 931 l 297 411 q 314 307 297 344 q 377 254 331 269 q 511 239 424 239 q 646 254 600 239 q 708 307 692 269 q 725 411 725 344 l 725 931 l 986 931 l 986 390 q 935 176 986 267 q 778 35 883 85 q 511 -14 674 -14 m 399 989 l 225 989 l 225 1058 q 235 1131 225 1094 q 277 1191 246 1167 q 369 1215 308 1215 q 423 1209 393 1215 q 492 1189 453 1203 l 539 1172 q 571 1163 557 1167 q 594 1158 585 1158 q 617 1167 610 1158 q 625 1193 625 1175 l 625 1203 l 797 1203 l 797 1135 q 766 1022 797 1067 q 664 976 735 976 q 600 985 632 976 q 538 1003 568 993 l 474 1024 q 443 1033 456 1031 q 422 1036 431 1036 q 403 1028 408 1036 q 399 1011 399 1021 l 399 989 z "},"Ū":{"ha":1022,"x_min":36,"x_max":986,"o":"m 511 -14 q 244 35 349 -14 q 88 176 139 85 q 36 390 36 267 l 36 931 l 297 931 l 297 411 q 314 307 297 344 q 377 254 331 269 q 511 239 424 239 q 646 254 600 239 q 708 307 692 269 q 725 411 725 344 l 725 931 l 986 931 l 986 390 q 935 176 986 267 q 778 35 883 85 q 511 -14 674 -14 m 757 1015 l 264 1015 l 264 1201 l 757 1201 l 757 1015 z "},"Ŭ":{"ha":1022,"x_min":36,"x_max":986,"o":"m 511 -14 q 244 35 349 -14 q 88 176 139 85 q 36 390 36 267 l 36 931 l 297 931 l 297 411 q 314 307 297 344 q 377 254 331 269 q 511 239 424 239 q 646 254 600 239 q 708 307 692 269 q 725 411 725 344 l 725 931 l 986 931 l 986 390 q 935 176 986 267 q 778 35 883 85 q 511 -14 674 -14 m 511 1000 q 334 1055 401 1000 q 267 1194 267 1110 l 267 1213 l 449 1213 l 449 1199 q 460 1166 449 1176 q 511 1156 471 1156 q 563 1166 553 1156 q 574 1199 574 1176 l 574 1213 l 756 1213 l 756 1194 q 688 1055 756 1110 q 511 1000 621 1000 z "},"Ů":{"ha":1022,"x_min":36,"x_max":986,"o":"m 511 -14 q 244 35 349 -14 q 88 176 139 85 q 36 390 36 267 l 36 931 l 297 931 l 297 411 q 314 307 297 344 q 377 254 331 269 q 511 239 424 239 q 646 254 600 239 q 708 307 692 269 q 725 411 725 344 l 725 931 l 986 931 l 986 390 q 935 176 986 267 q 778 35 883 85 q 511 -14 674 -14 m 511 938 q 382 978 432 938 q 332 1086 332 1019 q 382 1194 332 1153 q 511 1235 432 1235 q 640 1194 590 1235 q 690 1086 690 1153 q 640 978 690 1019 q 511 938 590 938 m 511 1054 q 549 1061 539 1054 q 560 1086 560 1068 q 549 1112 560 1106 q 511 1118 539 1118 q 474 1112 485 1118 q 463 1086 463 1106 q 474 1061 463 1068 q 511 1054 485 1054 z "},"Ű":{"ha":1022,"x_min":36,"x_max":997,"o":"m 511 -14 q 244 35 349 -14 q 88 176 139 85 q 36 390 36 267 l 36 931 l 297 931 l 297 411 q 314 307 297 344 q 377 254 331 269 q 511 239 424 239 q 646 254 600 239 q 708 307 692 269 q 725 411 725 344 l 725 931 l 986 931 l 986 390 q 935 176 986 267 q 778 35 883 85 q 511 -14 674 -14 m 808 1014 l 544 1014 l 656 1200 l 997 1200 l 808 1014 m 403 1014 l 139 1014 l 249 1200 l 592 1200 l 403 1014 z "},"Ų":{"ha":1022,"x_min":36,"x_max":986,"o":"m 511 -14 q 244 35 349 -14 q 88 176 139 85 q 36 390 36 267 l 36 931 l 297 931 l 297 411 q 314 307 297 344 q 377 254 331 269 q 511 239 424 239 q 646 254 600 239 q 708 307 692 269 q 725 411 725 344 l 725 931 l 986 931 l 986 390 q 935 176 986 267 q 778 35 883 85 q 511 -14 674 -14 m 665 -260 l 526 -260 q 415 -232 447 -260 q 383 -161 383 -204 q 405 -92 383 -122 q 453 -33 426 -62 l 485 0 l 653 0 l 590 -78 q 582 -89 585 -83 q 579 -99 579 -94 q 582 -105 579 -103 q 590 -107 585 -107 l 665 -107 l 665 -260 z "},"V":{"ha":1094,"x_min":-14,"x_max":1108,"o":"m 735 0 l 360 0 l -14 931 l 301 931 l 542 264 l 560 264 l 794 931 l 1108 931 l 735 0 z "},"W":{"ha":1560,"x_min":13,"x_max":1547,"o":"m 594 0 l 207 0 l 13 931 l 304 931 l 382 457 l 407 247 l 425 247 l 463 457 l 588 931 l 981 931 l 1094 457 l 1128 247 l 1146 247 l 1174 457 l 1261 931 l 1547 931 l 1335 0 l 947 0 l 850 399 l 789 690 l 771 690 l 706 399 l 594 0 z "},"Ŵ":{"ha":1560,"x_min":13,"x_max":1547,"o":"m 594 0 l 207 0 l 13 931 l 304 931 l 382 457 l 407 247 l 425 247 l 463 457 l 588 931 l 981 931 l 1094 457 l 1128 247 l 1146 247 l 1174 457 l 1261 931 l 1547 931 l 1335 0 l 947 0 l 850 399 l 789 690 l 771 690 l 706 399 l 594 0 m 717 1014 l 438 1014 l 622 1194 l 938 1194 l 1124 1014 l 843 1014 l 789 1072 l 772 1072 l 717 1014 z "},"Ẁ":{"ha":1560,"x_min":13,"x_max":1547,"o":"m 594 0 l 207 0 l 13 931 l 304 931 l 382 457 l 407 247 l 425 247 l 463 457 l 588 931 l 981 931 l 1094 457 l 1128 247 l 1146 247 l 1174 457 l 1261 931 l 1547 931 l 1335 0 l 947 0 l 850 399 l 789 690 l 771 690 l 706 399 l 594 0 m 922 1014 l 642 1014 l 361 1200 l 738 1200 l 922 1014 z "},"Ẃ":{"ha":1560,"x_min":13,"x_max":1547,"o":"m 594 0 l 207 0 l 13 931 l 304 931 l 382 457 l 407 247 l 425 247 l 463 457 l 588 931 l 981 931 l 1094 457 l 1128 247 l 1146 247 l 1174 457 l 1261 931 l 1547 931 l 1335 0 l 947 0 l 850 399 l 789 690 l 771 690 l 706 399 l 594 0 m 919 1014 l 639 1014 l 824 1200 l 1200 1200 l 919 1014 z "},"Ẅ":{"ha":1560,"x_min":13,"x_max":1547,"o":"m 594 0 l 207 0 l 13 931 l 304 931 l 382 457 l 407 247 l 425 247 l 463 457 l 588 931 l 981 931 l 1094 457 l 1128 247 l 1146 247 l 1174 457 l 1261 931 l 1547 931 l 1335 0 l 947 0 l 850 399 l 789 690 l 771 690 l 706 399 l 594 0 m 1068 1014 l 821 1014 l 821 1207 l 1068 1207 l 1068 1014 m 740 1014 l 493 1014 l 493 1207 l 740 1207 l 740 1014 z "},"X":{"ha":1111,"x_min":-14,"x_max":1125,"o":"m 328 0 l -14 0 l 338 457 l 338 475 l -14 931 l 328 931 l 553 629 l 571 629 l 783 931 l 1125 931 l 775 469 l 775 451 l 1125 0 l 783 0 l 560 303 l 542 303 l 328 0 z "},"Y":{"ha":1064,"x_min":-21,"x_max":1085,"o":"m 657 293 l 399 293 l -21 931 l 303 931 l 443 710 l 522 579 l 540 579 l 619 710 l 760 931 l 1085 931 l 657 293 m 658 0 l 397 0 l 397 442 l 658 442 l 658 0 z "},"Ý":{"ha":1064,"x_min":-21,"x_max":1085,"o":"m 657 293 l 399 293 l -21 931 l 303 931 l 443 710 l 522 579 l 540 579 l 619 710 l 760 931 l 1085 931 l 657 293 m 658 0 l 397 0 l 397 442 l 658 442 l 658 0 m 671 1014 l 390 1014 l 575 1200 l 951 1200 l 671 1014 z "},"Ŷ":{"ha":1064,"x_min":-21,"x_max":1085,"o":"m 657 293 l 399 293 l -21 931 l 303 931 l 443 710 l 522 579 l 540 579 l 619 710 l 760 931 l 1085 931 l 657 293 m 658 0 l 397 0 l 397 442 l 658 442 l 658 0 m 468 1014 l 189 1014 l 374 1194 l 689 1194 l 875 1014 l 594 1014 l 540 1072 l 524 1072 l 468 1014 z "},"Ÿ":{"ha":1064,"x_min":-21,"x_max":1085,"o":"m 657 293 l 399 293 l -21 931 l 303 931 l 443 710 l 522 579 l 540 579 l 619 710 l 760 931 l 1085 931 l 657 293 m 658 0 l 397 0 l 397 442 l 658 442 l 658 0 m 819 1014 l 572 1014 l 572 1207 l 819 1207 l 819 1014 m 492 1014 l 244 1014 l 244 1207 l 492 1207 l 492 1014 z "},"Ỳ":{"ha":1064,"x_min":-21,"x_max":1085,"o":"m 657 293 l 399 293 l -21 931 l 303 931 l 443 710 l 522 579 l 540 579 l 619 710 l 760 931 l 1085 931 l 657 293 m 658 0 l 397 0 l 397 442 l 658 442 l 658 0 m 674 1014 l 393 1014 l 113 1200 l 489 1200 l 674 1014 z "},"Z":{"ha":968,"x_min":35,"x_max":933,"o":"m 933 0 l 35 0 l 35 235 l 531 678 l 531 696 l 43 696 l 43 931 l 925 931 l 925 696 l 407 253 l 407 235 l 933 235 l 933 0 z "},"Ź":{"ha":968,"x_min":35,"x_max":933,"o":"m 933 0 l 35 0 l 35 235 l 531 678 l 531 696 l 43 696 l 43 931 l 925 931 l 925 696 l 407 253 l 407 235 l 933 235 l 933 0 m 624 1014 l 343 1014 l 528 1200 l 904 1200 l 624 1014 z "},"Ż":{"ha":968,"x_min":35,"x_max":933,"o":"m 933 0 l 35 0 l 35 235 l 531 678 l 531 696 l 43 696 l 43 931 l 925 931 l 925 696 l 407 253 l 407 235 l 933 235 l 933 0 m 615 1014 l 354 1014 l 354 1207 l 615 1207 l 615 1014 z "},"Ž":{"ha":968,"x_min":35,"x_max":933,"o":"m 933 0 l 35 0 l 35 235 l 531 678 l 531 696 l 43 696 l 43 931 l 925 931 l 925 696 l 407 253 l 407 235 l 933 235 l 933 0 m 549 1194 l 828 1194 l 643 1014 l 328 1014 l 142 1194 l 422 1194 l 476 1136 l 493 1136 l 549 1194 z "},"Æ":{"ha":1689,"x_min":-11,"x_max":1657,"o":"m 313 0 l -11 0 l 663 931 l 847 931 l 847 711 l 817 711 l 313 0 m 1015 172 l 419 172 l 419 407 l 1015 407 l 1015 172 m 1092 0 l 831 0 l 831 931 l 1092 931 l 1092 0 m 1657 0 l 901 0 l 901 235 l 1657 235 l 1657 0 m 1636 351 l 901 351 l 901 585 l 1636 585 l 1636 351 m 1657 696 l 901 696 l 901 931 l 1657 931 l 1657 696 z "},"Ǽ":{"ha":1689,"x_min":-11,"x_max":1663,"o":"m 313 0 l -11 0 l 663 931 l 847 931 l 847 711 l 817 711 l 313 0 m 1015 172 l 419 172 l 419 407 l 1015 407 l 1015 172 m 1092 0 l 831 0 l 831 931 l 1092 931 l 1092 0 m 1657 0 l 901 0 l 901 235 l 1657 235 l 1657 0 m 1636 351 l 901 351 l 901 585 l 1636 585 l 1636 351 m 1657 696 l 901 696 l 901 931 l 1657 931 l 1657 696 m 1382 1014 l 1101 1014 l 1286 1200 l 1663 1200 l 1382 1014 z "},"Ð":{"ha":1158,"x_min":14,"x_max":1131,"o":"m 629 0 l 224 0 l 224 235 l 629 235 q 761 249 713 235 q 831 312 810 263 q 851 465 851 361 q 831 619 851 571 q 761 682 810 668 q 629 696 713 696 l 224 696 l 224 931 l 629 931 q 896 876 783 931 q 1069 717 1008 821 q 1131 465 1131 613 q 1069 214 1131 318 q 896 55 1008 110 q 629 0 783 0 m 419 0 l 158 0 l 158 931 l 419 931 l 419 0 m 672 349 l 14 349 l 14 582 l 672 582 l 672 349 z "},"Ø":{"ha":1092,"x_min":-1,"x_max":1093,"o":"m 543 -14 q 266 45 382 -14 q 89 212 150 104 q 28 465 28 319 q 89 719 28 611 q 266 885 150 826 q 543 944 382 944 q 826 885 710 944 q 1003 719 942 826 q 1064 465 1064 611 q 1003 212 1064 319 q 826 45 942 104 q 543 -14 710 -14 m 543 236 q 690 255 638 236 q 765 324 743 274 q 786 465 786 374 q 765 608 786 558 q 690 676 743 657 q 543 694 638 694 q 397 676 449 694 q 326 608 346 657 q 306 465 306 558 q 326 324 306 374 q 397 255 346 274 q 543 236 449 236 m 1093 822 l 121 -25 l -1 107 l 971 954 l 1093 822 z "},"Ǿ":{"ha":1092,"x_min":-1,"x_max":1093,"o":"m 543 -14 q 266 45 382 -14 q 89 212 150 104 q 28 465 28 319 q 89 719 28 611 q 266 885 150 826 q 543 944 382 944 q 826 885 710 944 q 1003 719 942 826 q 1064 465 1064 611 q 1003 212 1064 319 q 826 45 942 104 q 543 -14 710 -14 m 543 236 q 690 255 638 236 q 765 324 743 274 q 786 465 786 374 q 765 608 786 558 q 690 676 743 657 q 543 694 638 694 q 397 676 449 694 q 326 608 346 657 q 306 465 306 558 q 326 324 306 374 q 397 255 346 274 q 543 236 449 236 m 1093 822 l 121 -25 l -1 107 l 971 954 l 1093 822 m 685 1014 l 404 1014 l 589 1200 l 965 1200 l 685 1014 z "},"Þ":{"ha":944,"x_min":42,"x_max":931,"o":"m 571 114 l 129 114 l 129 349 l 542 349 q 641 370 611 349 q 671 467 671 392 q 641 562 671 540 q 542 583 611 583 l 129 583 l 129 818 l 571 818 q 763 777 682 818 q 887 658 843 736 q 931 467 931 579 q 887 276 931 354 q 763 156 843 197 q 571 114 682 114 m 303 0 l 42 0 l 42 931 l 303 931 l 303 0 z "},"Đ":{"ha":1158,"x_min":14,"x_max":1131,"o":"m 629 0 l 224 0 l 224 235 l 629 235 q 761 249 713 235 q 831 312 810 263 q 851 465 851 361 q 831 619 851 571 q 761 682 810 668 q 629 696 713 696 l 224 696 l 224 931 l 629 931 q 896 876 783 931 q 1069 717 1008 821 q 1131 465 1131 613 q 1069 214 1131 318 q 896 55 1008 110 q 629 0 783 0 m 419 0 l 158 0 l 158 931 l 419 931 l 419 0 m 672 349 l 14 349 l 14 582 l 672 582 l 672 349 z "},"Ħ":{"ha":1039,"x_min":-57,"x_max":1094,"o":"m 997 0 l 736 0 l 736 931 l 997 931 l 997 0 m 303 0 l 42 0 l 42 931 l 303 931 l 303 0 m 871 350 l 110 350 l 110 585 l 871 585 l 871 350 m 1094 635 l -57 635 l -57 869 l 1094 869 l 1094 635 z "},"Ĳ":{"ha":1267,"x_min":42,"x_max":1231,"o":"m 303 0 l 42 0 l 42 931 l 303 931 l 303 0 m 793 -14 q 539 33 635 -14 q 401 172 443 81 q 358 399 358 264 l 358 435 l 636 435 l 636 401 q 644 303 636 339 q 685 253 653 268 q 793 239 718 239 q 901 252 868 239 q 944 298 935 265 q 953 388 953 331 l 953 931 l 1231 931 l 1231 385 q 1188 167 1231 256 q 1049 32 1144 78 q 793 -14 953 -14 z "},"Ŀ":{"ha":868,"x_min":42,"x_max":840,"o":"m 303 0 l 42 0 l 42 931 l 303 931 l 303 0 m 840 0 l 114 0 l 114 235 l 840 235 l 840 0 m 314 1014 l 53 1014 l 53 1207 l 314 1207 l 314 1014 z "},"Ł":{"ha":943,"x_min":14,"x_max":915,"o":"m 378 0 l 117 0 l 117 931 l 378 931 l 378 0 m 915 0 l 189 0 l 189 235 l 915 235 l 915 0 m 661 467 l 14 242 l 14 483 l 661 708 l 661 467 z "},"Ŋ":{"ha":1022,"x_min":42,"x_max":981,"o":"m 621 -236 l 451 -236 l 451 -3 l 615 -3 q 685 8 671 -3 q 700 46 700 19 l 703 0 l 428 358 l 310 542 l 292 542 l 303 364 l 303 0 l 42 0 l 42 931 l 319 931 l 578 582 l 714 368 l 732 368 l 719 571 l 719 931 l 981 931 l 981 104 q 936 -102 981 -28 q 811 -206 892 -176 q 621 -236 731 -236 z "},"Œ":{"ha":1585,"x_min":28,"x_max":1553,"o":"m 803 0 l 517 0 q 260 55 371 0 q 89 214 150 110 q 28 465 28 318 q 89 717 28 613 q 260 876 150 821 q 517 931 371 931 l 803 931 l 803 696 l 517 696 q 394 682 440 696 q 328 619 349 668 q 308 465 308 571 q 328 312 308 361 q 394 249 349 263 q 517 235 440 235 l 803 235 l 803 0 m 988 0 l 726 0 l 726 931 l 988 931 l 988 0 m 1553 0 l 797 0 l 797 235 l 1553 235 l 1553 0 m 1532 351 l 797 351 l 797 585 l 1532 585 l 1532 351 m 1553 696 l 797 696 l 797 931 l 1553 931 l 1553 696 z "},"Ŧ":{"ha":960,"x_min":21,"x_max":939,"o":"m 611 0 l 350 0 l 350 931 l 611 931 l 611 0 m 939 696 l 21 696 l 21 931 l 939 931 l 939 696 m 810 318 l 151 318 l 151 551 l 810 551 l 810 318 z "},"a":{"ha":826,"x_min":21,"x_max":790,"o":"m 790 0 l 546 0 l 546 156 l 532 156 l 532 404 q 505 472 532 457 q 408 486 478 486 q 320 471 344 486 q 296 411 296 456 l 296 406 l 35 406 l 35 408 q 83 570 35 501 q 221 676 132 639 q 428 714 310 714 q 631 676 550 714 q 751 567 711 638 q 790 399 790 497 l 790 0 m 268 -14 q 85 38 150 -14 q 21 178 21 89 q 44 267 21 228 q 118 330 68 306 q 247 363 168 354 l 546 392 l 546 247 l 317 221 q 291 213 299 219 q 283 194 283 206 q 299 173 283 178 q 346 168 315 168 q 456 176 415 168 q 514 204 496 183 q 532 264 532 225 l 551 269 l 551 147 l 532 147 q 447 30 513 74 q 268 -14 382 -14 z "},"à":{"ha":826,"x_min":-11,"x_max":790,"o":"m 790 0 l 546 0 l 546 156 l 532 156 l 532 404 q 505 472 532 457 q 408 486 478 486 q 320 471 344 486 q 296 411 296 456 l 296 406 l 35 406 l 35 408 q 83 570 35 501 q 221 676 132 639 q 428 714 310 714 q 631 676 550 714 q 751 567 711 638 q 790 399 790 497 l 790 0 m 268 -14 q 85 38 150 -14 q 21 178 21 89 q 44 267 21 228 q 118 330 68 306 q 247 363 168 354 l 546 392 l 546 247 l 317 221 q 291 213 299 219 q 283 194 283 206 q 299 173 283 178 q 346 168 315 168 q 456 176 415 168 q 514 204 496 183 q 532 264 532 225 l 551 269 l 551 147 l 532 147 q 447 30 513 74 q 268 -14 382 -14 m 551 778 l 269 778 l -11 958 l 367 958 l 551 778 z "},"á":{"ha":826,"x_min":21,"x_max":836,"o":"m 790 0 l 546 0 l 546 156 l 532 156 l 532 404 q 505 472 532 457 q 408 486 478 486 q 320 471 344 486 q 296 411 296 456 l 296 406 l 35 406 l 35 408 q 83 570 35 501 q 221 676 132 639 q 428 714 310 714 q 631 676 550 714 q 751 567 711 638 q 790 399 790 497 l 790 0 m 268 -14 q 85 38 150 -14 q 21 178 21 89 q 44 267 21 228 q 118 330 68 306 q 247 363 168 354 l 546 392 l 546 247 l 317 221 q 291 213 299 219 q 283 194 283 206 q 299 173 283 178 q 346 168 315 168 q 456 176 415 168 q 514 204 496 183 q 532 264 532 225 l 551 269 l 551 147 l 532 147 q 447 30 513 74 q 268 -14 382 -14 m 556 778 l 272 778 l 458 958 l 836 958 l 556 778 z "},"â":{"ha":826,"x_min":21,"x_max":790,"o":"m 790 0 l 546 0 l 546 156 l 532 156 l 532 404 q 505 472 532 457 q 408 486 478 486 q 320 471 344 486 q 296 411 296 456 l 296 406 l 35 406 l 35 408 q 83 570 35 501 q 221 676 132 639 q 428 714 310 714 q 631 676 550 714 q 751 567 711 638 q 790 399 790 497 l 790 0 m 268 -14 q 85 38 150 -14 q 21 178 21 89 q 44 267 21 228 q 118 330 68 306 q 247 363 168 354 l 546 392 l 546 247 l 317 221 q 291 213 299 219 q 283 194 283 206 q 299 173 283 178 q 346 168 315 168 q 456 176 415 168 q 514 204 496 183 q 532 264 532 225 l 551 269 l 551 147 l 532 147 q 447 30 513 74 q 268 -14 382 -14 m 350 778 l 71 778 l 256 958 l 571 958 l 757 778 l 476 778 l 422 836 l 406 836 l 350 778 z "},"ã":{"ha":826,"x_min":21,"x_max":790,"o":"m 790 0 l 546 0 l 546 156 l 532 156 l 532 404 q 505 472 532 457 q 408 486 478 486 q 320 471 344 486 q 296 411 296 456 l 296 406 l 35 406 l 35 408 q 83 570 35 501 q 221 676 132 639 q 428 714 310 714 q 631 676 550 714 q 751 567 711 638 q 790 399 790 497 l 790 0 m 268 -14 q 85 38 150 -14 q 21 178 21 89 q 44 267 21 228 q 118 330 68 306 q 247 363 168 354 l 546 392 l 546 247 l 317 221 q 291 213 299 219 q 283 194 283 206 q 299 173 283 178 q 346 168 315 168 q 456 176 415 168 q 514 204 496 183 q 532 264 532 225 l 551 269 l 551 147 l 532 147 q 447 30 513 74 q 268 -14 382 -14 m 301 753 l 128 753 l 128 822 q 138 894 128 858 q 180 955 149 931 q 272 979 211 979 q 326 973 296 979 q 394 953 356 967 l 442 936 q 474 926 460 931 q 497 922 488 922 q 520 931 513 922 q 528 957 528 939 l 528 967 l 700 967 l 700 899 q 669 785 700 831 q 567 740 638 740 q 503 749 535 740 q 440 767 471 757 l 376 788 q 346 797 358 794 q 325 800 333 800 q 306 792 311 800 q 301 775 301 785 l 301 753 z "},"ä":{"ha":826,"x_min":21,"x_max":790,"o":"m 790 0 l 546 0 l 546 156 l 532 156 l 532 404 q 505 472 532 457 q 408 486 478 486 q 320 471 344 486 q 296 411 296 456 l 296 406 l 35 406 l 35 408 q 83 570 35 501 q 221 676 132 639 q 428 714 310 714 q 631 676 550 714 q 751 567 711 638 q 790 399 790 497 l 790 0 m 268 -14 q 85 38 150 -14 q 21 178 21 89 q 44 267 21 228 q 118 330 68 306 q 247 363 168 354 l 546 392 l 546 247 l 317 221 q 291 213 299 219 q 283 194 283 206 q 299 173 283 178 q 346 168 315 168 q 456 176 415 168 q 514 204 496 183 q 532 264 532 225 l 551 269 l 551 147 l 532 147 q 447 30 513 74 q 268 -14 382 -14 m 701 778 l 454 778 l 454 971 l 701 971 l 701 778 m 374 778 l 126 778 l 126 971 l 374 971 l 374 778 z "},"å":{"ha":826,"x_min":21,"x_max":790,"o":"m 790 0 l 546 0 l 546 156 l 532 156 l 532 404 q 505 472 532 457 q 408 486 478 486 q 320 471 344 486 q 296 411 296 456 l 296 406 l 35 406 l 35 408 q 83 570 35 501 q 221 676 132 639 q 428 714 310 714 q 631 676 550 714 q 751 567 711 638 q 790 399 790 497 l 790 0 m 268 -14 q 85 38 150 -14 q 21 178 21 89 q 44 267 21 228 q 118 330 68 306 q 247 363 168 354 l 546 392 l 546 247 l 317 221 q 291 213 299 219 q 283 194 283 206 q 299 173 283 178 q 346 168 315 168 q 456 176 415 168 q 514 204 496 183 q 532 264 532 225 l 551 269 l 551 147 l 532 147 q 447 30 513 74 q 268 -14 382 -14 m 414 756 q 308 789 349 756 q 267 878 267 822 q 308 967 267 933 q 414 1000 349 1000 q 520 967 479 1000 q 561 878 561 933 q 520 789 561 822 q 414 756 479 756 m 414 854 q 447 860 440 854 q 454 878 454 867 q 447 895 454 889 q 414 901 440 901 q 381 895 388 901 q 374 878 374 889 q 381 860 374 867 q 414 854 388 854 z "},"ā":{"ha":826,"x_min":21,"x_max":790,"o":"m 790 0 l 546 0 l 546 156 l 532 156 l 532 404 q 505 472 532 457 q 408 486 478 486 q 320 471 344 486 q 296 411 296 456 l 296 406 l 35 406 l 35 408 q 83 570 35 501 q 221 676 132 639 q 428 714 310 714 q 631 676 550 714 q 751 567 711 638 q 790 399 790 497 l 790 0 m 268 -14 q 85 38 150 -14 q 21 178 21 89 q 44 267 21 228 q 118 330 68 306 q 247 363 168 354 l 546 392 l 546 247 l 317 221 q 291 213 299 219 q 283 194 283 206 q 299 173 283 178 q 346 168 315 168 q 456 176 415 168 q 514 204 496 183 q 532 264 532 225 l 551 269 l 551 147 l 532 147 q 447 30 513 74 q 268 -14 382 -14 m 660 775 l 167 775 l 167 961 l 660 961 l 660 775 z "},"ă":{"ha":826,"x_min":21,"x_max":790,"o":"m 790 0 l 546 0 l 546 156 l 532 156 l 532 404 q 505 472 532 457 q 408 486 478 486 q 320 471 344 486 q 296 411 296 456 l 296 406 l 35 406 l 35 408 q 83 570 35 501 q 221 676 132 639 q 428 714 310 714 q 631 676 550 714 q 751 567 711 638 q 790 399 790 497 l 790 0 m 268 -14 q 85 38 150 -14 q 21 178 21 89 q 44 267 21 228 q 118 330 68 306 q 247 363 168 354 l 546 392 l 546 247 l 317 221 q 291 213 299 219 q 283 194 283 206 q 299 173 283 178 q 346 168 315 168 q 456 176 415 168 q 514 204 496 183 q 532 264 532 225 l 551 269 l 551 147 l 532 147 q 447 30 513 74 q 268 -14 382 -14 m 414 764 q 237 819 304 764 q 169 958 169 874 l 169 964 l 351 964 l 351 963 q 363 926 351 936 q 414 915 374 915 q 466 926 456 915 q 476 963 476 936 l 476 964 l 658 964 l 658 958 q 591 819 658 874 q 414 764 524 764 z "},"ą":{"ha":826,"x_min":21,"x_max":803,"o":"m 790 0 l 546 0 l 546 156 l 532 156 l 532 404 q 505 472 532 457 q 408 486 478 486 q 320 471 344 486 q 296 411 296 456 l 296 406 l 35 406 l 35 408 q 83 570 35 501 q 221 676 132 639 q 428 714 310 714 q 631 676 550 714 q 751 567 711 638 q 790 399 790 497 l 790 0 m 268 -14 q 85 38 150 -14 q 21 178 21 89 q 44 267 21 228 q 118 330 68 306 q 247 363 168 354 l 546 392 l 546 247 l 317 221 q 291 213 299 219 q 283 194 283 206 q 299 173 283 178 q 346 168 315 168 q 456 176 415 168 q 514 204 496 183 q 532 264 532 225 l 551 269 l 551 147 l 532 147 q 447 30 513 74 q 268 -14 382 -14 m 803 -260 l 664 -260 q 553 -232 585 -260 q 521 -161 521 -204 q 542 -92 521 -122 q 590 -33 564 -62 l 622 0 l 790 0 l 728 -78 q 719 -89 722 -83 q 717 -99 717 -94 q 719 -105 717 -103 q 728 -107 722 -107 l 803 -107 l 803 -260 z "},"b":{"ha":929,"x_min":42,"x_max":901,"o":"m 569 -14 q 382 35 447 -14 q 300 189 317 85 l 257 189 l 276 349 l 303 349 q 322 272 303 299 q 378 235 340 244 q 475 225 417 225 q 572 237 536 225 q 622 276 607 249 q 638 350 638 304 q 622 424 638 397 q 572 464 607 451 q 475 476 536 476 q 345 454 388 476 q 303 358 303 432 l 276 358 l 276 519 l 317 519 q 394 660 332 607 q 581 714 457 714 q 755 670 683 714 q 864 545 826 626 q 901 350 901 464 q 863 156 901 238 q 751 30 825 74 q 569 -14 676 -14 m 286 0 l 42 0 l 42 931 l 303 931 l 303 215 l 286 197 l 286 0 z "},"c":{"ha":854,"x_min":28,"x_max":826,"o":"m 435 -14 q 219 30 311 -14 q 78 156 128 74 q 28 350 28 238 q 78 545 28 464 q 219 670 128 626 q 435 714 311 714 q 642 676 554 714 q 778 568 731 638 q 826 404 826 499 l 826 382 l 567 382 l 567 393 q 530 464 567 447 q 429 481 493 481 q 322 456 357 481 q 288 350 288 432 q 322 245 288 269 q 429 221 357 221 q 530 237 493 221 q 567 307 567 253 l 567 319 l 826 319 l 826 296 q 778 133 826 203 q 642 25 731 64 q 435 -14 554 -14 z "},"ç":{"ha":854,"x_min":28,"x_max":826,"o":"m 435 -14 q 219 30 311 -14 q 78 156 128 74 q 28 350 28 238 q 78 545 28 464 q 219 670 128 626 q 435 714 311 714 q 642 676 554 714 q 778 568 731 638 q 826 404 826 499 l 826 382 l 567 382 l 567 393 q 530 464 567 447 q 429 481 493 481 q 322 456 357 481 q 288 350 288 432 q 322 245 288 269 q 429 221 357 221 q 530 237 493 221 q 567 307 567 253 l 567 319 l 826 319 l 826 296 q 778 133 826 203 q 642 25 731 64 q 435 -14 554 -14 m 508 -335 l 357 -335 l 357 -200 l 513 -200 q 522 -198 519 -200 q 524 -192 524 -196 q 522 -184 524 -186 q 513 -182 519 -182 l 357 -182 l 357 4 l 489 4 l 489 -50 l 508 -50 q 628 -88 588 -50 q 669 -190 669 -126 q 628 -295 669 -256 q 508 -335 588 -335 z "},"ć":{"ha":854,"x_min":28,"x_max":850,"o":"m 435 -14 q 219 30 311 -14 q 78 156 128 74 q 28 350 28 238 q 78 545 28 464 q 219 670 128 626 q 435 714 311 714 q 642 676 554 714 q 778 568 731 638 q 826 404 826 499 l 826 382 l 567 382 l 567 393 q 530 464 567 447 q 429 481 493 481 q 322 456 357 481 q 288 350 288 432 q 322 245 288 269 q 429 221 357 221 q 530 237 493 221 q 567 307 567 253 l 567 319 l 826 319 l 826 296 q 778 133 826 203 q 642 25 731 64 q 435 -14 554 -14 m 569 778 l 286 778 l 472 958 l 850 958 l 569 778 z "},"ċ":{"ha":854,"x_min":28,"x_max":826,"o":"m 435 -14 q 219 30 311 -14 q 78 156 128 74 q 28 350 28 238 q 78 545 28 464 q 219 670 128 626 q 435 714 311 714 q 642 676 554 714 q 778 568 731 638 q 826 404 826 499 l 826 382 l 567 382 l 567 393 q 530 464 567 447 q 429 481 493 481 q 322 456 357 481 q 288 350 288 432 q 322 245 288 269 q 429 221 357 221 q 530 237 493 221 q 567 307 567 253 l 567 319 l 826 319 l 826 296 q 778 133 826 203 q 642 25 731 64 q 435 -14 554 -14 m 558 778 l 297 778 l 297 971 l 558 971 l 558 778 z "},"č":{"ha":854,"x_min":28,"x_max":826,"o":"m 435 -14 q 219 30 311 -14 q 78 156 128 74 q 28 350 28 238 q 78 545 28 464 q 219 670 128 626 q 435 714 311 714 q 642 676 554 714 q 778 568 731 638 q 826 404 826 499 l 826 382 l 567 382 l 567 393 q 530 464 567 447 q 429 481 493 481 q 322 456 357 481 q 288 350 288 432 q 322 245 288 269 q 429 221 357 221 q 530 237 493 221 q 567 307 567 253 l 567 319 l 826 319 l 826 296 q 778 133 826 203 q 642 25 731 64 q 435 -14 554 -14 m 585 778 l 269 778 l 85 958 l 375 958 l 419 900 l 436 900 l 481 958 l 771 958 l 585 778 z "},"d":{"ha":929,"x_min":28,"x_max":888,"o":"m 360 -14 q 178 30 253 -14 q 66 156 104 74 q 28 350 28 238 q 65 545 28 464 q 174 670 103 626 q 349 714 246 714 q 535 660 472 714 q 613 519 597 607 l 653 519 l 653 358 l 626 358 q 584 454 626 432 q 454 476 542 476 q 358 464 394 476 q 307 424 322 451 q 292 350 292 397 q 307 276 292 304 q 358 237 322 249 q 454 225 394 225 q 551 235 513 225 q 608 272 589 244 q 626 349 626 299 l 653 349 l 672 189 l 629 189 q 548 35 613 85 q 360 -14 483 -14 m 888 0 l 643 0 l 643 197 l 626 215 l 626 931 l 888 931 l 888 0 z "},"ď":{"ha":1142,"x_min":28,"x_max":1171,"o":"m 360 -14 q 178 30 253 -14 q 66 156 104 74 q 28 350 28 238 q 65 545 28 464 q 174 670 103 626 q 349 714 246 714 q 535 660 472 714 q 613 519 597 607 l 653 519 l 653 358 l 626 358 q 584 454 626 432 q 454 476 542 476 q 358 464 394 476 q 307 424 322 451 q 292 350 292 397 q 307 276 292 304 q 358 237 322 249 q 454 225 394 225 q 551 235 513 225 q 608 272 589 244 q 626 349 626 299 l 653 349 l 672 189 l 629 189 q 548 35 613 85 q 360 -14 483 -14 m 888 0 l 643 0 l 643 197 l 626 215 l 626 931 l 888 931 l 888 0 m 1171 750 l 924 750 l 924 931 l 1171 931 l 1171 750 m 1004 578 l 933 578 l 933 704 l 997 704 q 1025 711 1017 704 q 1033 739 1033 718 l 1033 772 l 1171 772 l 1171 742 q 1128 618 1171 658 q 1004 578 1085 578 z "},"e":{"ha":850,"x_min":28,"x_max":822,"o":"m 432 -14 q 222 22 314 -14 q 79 139 131 58 q 28 350 28 219 q 79 545 28 464 q 220 670 131 626 q 426 714 310 714 q 636 674 547 714 q 774 558 725 635 q 822 368 822 481 q 822 335 822 350 q 818 301 821 321 l 199 301 l 199 433 l 629 433 l 572 351 q 572 376 572 364 q 572 400 572 388 q 540 489 572 464 q 421 514 507 514 q 301 486 332 514 q 269 386 269 458 l 269 319 q 301 219 269 246 q 422 193 333 193 q 528 208 501 193 q 556 253 556 222 l 556 268 l 817 268 l 817 251 q 769 114 817 174 q 636 20 722 54 q 432 -14 550 -14 z "},"è":{"ha":850,"x_min":0,"x_max":822,"o":"m 432 -14 q 222 22 314 -14 q 79 139 131 58 q 28 350 28 219 q 79 545 28 464 q 220 670 131 626 q 426 714 310 714 q 636 674 547 714 q 774 558 725 635 q 822 368 822 481 q 822 335 822 350 q 818 301 821 321 l 199 301 l 199 433 l 629 433 l 572 351 q 572 376 572 364 q 572 400 572 388 q 540 489 572 464 q 421 514 507 514 q 301 486 332 514 q 269 386 269 458 l 269 319 q 301 219 269 246 q 422 193 333 193 q 528 208 501 193 q 556 253 556 222 l 556 268 l 817 268 l 817 251 q 769 114 817 174 q 636 20 722 54 q 432 -14 550 -14 m 563 778 l 281 778 l 0 958 l 378 958 l 563 778 z "},"é":{"ha":850,"x_min":28,"x_max":847,"o":"m 432 -14 q 222 22 314 -14 q 79 139 131 58 q 28 350 28 219 q 79 545 28 464 q 220 670 131 626 q 426 714 310 714 q 636 674 547 714 q 774 558 725 635 q 822 368 822 481 q 822 335 822 350 q 818 301 821 321 l 199 301 l 199 433 l 629 433 l 572 351 q 572 376 572 364 q 572 400 572 388 q 540 489 572 464 q 421 514 507 514 q 301 486 332 514 q 269 386 269 458 l 269 319 q 301 219 269 246 q 422 193 333 193 q 528 208 501 193 q 556 253 556 222 l 556 268 l 817 268 l 817 251 q 769 114 817 174 q 636 20 722 54 q 432 -14 550 -14 m 567 778 l 283 778 l 469 958 l 847 958 l 567 778 z "},"ê":{"ha":850,"x_min":28,"x_max":822,"o":"m 432 -14 q 222 22 314 -14 q 79 139 131 58 q 28 350 28 219 q 79 545 28 464 q 220 670 131 626 q 426 714 310 714 q 636 674 547 714 q 774 558 725 635 q 822 368 822 481 q 822 335 822 350 q 818 301 821 321 l 199 301 l 199 433 l 629 433 l 572 351 q 572 376 572 364 q 572 400 572 388 q 540 489 572 464 q 421 514 507 514 q 301 486 332 514 q 269 386 269 458 l 269 319 q 301 219 269 246 q 422 193 333 193 q 528 208 501 193 q 556 253 556 222 l 556 268 l 817 268 l 817 251 q 769 114 817 174 q 636 20 722 54 q 432 -14 550 -14 m 361 778 l 82 778 l 267 958 l 582 958 l 768 778 l 488 778 l 433 836 l 417 836 l 361 778 z "},"ë":{"ha":850,"x_min":28,"x_max":822,"o":"m 432 -14 q 222 22 314 -14 q 79 139 131 58 q 28 350 28 219 q 79 545 28 464 q 220 670 131 626 q 426 714 310 714 q 636 674 547 714 q 774 558 725 635 q 822 368 822 481 q 822 335 822 350 q 818 301 821 321 l 199 301 l 199 433 l 629 433 l 572 351 q 572 376 572 364 q 572 400 572 388 q 540 489 572 464 q 421 514 507 514 q 301 486 332 514 q 269 386 269 458 l 269 319 q 301 219 269 246 q 422 193 333 193 q 528 208 501 193 q 556 253 556 222 l 556 268 l 817 268 l 817 251 q 769 114 817 174 q 636 20 722 54 q 432 -14 550 -14 m 713 778 l 465 778 l 465 971 l 713 971 l 713 778 m 385 778 l 138 778 l 138 971 l 385 971 l 385 778 z "},"ē":{"ha":850,"x_min":28,"x_max":822,"o":"m 432 -14 q 222 22 314 -14 q 79 139 131 58 q 28 350 28 219 q 79 545 28 464 q 220 670 131 626 q 426 714 310 714 q 636 674 547 714 q 774 558 725 635 q 822 368 822 481 q 822 335 822 350 q 818 301 821 321 l 199 301 l 199 433 l 629 433 l 572 351 q 572 376 572 364 q 572 400 572 388 q 540 489 572 464 q 421 514 507 514 q 301 486 332 514 q 269 386 269 458 l 269 319 q 301 219 269 246 q 422 193 333 193 q 528 208 501 193 q 556 253 556 222 l 556 268 l 817 268 l 817 251 q 769 114 817 174 q 636 20 722 54 q 432 -14 550 -14 m 671 775 l 178 775 l 178 961 l 671 961 l 671 775 z "},"ĕ":{"ha":850,"x_min":28,"x_max":822,"o":"m 432 -14 q 222 22 314 -14 q 79 139 131 58 q 28 350 28 219 q 79 545 28 464 q 220 670 131 626 q 426 714 310 714 q 636 674 547 714 q 774 558 725 635 q 822 368 822 481 q 822 335 822 350 q 818 301 821 321 l 199 301 l 199 433 l 629 433 l 572 351 q 572 376 572 364 q 572 400 572 388 q 540 489 572 464 q 421 514 507 514 q 301 486 332 514 q 269 386 269 458 l 269 319 q 301 219 269 246 q 422 193 333 193 q 528 208 501 193 q 556 253 556 222 l 556 268 l 817 268 l 817 251 q 769 114 817 174 q 636 20 722 54 q 432 -14 550 -14 m 425 764 q 248 819 315 764 q 181 958 181 874 l 181 964 l 363 964 l 363 963 q 374 926 363 936 q 425 915 385 915 q 477 926 467 915 q 488 963 488 936 l 488 964 l 669 964 l 669 958 q 602 819 669 874 q 425 764 535 764 z "},"ė":{"ha":850,"x_min":28,"x_max":822,"o":"m 432 -14 q 222 22 314 -14 q 79 139 131 58 q 28 350 28 219 q 79 545 28 464 q 220 670 131 626 q 426 714 310 714 q 636 674 547 714 q 774 558 725 635 q 822 368 822 481 q 822 335 822 350 q 818 301 821 321 l 199 301 l 199 433 l 629 433 l 572 351 q 572 376 572 364 q 572 400 572 388 q 540 489 572 464 q 421 514 507 514 q 301 486 332 514 q 269 386 269 458 l 269 319 q 301 219 269 246 q 422 193 333 193 q 528 208 501 193 q 556 253 556 222 l 556 268 l 817 268 l 817 251 q 769 114 817 174 q 636 20 722 54 q 432 -14 550 -14 m 556 778 l 294 778 l 294 971 l 556 971 l 556 778 z "},"ę":{"ha":850,"x_min":28,"x_max":822,"o":"m 432 -14 q 222 22 314 -14 q 79 139 131 58 q 28 350 28 219 q 79 545 28 464 q 220 670 131 626 q 426 714 310 714 q 636 674 547 714 q 774 558 725 635 q 822 368 822 481 q 822 335 822 350 q 818 301 821 321 l 199 301 l 199 433 l 629 433 l 572 351 q 572 376 572 364 q 572 400 572 388 q 540 489 572 464 q 421 514 507 514 q 301 486 332 514 q 269 386 269 458 l 269 319 q 301 219 269 246 q 422 193 333 193 q 528 208 501 193 q 556 253 556 222 l 556 268 l 817 268 l 817 251 q 769 114 817 174 q 636 20 722 54 q 432 -14 550 -14 m 579 -260 l 440 -260 q 329 -232 361 -260 q 297 -161 297 -204 q 319 -92 297 -122 q 367 -33 340 -62 l 399 0 l 567 0 l 504 -78 q 496 -89 499 -83 q 493 -99 493 -94 q 496 -105 493 -103 q 504 -107 499 -107 l 579 -107 l 579 -260 z "},"ě":{"ha":850,"x_min":28,"x_max":822,"o":"m 432 -14 q 222 22 314 -14 q 79 139 131 58 q 28 350 28 219 q 79 545 28 464 q 220 670 131 626 q 426 714 310 714 q 636 674 547 714 q 774 558 725 635 q 822 368 822 481 q 822 335 822 350 q 818 301 821 321 l 199 301 l 199 433 l 629 433 l 572 351 q 572 376 572 364 q 572 400 572 388 q 540 489 572 464 q 421 514 507 514 q 301 486 332 514 q 269 386 269 458 l 269 319 q 301 219 269 246 q 422 193 333 193 q 528 208 501 193 q 556 253 556 222 l 556 268 l 817 268 l 817 251 q 769 114 817 174 q 636 20 722 54 q 432 -14 550 -14 m 582 778 l 267 778 l 82 958 l 372 958 l 417 900 l 433 900 l 478 958 l 768 958 l 582 778 z "},"f":{"ha":563,"x_min":7,"x_max":549,"o":"m 363 0 l 101 0 l 101 644 q 145 788 101 724 q 276 892 189 853 q 493 931 364 931 l 549 931 l 549 744 l 451 744 q 356 727 378 744 q 363 643 335 710 l 363 601 l 363 0 m 549 486 l 7 486 l 7 700 l 549 700 l 549 486 z "},"ﬀ":{"ha":1125,"x_min":7,"x_max":1111,"o":"m 363 0 l 101 0 l 101 644 q 145 788 101 724 q 276 892 189 853 q 493 931 364 931 l 549 931 l 549 744 l 451 744 q 356 727 378 744 q 363 643 335 710 l 363 601 l 363 0 m 549 486 l 7 486 l 7 700 l 549 700 l 549 486 m 925 0 l 664 0 l 664 644 q 708 788 664 724 q 839 892 751 853 q 1056 931 926 931 l 1111 931 l 1111 744 l 1014 744 q 919 727 940 744 q 925 643 897 710 l 925 601 l 925 0 m 1111 486 l 569 486 l 569 700 l 1111 700 l 1111 486 z "},"ﬃ":{"ha":1469,"x_min":7,"x_max":1428,"o":"m 363 0 l 101 0 l 101 644 q 145 788 101 724 q 276 892 189 853 q 493 931 364 931 l 549 931 l 549 744 l 451 744 q 356 727 378 744 q 363 643 335 710 l 363 601 l 363 0 m 549 486 l 7 486 l 7 700 l 549 700 l 549 486 m 925 0 l 664 0 l 664 644 q 708 788 664 724 q 839 892 751 853 q 1056 931 926 931 l 1111 931 l 1111 744 l 1014 744 q 919 727 940 744 q 925 643 897 710 l 925 601 l 925 0 m 1111 486 l 569 486 l 569 700 l 1111 700 l 1111 486 m 1428 0 l 1167 0 l 1167 700 l 1428 700 l 1428 0 m 1428 764 l 1167 764 l 1167 931 l 1428 931 l 1428 764 z "},"ﬄ":{"ha":1469,"x_min":7,"x_max":1428,"o":"m 363 0 l 101 0 l 101 644 q 145 788 101 724 q 276 892 189 853 q 493 931 364 931 l 549 931 l 549 744 l 451 744 q 356 727 378 744 q 363 643 335 710 l 363 601 l 363 0 m 549 486 l 7 486 l 7 700 l 549 700 l 549 486 m 925 0 l 664 0 l 664 644 q 708 788 664 724 q 839 892 751 853 q 1056 931 926 931 l 1111 931 l 1111 744 l 1014 744 q 919 727 940 744 q 925 643 897 710 l 925 601 l 925 0 m 1111 486 l 569 486 l 569 700 l 1111 700 l 1111 486 m 1428 0 l 1167 0 l 1167 931 l 1428 931 l 1428 0 z "},"ﬁ":{"ha":907,"x_min":7,"x_max":865,"o":"m 363 0 l 101 0 l 101 644 q 145 788 101 724 q 276 892 189 853 q 493 931 364 931 l 549 931 l 549 744 l 451 744 q 356 727 378 744 q 363 643 335 710 l 363 601 l 363 0 m 549 486 l 7 486 l 7 700 l 549 700 l 549 486 m 865 0 l 604 0 l 604 700 l 865 700 l 865 0 m 865 764 l 604 764 l 604 931 l 865 931 l 865 764 z "},"ﬂ":{"ha":907,"x_min":7,"x_max":865,"o":"m 363 0 l 101 0 l 101 644 q 145 788 101 724 q 276 892 189 853 q 493 931 364 931 l 549 931 l 549 744 l 451 744 q 356 727 378 744 q 363 643 335 710 l 363 601 l 363 0 m 549 486 l 7 486 l 7 700 l 549 700 l 549 486 m 865 0 l 604 0 l 604 931 l 865 931 l 865 0 z "},"g":{"ha":915,"x_min":28,"x_max":874,"o":"m 456 -250 q 247 -217 333 -250 q 115 -119 161 -183 q 69 36 69 -56 l 331 36 q 338 -8 331 8 q 376 -29 346 -24 q 474 -35 406 -35 q 560 -26 531 -35 q 601 13 590 -17 q 613 100 613 42 l 613 528 l 629 528 l 629 700 l 874 700 l 874 118 q 825 -88 874 -7 q 683 -210 776 -169 q 456 -250 590 -250 m 353 78 q 176 116 249 78 q 66 226 104 154 q 28 397 28 297 q 67 567 28 496 q 182 676 107 638 q 360 714 257 714 q 534 670 467 714 q 615 536 601 626 l 658 536 l 639 399 l 613 399 q 595 456 613 436 q 542 482 578 475 q 447 489 506 489 q 352 480 386 489 q 305 451 318 471 q 292 397 292 432 q 305 342 292 363 q 352 311 318 321 q 447 301 386 301 q 574 317 535 301 q 613 389 613 333 l 639 389 l 639 247 l 599 247 q 526 124 585 171 q 353 78 468 78 z "},"ĝ":{"ha":915,"x_min":28,"x_max":874,"o":"m 456 -250 q 247 -217 333 -250 q 115 -119 161 -183 q 69 36 69 -56 l 331 36 q 338 -8 331 8 q 376 -29 346 -24 q 474 -35 406 -35 q 560 -26 531 -35 q 601 13 590 -17 q 613 100 613 42 l 613 528 l 629 528 l 629 700 l 874 700 l 874 118 q 825 -88 874 -7 q 683 -210 776 -169 q 456 -250 590 -250 m 353 78 q 176 116 249 78 q 66 226 104 154 q 28 397 28 297 q 67 567 28 496 q 182 676 107 638 q 360 714 257 714 q 534 670 467 714 q 615 536 601 626 l 658 536 l 639 399 l 613 399 q 595 456 613 436 q 542 482 578 475 q 447 489 506 489 q 352 480 386 489 q 305 451 318 471 q 292 397 292 432 q 305 342 292 363 q 352 311 318 321 q 447 301 386 301 q 574 317 535 301 q 613 389 613 333 l 639 389 l 639 247 l 599 247 q 526 124 585 171 q 353 78 468 78 m 388 778 l 108 778 l 293 958 l 608 958 l 794 778 l 514 778 l 460 836 l 443 836 l 388 778 z "},"ğ":{"ha":915,"x_min":28,"x_max":874,"o":"m 456 -250 q 247 -217 333 -250 q 115 -119 161 -183 q 69 36 69 -56 l 331 36 q 338 -8 331 8 q 376 -29 346 -24 q 474 -35 406 -35 q 560 -26 531 -35 q 601 13 590 -17 q 613 100 613 42 l 613 528 l 629 528 l 629 700 l 874 700 l 874 118 q 825 -88 874 -7 q 683 -210 776 -169 q 456 -250 590 -250 m 353 78 q 176 116 249 78 q 66 226 104 154 q 28 397 28 297 q 67 567 28 496 q 182 676 107 638 q 360 714 257 714 q 534 670 467 714 q 615 536 601 626 l 658 536 l 639 399 l 613 399 q 595 456 613 436 q 542 482 578 475 q 447 489 506 489 q 352 480 386 489 q 305 451 318 471 q 292 397 292 432 q 305 342 292 363 q 352 311 318 321 q 447 301 386 301 q 574 317 535 301 q 613 389 613 333 l 639 389 l 639 247 l 599 247 q 526 124 585 171 q 353 78 468 78 m 451 764 q 274 819 342 764 q 207 958 207 874 l 207 964 l 389 964 l 389 963 q 400 926 389 936 q 451 915 411 915 q 503 926 493 915 q 514 963 514 936 l 514 964 l 696 964 l 696 958 q 628 819 696 874 q 451 764 561 764 z "},"ġ":{"ha":915,"x_min":28,"x_max":874,"o":"m 456 -250 q 247 -217 333 -250 q 115 -119 161 -183 q 69 36 69 -56 l 331 36 q 338 -8 331 8 q 376 -29 346 -24 q 474 -35 406 -35 q 560 -26 531 -35 q 601 13 590 -17 q 613 100 613 42 l 613 528 l 629 528 l 629 700 l 874 700 l 874 118 q 825 -88 874 -7 q 683 -210 776 -169 q 456 -250 590 -250 m 353 78 q 176 116 249 78 q 66 226 104 154 q 28 397 28 297 q 67 567 28 496 q 182 676 107 638 q 360 714 257 714 q 534 670 467 714 q 615 536 601 626 l 658 536 l 639 399 l 613 399 q 595 456 613 436 q 542 482 578 475 q 447 489 506 489 q 352 480 386 489 q 305 451 318 471 q 292 397 292 432 q 305 342 292 363 q 352 311 318 321 q 447 301 386 301 q 574 317 535 301 q 613 389 613 333 l 639 389 l 639 247 l 599 247 q 526 124 585 171 q 353 78 468 78 m 582 778 l 321 778 l 321 971 l 582 971 l 582 778 z "},"ģ":{"ha":915,"x_min":28,"x_max":874,"o":"m 456 -250 q 247 -217 333 -250 q 115 -119 161 -183 q 69 36 69 -56 l 331 36 q 338 -8 331 8 q 376 -29 346 -24 q 474 -35 406 -35 q 560 -26 531 -35 q 601 13 590 -17 q 613 100 613 42 l 613 528 l 629 528 l 629 700 l 874 700 l 874 118 q 825 -88 874 -7 q 683 -210 776 -169 q 456 -250 590 -250 m 353 78 q 176 116 249 78 q 66 226 104 154 q 28 397 28 297 q 67 567 28 496 q 182 676 107 638 q 360 714 257 714 q 534 670 467 714 q 615 536 601 626 l 658 536 l 639 399 l 613 399 q 595 456 613 436 q 542 482 578 475 q 447 489 506 489 q 352 480 386 489 q 305 451 318 471 q 292 397 292 432 q 305 342 292 363 q 352 311 318 321 q 447 301 386 301 q 574 317 535 301 q 613 389 613 333 l 639 389 l 639 247 l 599 247 q 526 124 585 171 q 353 78 468 78 m 479 958 l 744 958 l 614 778 l 274 778 l 479 958 z "},"h":{"ha":907,"x_min":42,"x_max":871,"o":"m 871 0 l 610 0 l 610 353 q 576 453 610 426 q 453 481 543 481 q 360 469 393 481 q 315 433 328 458 q 303 361 303 407 l 271 361 l 271 488 l 317 488 q 359 599 328 547 q 449 682 390 650 q 596 714 507 714 q 750 678 689 714 q 841 580 811 642 q 871 440 871 518 l 871 0 m 303 0 l 42 0 l 42 931 l 303 931 l 303 0 z "},"ĥ":{"ha":907,"x_min":-174,"x_max":871,"o":"m 871 0 l 610 0 l 610 353 q 576 453 610 426 q 453 481 543 481 q 360 469 393 481 q 315 433 328 458 q 303 361 303 407 l 271 361 l 271 488 l 317 488 q 359 599 328 547 q 449 682 390 650 q 596 714 507 714 q 750 678 689 714 q 841 580 811 642 q 871 440 871 518 l 871 0 m 303 0 l 42 0 l 42 931 l 303 931 l 303 0 m 106 1014 l -174 1014 l 11 1194 l 326 1194 l 513 1014 l 232 1014 l 178 1072 l 161 1072 l 106 1014 z "},"i":{"ha":344,"x_min":42,"x_max":303,"o":"m 303 0 l 42 0 l 42 700 l 303 700 l 303 0 m 303 764 l 42 764 l 42 931 l 303 931 l 303 764 z "},"ì":{"ha":388,"x_min":-231,"x_max":332,"o":"m 324 0 l 64 0 l 64 694 l 324 694 l 324 0 m 332 778 l 50 778 l -231 958 l 147 958 l 332 778 z "},"í":{"ha":388,"x_min":53,"x_max":617,"o":"m 324 0 l 64 0 l 64 694 l 324 694 l 324 0 m 336 778 l 53 778 l 239 958 l 617 958 l 336 778 z "},"î":{"ha":388,"x_min":-149,"x_max":538,"o":"m 324 0 l 64 0 l 64 694 l 324 694 l 324 0 m 131 778 l -149 778 l 36 958 l 351 958 l 538 778 l 257 778 l 203 836 l 186 836 l 131 778 z "},"ï":{"ha":388,"x_min":-93,"x_max":482,"o":"m 324 0 l 64 0 l 64 694 l 324 694 l 324 0 m 482 778 l 235 778 l 235 971 l 482 971 l 482 778 m 154 778 l -93 778 l -93 971 l 154 971 l 154 778 z "},"ĩ":{"ha":388,"x_min":-92,"x_max":481,"o":"m 324 0 l 64 0 l 64 694 l 324 694 l 324 0 m 82 753 l -92 753 l -92 822 q -81 894 -92 858 q -40 955 -71 931 q 53 979 -8 979 q 106 973 76 979 q 175 953 136 967 l 222 936 q 254 926 240 931 q 278 922 268 922 q 301 931 293 922 q 308 957 308 939 l 308 967 l 481 967 l 481 899 q 449 785 481 831 q 347 740 418 740 q 283 749 315 740 q 221 767 251 757 l 157 788 q 126 797 139 794 q 106 800 114 800 q 87 792 92 800 q 82 775 82 785 l 82 753 z "},"ī":{"ha":388,"x_min":-53,"x_max":440,"o":"m 324 0 l 64 0 l 64 694 l 324 694 l 324 0 m 440 775 l -53 775 l -53 961 l 440 961 l 440 775 z "},"ĭ":{"ha":388,"x_min":-50,"x_max":439,"o":"m 324 0 l 64 0 l 64 694 l 324 694 l 324 0 m 194 764 q 17 819 85 764 q -50 958 -50 874 l -50 964 l 132 964 l 132 963 q 143 926 132 936 q 194 915 154 915 q 247 926 236 915 q 257 963 257 936 l 257 964 l 439 964 l 439 958 q 372 819 439 874 q 194 764 304 764 z "},"į":{"ha":344,"x_min":33,"x_max":315,"o":"m 303 0 l 42 0 l 42 700 l 303 700 l 303 0 m 303 764 l 42 764 l 42 931 l 303 931 l 303 764 m 315 -260 l 176 -260 q 65 -232 97 -260 q 33 -161 33 -204 q 55 -92 33 -122 q 103 -33 76 -62 l 135 0 l 303 0 l 240 -78 q 232 -89 235 -83 q 229 -99 229 -94 q 232 -105 229 -103 q 240 -107 235 -107 l 315 -107 l 315 -260 z "},"j":{"ha":344,"x_min":-36,"x_max":303,"o":"m -11 -236 l -36 -236 l -36 -44 l -10 -44 q 29 -33 17 -44 q 42 6 42 -22 l 42 700 l 303 700 l 303 44 q 266 -126 303 -65 q 159 -212 229 -187 q -11 -236 89 -236 m 303 764 l 42 764 l 42 931 l 303 931 l 303 764 z "},"ĵ":{"ha":344,"x_min":-171,"x_max":515,"o":"m -11 -236 l -36 -236 l -36 -44 l -10 -44 q 29 -33 17 -44 q 42 6 42 -22 l 42 700 l 303 700 l 303 44 q 266 -126 303 -65 q 159 -212 229 -187 q -11 -236 89 -236 m 108 778 l -171 778 l 14 958 l 329 958 l 515 778 l 235 778 l 181 836 l 164 836 l 108 778 z "},"k":{"ha":875,"x_min":42,"x_max":889,"o":"m 885 0 l 576 0 l 429 224 l 182 224 l 182 457 l 426 457 l 581 700 l 889 700 l 640 360 l 885 0 m 303 0 l 42 0 l 42 931 l 303 931 l 303 0 z "},"ķ":{"ha":875,"x_min":42,"x_max":889,"o":"m 885 0 l 576 0 l 429 224 l 182 224 l 182 457 l 426 457 l 581 700 l 889 700 l 640 360 l 885 0 m 303 0 l 42 0 l 42 931 l 303 931 l 303 0 m 449 -278 l 183 -278 l 314 -97 l 654 -97 l 449 -278 z "},"l":{"ha":344,"x_min":42,"x_max":303,"o":"m 303 0 l 42 0 l 42 931 l 303 931 l 303 0 z "},"ĺ":{"ha":344,"x_min":42,"x_max":603,"o":"m 303 0 l 42 0 l 42 931 l 303 931 l 303 0 m 322 1014 l 42 1014 l 226 1200 l 603 1200 l 322 1014 z "},"ļ":{"ha":344,"x_min":-131,"x_max":340,"o":"m 303 0 l 42 0 l 42 931 l 303 931 l 303 0 m 135 -278 l -131 -278 l 0 -97 l 340 -97 l 135 -278 z "},"ľ":{"ha":643,"x_min":42,"x_max":636,"o":"m 303 0 l 42 0 l 42 931 l 303 931 l 303 0 m 636 750 l 389 750 l 389 931 l 636 931 l 636 750 m 469 578 l 399 578 l 399 704 l 463 704 q 490 711 482 704 q 499 739 499 718 l 499 772 l 636 772 l 636 742 q 593 618 636 658 q 469 578 550 578 z "},"m":{"ha":1392,"x_min":42,"x_max":1356,"o":"m 1356 0 l 1094 0 l 1094 353 q 1067 453 1094 426 q 958 481 1040 481 q 853 455 878 481 q 829 361 829 429 l 803 361 l 781 488 l 828 488 q 863 597 836 546 q 946 681 890 649 q 1092 714 1001 714 q 1240 679 1182 714 q 1327 585 1299 644 q 1356 449 1356 525 l 1356 0 m 303 0 l 42 0 l 42 700 l 286 700 l 286 485 l 303 478 l 303 0 m 829 0 l 568 0 l 568 353 q 541 453 568 426 q 432 481 514 481 q 327 455 351 481 q 303 361 303 429 l 276 361 l 254 488 l 300 488 q 335 597 308 546 q 415 681 361 649 q 556 714 468 714 q 704 678 647 714 q 788 581 761 642 q 815 449 815 521 l 829 449 l 829 0 z "},"n":{"ha":893,"x_min":42,"x_max":857,"o":"m 857 0 l 596 0 l 596 353 q 564 453 596 426 q 446 481 532 481 q 331 455 360 481 q 303 361 303 429 l 276 361 l 254 488 l 300 488 q 338 597 308 546 q 427 681 368 649 q 579 714 486 714 q 735 679 674 714 q 827 585 797 644 q 857 449 857 525 l 857 0 m 303 0 l 42 0 l 42 700 l 286 700 l 286 485 l 303 478 l 303 0 z "},"ñ":{"ha":893,"x_min":42,"x_max":857,"o":"m 857 0 l 596 0 l 596 353 q 564 453 596 426 q 446 481 532 481 q 331 455 360 481 q 303 361 303 429 l 276 361 l 254 488 l 300 488 q 338 597 308 546 q 427 681 368 649 q 579 714 486 714 q 735 679 674 714 q 827 585 797 644 q 857 449 857 525 l 857 0 m 303 0 l 42 0 l 42 700 l 286 700 l 286 485 l 303 478 l 303 0 m 336 753 l 163 753 l 163 822 q 173 894 163 858 q 215 955 183 931 q 307 979 246 979 q 360 973 331 979 q 429 953 390 967 l 476 936 q 508 926 494 931 q 532 922 522 922 q 555 931 547 922 q 563 957 563 939 l 563 967 l 735 967 l 735 899 q 703 785 735 831 q 601 740 672 740 q 538 749 569 740 q 475 767 506 757 l 411 788 q 381 797 393 794 q 360 800 368 800 q 341 792 346 800 q 336 775 336 785 l 336 753 z "},"ń":{"ha":893,"x_min":42,"x_max":871,"o":"m 857 0 l 596 0 l 596 353 q 564 453 596 426 q 446 481 532 481 q 331 455 360 481 q 303 361 303 429 l 276 361 l 254 488 l 300 488 q 338 597 308 546 q 427 681 368 649 q 579 714 486 714 q 735 679 674 714 q 827 585 797 644 q 857 449 857 525 l 857 0 m 303 0 l 42 0 l 42 700 l 286 700 l 286 485 l 303 478 l 303 0 m 590 778 l 307 778 l 493 958 l 871 958 l 590 778 z "},"ņ":{"ha":893,"x_min":42,"x_max":857,"o":"m 857 0 l 596 0 l 596 353 q 564 453 596 426 q 446 481 532 481 q 331 455 360 481 q 303 361 303 429 l 276 361 l 254 488 l 300 488 q 338 597 308 546 q 427 681 368 649 q 579 714 486 714 q 735 679 674 714 q 827 585 797 644 q 857 449 857 525 l 857 0 m 303 0 l 42 0 l 42 700 l 286 700 l 286 485 l 303 478 l 303 0 m 425 -278 l 160 -278 l 290 -97 l 631 -97 l 425 -278 z "},"ň":{"ha":893,"x_min":42,"x_max":857,"o":"m 857 0 l 596 0 l 596 353 q 564 453 596 426 q 446 481 532 481 q 331 455 360 481 q 303 361 303 429 l 276 361 l 254 488 l 300 488 q 338 597 308 546 q 427 681 368 649 q 579 714 486 714 q 735 679 674 714 q 827 585 797 644 q 857 449 857 525 l 857 0 m 303 0 l 42 0 l 42 700 l 286 700 l 286 485 l 303 478 l 303 0 m 606 778 l 290 778 l 106 958 l 396 958 l 440 900 l 457 900 l 501 958 l 792 958 l 606 778 z "},"o":{"ha":858,"x_min":21,"x_max":838,"o":"m 429 -14 q 216 30 308 -14 q 72 156 124 74 q 21 350 21 238 q 72 545 21 464 q 216 670 124 626 q 429 714 308 714 q 643 670 551 714 q 786 545 735 626 q 838 350 838 464 q 786 156 838 238 q 643 30 735 74 q 429 -14 551 -14 m 429 217 q 549 245 518 217 q 579 350 579 274 q 549 456 579 426 q 429 485 518 485 q 310 456 340 485 q 279 350 279 426 q 310 245 279 274 q 429 217 340 217 z "},"ò":{"ha":858,"x_min":4,"x_max":838,"o":"m 429 -14 q 216 30 308 -14 q 72 156 124 74 q 21 350 21 238 q 72 545 21 464 q 216 670 124 626 q 429 714 308 714 q 643 670 551 714 q 786 545 735 626 q 838 350 838 464 q 786 156 838 238 q 643 30 735 74 q 429 -14 551 -14 m 429 217 q 549 245 518 217 q 579 350 579 274 q 549 456 579 426 q 429 485 518 485 q 310 456 340 485 q 279 350 279 426 q 310 245 279 274 q 429 217 340 217 m 567 778 l 285 778 l 4 958 l 382 958 l 567 778 z "},"ó":{"ha":858,"x_min":21,"x_max":851,"o":"m 429 -14 q 216 30 308 -14 q 72 156 124 74 q 21 350 21 238 q 72 545 21 464 q 216 670 124 626 q 429 714 308 714 q 643 670 551 714 q 786 545 735 626 q 838 350 838 464 q 786 156 838 238 q 643 30 735 74 q 429 -14 551 -14 m 429 217 q 549 245 518 217 q 579 350 579 274 q 549 456 579 426 q 429 485 518 485 q 310 456 340 485 q 279 350 279 426 q 310 245 279 274 q 429 217 340 217 m 571 778 l 288 778 l 474 958 l 851 958 l 571 778 z "},"ô":{"ha":858,"x_min":21,"x_max":838,"o":"m 429 -14 q 216 30 308 -14 q 72 156 124 74 q 21 350 21 238 q 72 545 21 464 q 216 670 124 626 q 429 714 308 714 q 643 670 551 714 q 786 545 735 626 q 838 350 838 464 q 786 156 838 238 q 643 30 735 74 q 429 -14 551 -14 m 429 217 q 549 245 518 217 q 579 350 579 274 q 549 456 579 426 q 429 485 518 485 q 310 456 340 485 q 279 350 279 426 q 310 245 279 274 q 429 217 340 217 m 365 778 l 86 778 l 271 958 l 586 958 l 772 778 l 492 778 l 438 836 l 421 836 l 365 778 z "},"õ":{"ha":858,"x_min":21,"x_max":838,"o":"m 429 -14 q 216 30 308 -14 q 72 156 124 74 q 21 350 21 238 q 72 545 21 464 q 216 670 124 626 q 429 714 308 714 q 643 670 551 714 q 786 545 735 626 q 838 350 838 464 q 786 156 838 238 q 643 30 735 74 q 429 -14 551 -14 m 429 217 q 549 245 518 217 q 579 350 579 274 q 549 456 579 426 q 429 485 518 485 q 310 456 340 485 q 279 350 279 426 q 310 245 279 274 q 429 217 340 217 m 317 753 l 143 753 l 143 822 q 153 894 143 858 q 195 955 164 931 q 288 979 226 979 q 341 973 311 979 q 410 953 371 967 l 457 936 q 489 926 475 931 q 513 922 503 922 q 535 931 528 922 q 543 957 543 939 l 543 967 l 715 967 l 715 899 q 684 785 715 831 q 582 740 653 740 q 518 749 550 740 q 456 767 486 757 l 392 788 q 361 797 374 794 q 340 800 349 800 q 322 792 326 800 q 317 775 317 785 l 317 753 z "},"ö":{"ha":858,"x_min":21,"x_max":838,"o":"m 429 -14 q 216 30 308 -14 q 72 156 124 74 q 21 350 21 238 q 72 545 21 464 q 216 670 124 626 q 429 714 308 714 q 643 670 551 714 q 786 545 735 626 q 838 350 838 464 q 786 156 838 238 q 643 30 735 74 q 429 -14 551 -14 m 429 217 q 549 245 518 217 q 579 350 579 274 q 549 456 579 426 q 429 485 518 485 q 310 456 340 485 q 279 350 279 426 q 310 245 279 274 q 429 217 340 217 m 717 778 l 469 778 l 469 971 l 717 971 l 717 778 m 389 778 l 142 778 l 142 971 l 389 971 l 389 778 z "},"ō":{"ha":858,"x_min":21,"x_max":838,"o":"m 429 -14 q 216 30 308 -14 q 72 156 124 74 q 21 350 21 238 q 72 545 21 464 q 216 670 124 626 q 429 714 308 714 q 643 670 551 714 q 786 545 735 626 q 838 350 838 464 q 786 156 838 238 q 643 30 735 74 q 429 -14 551 -14 m 429 217 q 549 245 518 217 q 579 350 579 274 q 549 456 579 426 q 429 485 518 485 q 310 456 340 485 q 279 350 279 426 q 310 245 279 274 q 429 217 340 217 m 675 775 l 182 775 l 182 961 l 675 961 l 675 775 z "},"ŏ":{"ha":858,"x_min":21,"x_max":838,"o":"m 429 -14 q 216 30 308 -14 q 72 156 124 74 q 21 350 21 238 q 72 545 21 464 q 216 670 124 626 q 429 714 308 714 q 643 670 551 714 q 786 545 735 626 q 838 350 838 464 q 786 156 838 238 q 643 30 735 74 q 429 -14 551 -14 m 429 217 q 549 245 518 217 q 579 350 579 274 q 549 456 579 426 q 429 485 518 485 q 310 456 340 485 q 279 350 279 426 q 310 245 279 274 q 429 217 340 217 m 429 764 q 252 819 319 764 q 185 958 185 874 l 185 964 l 367 964 l 367 963 q 378 926 367 936 q 429 915 389 915 q 481 926 471 915 q 492 963 492 936 l 492 964 l 674 964 l 674 958 q 606 819 674 874 q 429 764 539 764 z "},"ő":{"ha":858,"x_min":21,"x_max":925,"o":"m 429 -14 q 216 30 308 -14 q 72 156 124 74 q 21 350 21 238 q 72 545 21 464 q 216 670 124 626 q 429 714 308 714 q 643 670 551 714 q 786 545 735 626 q 838 350 838 464 q 786 156 838 238 q 643 30 735 74 q 429 -14 551 -14 m 429 217 q 549 245 518 217 q 579 350 579 274 q 549 456 579 426 q 429 485 518 485 q 310 456 340 485 q 279 350 279 426 q 310 245 279 274 q 429 217 340 217 m 736 778 l 472 778 l 583 958 l 925 958 l 736 778 m 331 778 l 67 778 l 176 958 l 519 958 l 331 778 z "},"p":{"ha":929,"x_min":42,"x_max":901,"o":"m 581 -14 q 394 40 457 -14 q 317 181 332 93 l 276 181 l 276 342 l 303 342 q 322 267 303 293 q 378 233 340 242 q 475 224 417 224 q 572 236 536 224 q 622 276 607 249 q 638 350 638 304 q 622 424 638 397 q 572 463 607 451 q 475 475 536 475 q 345 451 388 475 q 303 351 303 428 l 276 351 l 257 511 l 300 511 q 382 665 317 615 q 569 714 447 714 q 751 670 676 714 q 863 545 825 626 q 901 350 901 464 q 864 155 901 236 q 755 30 826 74 q 581 -14 683 -14 m 303 -236 l 42 -236 l 42 700 l 286 700 l 286 503 l 303 485 l 303 -236 z "},"q":{"ha":929,"x_min":28,"x_max":888,"o":"m 349 -14 q 174 30 246 -14 q 65 155 103 74 q 28 350 28 236 q 66 545 28 464 q 178 670 104 626 q 360 714 253 714 q 548 665 483 714 q 629 511 613 615 l 672 511 l 653 351 l 626 351 q 584 451 626 428 q 454 475 542 475 q 358 463 394 475 q 307 424 322 451 q 292 350 292 397 q 307 276 292 304 q 358 236 322 249 q 454 224 394 224 q 551 233 513 224 q 608 267 589 242 q 626 342 626 293 l 653 342 l 653 181 l 613 181 q 535 40 597 93 q 349 -14 472 -14 m 888 -236 l 626 -236 l 626 485 l 643 503 l 643 700 l 888 700 l 888 -236 z "},"r":{"ha":760,"x_min":42,"x_max":746,"o":"m 303 0 l 42 0 l 42 700 l 286 700 l 286 500 l 303 493 l 303 0 m 303 418 l 254 418 l 254 517 l 300 517 q 338 619 310 575 q 413 689 365 664 q 531 714 461 714 q 656 683 608 714 q 724 597 703 651 q 746 472 746 543 l 746 333 l 485 333 l 485 415 q 465 477 485 460 q 394 494 446 494 q 322 477 342 494 q 303 418 303 460 z "},"ŕ":{"ha":760,"x_min":42,"x_max":815,"o":"m 303 0 l 42 0 l 42 700 l 286 700 l 286 500 l 303 493 l 303 0 m 303 418 l 254 418 l 254 517 l 300 517 q 338 619 310 575 q 413 689 365 664 q 531 714 461 714 q 656 683 608 714 q 724 597 703 651 q 746 472 746 543 l 746 333 l 485 333 l 485 415 q 465 477 485 460 q 394 494 446 494 q 322 477 342 494 q 303 418 303 460 m 535 778 l 251 778 l 438 958 l 815 958 l 535 778 z "},"ŗ":{"ha":760,"x_min":-132,"x_max":746,"o":"m 303 0 l 42 0 l 42 700 l 286 700 l 286 500 l 303 493 l 303 0 m 303 418 l 254 418 l 254 517 l 300 517 q 338 619 310 575 q 413 689 365 664 q 531 714 461 714 q 656 683 608 714 q 724 597 703 651 q 746 472 746 543 l 746 333 l 485 333 l 485 415 q 465 477 485 460 q 394 494 446 494 q 322 477 342 494 q 303 418 303 460 m 133 -278 l -132 -278 l -1 -97 l 339 -97 l 133 -278 z "},"ř":{"ha":760,"x_min":42,"x_max":746,"o":"m 303 0 l 42 0 l 42 700 l 286 700 l 286 500 l 303 493 l 303 0 m 303 418 l 254 418 l 254 517 l 300 517 q 338 619 310 575 q 413 689 365 664 q 531 714 461 714 q 656 683 608 714 q 724 597 703 651 q 746 472 746 543 l 746 333 l 485 333 l 485 415 q 465 477 485 460 q 394 494 446 494 q 322 477 342 494 q 303 418 303 460 m 550 778 l 235 778 l 50 958 l 340 958 l 385 900 l 401 900 l 446 958 l 736 958 l 550 778 z "},"s":{"ha":801,"x_min":22,"x_max":781,"o":"m 418 -14 q 136 54 233 -14 q 39 243 39 122 l 39 249 l 300 249 l 300 235 q 324 199 300 206 q 419 192 349 192 q 506 199 488 192 q 524 225 524 207 q 510 248 524 242 q 447 260 496 254 l 244 282 q 79 344 136 293 q 22 483 22 394 q 58 598 22 546 q 173 682 93 650 q 383 714 253 714 q 588 685 506 714 q 713 598 671 656 q 756 454 756 540 l 756 449 l 494 449 l 494 457 q 487 487 494 475 q 453 504 479 499 q 375 510 428 510 q 295 501 311 510 q 279 472 279 492 q 295 450 279 458 q 372 435 311 442 l 511 419 q 722 351 664 403 q 781 211 781 300 q 738 95 781 146 q 615 15 696 44 q 418 -14 535 -14 z "},"ś":{"ha":801,"x_min":22,"x_max":824,"o":"m 418 -14 q 136 54 233 -14 q 39 243 39 122 l 39 249 l 300 249 l 300 235 q 324 199 300 206 q 419 192 349 192 q 506 199 488 192 q 524 225 524 207 q 510 248 524 242 q 447 260 496 254 l 244 282 q 79 344 136 293 q 22 483 22 394 q 58 598 22 546 q 173 682 93 650 q 383 714 253 714 q 588 685 506 714 q 713 598 671 656 q 756 454 756 540 l 756 449 l 494 449 l 494 457 q 487 487 494 475 q 453 504 479 499 q 375 510 428 510 q 295 501 311 510 q 279 472 279 492 q 295 450 279 458 q 372 435 311 442 l 511 419 q 722 351 664 403 q 781 211 781 300 q 738 95 781 146 q 615 15 696 44 q 418 -14 535 -14 m 543 778 l 260 778 l 446 958 l 824 958 l 543 778 z "},"ŝ":{"ha":801,"x_min":22,"x_max":781,"o":"m 418 -14 q 136 54 233 -14 q 39 243 39 122 l 39 249 l 300 249 l 300 235 q 324 199 300 206 q 419 192 349 192 q 506 199 488 192 q 524 225 524 207 q 510 248 524 242 q 447 260 496 254 l 244 282 q 79 344 136 293 q 22 483 22 394 q 58 598 22 546 q 173 682 93 650 q 383 714 253 714 q 588 685 506 714 q 713 598 671 656 q 756 454 756 540 l 756 449 l 494 449 l 494 457 q 487 487 494 475 q 453 504 479 499 q 375 510 428 510 q 295 501 311 510 q 279 472 279 492 q 295 450 279 458 q 372 435 311 442 l 511 419 q 722 351 664 403 q 781 211 781 300 q 738 95 781 146 q 615 15 696 44 q 418 -14 535 -14 m 338 778 l 58 778 l 243 958 l 558 958 l 744 778 l 464 778 l 410 836 l 393 836 l 338 778 z "},"ş":{"ha":801,"x_min":22,"x_max":781,"o":"m 418 -14 q 136 54 233 -14 q 39 243 39 122 l 39 249 l 300 249 l 300 235 q 324 199 300 206 q 419 192 349 192 q 506 199 488 192 q 524 225 524 207 q 510 248 524 242 q 447 260 496 254 l 244 282 q 79 344 136 293 q 22 483 22 394 q 58 598 22 546 q 173 682 93 650 q 383 714 253 714 q 588 685 506 714 q 713 598 671 656 q 756 454 756 540 l 756 449 l 494 449 l 494 457 q 487 487 494 475 q 453 504 479 499 q 375 510 428 510 q 295 501 311 510 q 279 472 279 492 q 295 450 279 458 q 372 435 311 442 l 511 419 q 722 351 664 403 q 781 211 781 300 q 738 95 781 146 q 615 15 696 44 q 418 -14 535 -14 m 475 -335 l 324 -335 l 324 -200 l 479 -200 q 488 -198 486 -200 q 490 -192 490 -196 q 488 -184 490 -186 q 479 -182 486 -182 l 324 -182 l 324 4 l 456 4 l 456 -50 l 475 -50 q 595 -88 554 -50 q 636 -190 636 -126 q 595 -295 636 -256 q 475 -335 554 -335 z "},"š":{"ha":801,"x_min":22,"x_max":781,"o":"m 418 -14 q 136 54 233 -14 q 39 243 39 122 l 39 249 l 300 249 l 300 235 q 324 199 300 206 q 419 192 349 192 q 506 199 488 192 q 524 225 524 207 q 510 248 524 242 q 447 260 496 254 l 244 282 q 79 344 136 293 q 22 483 22 394 q 58 598 22 546 q 173 682 93 650 q 383 714 253 714 q 588 685 506 714 q 713 598 671 656 q 756 454 756 540 l 756 449 l 494 449 l 494 457 q 487 487 494 475 q 453 504 479 499 q 375 510 428 510 q 295 501 311 510 q 279 472 279 492 q 295 450 279 458 q 372 435 311 442 l 511 419 q 722 351 664 403 q 781 211 781 300 q 738 95 781 146 q 615 15 696 44 q 418 -14 535 -14 m 558 778 l 243 778 l 58 958 l 349 958 l 393 900 l 410 900 l 454 958 l 744 958 l 558 778 z "},"ș":{"ha":801,"x_min":22,"x_max":781,"o":"m 418 -14 q 136 54 233 -14 q 39 243 39 122 l 39 249 l 300 249 l 300 235 q 324 199 300 206 q 419 192 349 192 q 506 199 488 192 q 524 225 524 207 q 510 248 524 242 q 447 260 496 254 l 244 282 q 79 344 136 293 q 22 483 22 394 q 58 598 22 546 q 173 682 93 650 q 383 714 253 714 q 588 685 506 714 q 713 598 671 656 q 756 454 756 540 l 756 449 l 494 449 l 494 457 q 487 487 494 475 q 453 504 479 499 q 375 510 428 510 q 295 501 311 510 q 279 472 279 492 q 295 450 279 458 q 372 435 311 442 l 511 419 q 722 351 664 403 q 781 211 781 300 q 738 95 781 146 q 615 15 696 44 q 418 -14 535 -14 m 378 -278 l 113 -278 l 243 -97 l 583 -97 l 378 -278 z "},"t":{"ha":586,"x_min":0,"x_max":565,"o":"m 565 0 l 382 0 q 177 65 251 0 q 103 267 103 131 l 103 821 l 364 821 l 364 304 q 380 249 364 263 q 440 235 396 235 l 565 235 l 565 0 m 565 486 l 0 486 l 0 700 l 565 700 l 565 486 z "},"ț":{"ha":586,"x_min":0,"x_max":565,"o":"m 565 0 l 382 0 q 177 65 251 0 q 103 267 103 131 l 103 821 l 364 821 l 364 304 q 380 249 364 263 q 440 235 396 235 l 565 235 l 565 0 m 565 486 l 0 486 l 0 700 l 565 700 l 565 486 m 360 -278 l 94 -278 l 225 -97 l 565 -97 l 360 -278 z "},"ť":{"ha":504,"x_min":0,"x_max":642,"o":"m 565 0 l 382 0 q 177 65 251 0 q 103 267 103 131 l 103 821 l 364 821 l 364 304 q 380 249 364 263 q 440 235 396 235 l 565 235 l 565 0 m 565 486 l 0 486 l 0 700 l 565 700 l 565 486 m 642 936 l 394 936 l 394 1117 l 642 1117 l 642 936 m 475 764 l 404 764 l 404 890 l 468 890 q 496 897 488 890 q 504 925 504 904 l 504 958 l 642 958 l 642 928 q 599 804 642 844 q 475 764 556 764 z "},"u":{"ha":907,"x_min":42,"x_max":871,"o":"m 329 -14 q 168 21 232 -14 q 73 115 104 56 q 42 251 42 175 l 42 700 l 303 700 l 303 347 q 337 247 303 275 q 460 219 371 219 q 580 245 550 219 q 610 339 610 271 l 636 339 l 658 213 l 613 213 q 575 103 606 154 q 485 19 544 51 q 329 -14 425 -14 m 871 0 l 626 0 l 626 215 l 610 222 l 610 700 l 871 700 l 871 0 z "},"ù":{"ha":907,"x_min":31,"x_max":871,"o":"m 329 -14 q 168 21 232 -14 q 73 115 104 56 q 42 251 42 175 l 42 700 l 303 700 l 303 347 q 337 247 303 275 q 460 219 371 219 q 580 245 550 219 q 610 339 610 271 l 636 339 l 658 213 l 613 213 q 575 103 606 154 q 485 19 544 51 q 329 -14 425 -14 m 871 0 l 626 0 l 626 215 l 610 222 l 610 700 l 871 700 l 871 0 m 593 778 l 311 778 l 31 958 l 408 958 l 593 778 z "},"ú":{"ha":907,"x_min":42,"x_max":878,"o":"m 329 -14 q 168 21 232 -14 q 73 115 104 56 q 42 251 42 175 l 42 700 l 303 700 l 303 347 q 337 247 303 275 q 460 219 371 219 q 580 245 550 219 q 610 339 610 271 l 636 339 l 658 213 l 613 213 q 575 103 606 154 q 485 19 544 51 q 329 -14 425 -14 m 871 0 l 626 0 l 626 215 l 610 222 l 610 700 l 871 700 l 871 0 m 597 778 l 314 778 l 500 958 l 878 958 l 597 778 z "},"û":{"ha":907,"x_min":42,"x_max":871,"o":"m 329 -14 q 168 21 232 -14 q 73 115 104 56 q 42 251 42 175 l 42 700 l 303 700 l 303 347 q 337 247 303 275 q 460 219 371 219 q 580 245 550 219 q 610 339 610 271 l 636 339 l 658 213 l 613 213 q 575 103 606 154 q 485 19 544 51 q 329 -14 425 -14 m 871 0 l 626 0 l 626 215 l 610 222 l 610 700 l 871 700 l 871 0 m 392 778 l 113 778 l 297 958 l 613 958 l 799 778 l 518 778 l 464 836 l 447 836 l 392 778 z "},"ü":{"ha":907,"x_min":42,"x_max":871,"o":"m 329 -14 q 168 21 232 -14 q 73 115 104 56 q 42 251 42 175 l 42 700 l 303 700 l 303 347 q 337 247 303 275 q 460 219 371 219 q 580 245 550 219 q 610 339 610 271 l 636 339 l 658 213 l 613 213 q 575 103 606 154 q 485 19 544 51 q 329 -14 425 -14 m 871 0 l 626 0 l 626 215 l 610 222 l 610 700 l 871 700 l 871 0 m 743 778 l 496 778 l 496 971 l 743 971 l 743 778 m 415 778 l 168 778 l 168 971 l 415 971 l 415 778 z "},"ũ":{"ha":907,"x_min":42,"x_max":871,"o":"m 329 -14 q 168 21 232 -14 q 73 115 104 56 q 42 251 42 175 l 42 700 l 303 700 l 303 347 q 337 247 303 275 q 460 219 371 219 q 580 245 550 219 q 610 339 610 271 l 636 339 l 658 213 l 613 213 q 575 103 606 154 q 485 19 544 51 q 329 -14 425 -14 m 871 0 l 626 0 l 626 215 l 610 222 l 610 700 l 871 700 l 871 0 m 343 753 l 169 753 l 169 822 q 180 894 169 858 q 222 955 190 931 q 314 979 253 979 q 367 973 338 979 q 436 953 397 967 l 483 936 q 515 926 501 931 q 539 922 529 922 q 562 931 554 922 q 569 957 569 939 l 569 967 l 742 967 l 742 899 q 710 785 742 831 q 608 740 679 740 q 544 749 576 740 q 482 767 513 757 l 418 788 q 388 797 400 794 q 367 800 375 800 q 348 792 353 800 q 343 775 343 785 l 343 753 z "},"ū":{"ha":907,"x_min":42,"x_max":871,"o":"m 329 -14 q 168 21 232 -14 q 73 115 104 56 q 42 251 42 175 l 42 700 l 303 700 l 303 347 q 337 247 303 275 q 460 219 371 219 q 580 245 550 219 q 610 339 610 271 l 636 339 l 658 213 l 613 213 q 575 103 606 154 q 485 19 544 51 q 329 -14 425 -14 m 871 0 l 626 0 l 626 215 l 610 222 l 610 700 l 871 700 l 871 0 m 701 775 l 208 775 l 208 961 l 701 961 l 701 775 z "},"ŭ":{"ha":907,"x_min":42,"x_max":871,"o":"m 329 -14 q 168 21 232 -14 q 73 115 104 56 q 42 251 42 175 l 42 700 l 303 700 l 303 347 q 337 247 303 275 q 460 219 371 219 q 580 245 550 219 q 610 339 610 271 l 636 339 l 658 213 l 613 213 q 575 103 606 154 q 485 19 544 51 q 329 -14 425 -14 m 871 0 l 626 0 l 626 215 l 610 222 l 610 700 l 871 700 l 871 0 m 456 764 q 278 819 346 764 q 211 958 211 874 l 211 964 l 393 964 l 393 963 q 404 926 393 936 q 456 915 415 915 q 508 926 497 915 q 518 963 518 936 l 518 964 l 700 964 l 700 958 q 633 819 700 874 q 456 764 565 764 z "},"ů":{"ha":907,"x_min":42,"x_max":871,"o":"m 329 -14 q 168 21 232 -14 q 73 115 104 56 q 42 251 42 175 l 42 700 l 303 700 l 303 347 q 337 247 303 275 q 460 219 371 219 q 580 245 550 219 q 610 339 610 271 l 636 339 l 658 213 l 613 213 q 575 103 606 154 q 485 19 544 51 q 329 -14 425 -14 m 871 0 l 626 0 l 626 215 l 610 222 l 610 700 l 871 700 l 871 0 m 456 756 q 349 789 390 756 q 308 878 308 822 q 349 967 308 933 q 456 1000 390 1000 q 562 967 521 1000 q 603 878 603 933 q 562 789 603 822 q 456 756 521 756 m 456 854 q 489 860 482 854 q 496 878 496 867 q 489 895 496 889 q 456 901 482 901 q 422 895 429 901 q 415 878 415 889 q 422 860 415 867 q 456 854 429 854 z "},"ű":{"ha":907,"x_min":42,"x_max":951,"o":"m 329 -14 q 168 21 232 -14 q 73 115 104 56 q 42 251 42 175 l 42 700 l 303 700 l 303 347 q 337 247 303 275 q 460 219 371 219 q 580 245 550 219 q 610 339 610 271 l 636 339 l 658 213 l 613 213 q 575 103 606 154 q 485 19 544 51 q 329 -14 425 -14 m 871 0 l 626 0 l 626 215 l 610 222 l 610 700 l 871 700 l 871 0 m 763 778 l 499 778 l 610 958 l 951 958 l 763 778 m 357 778 l 93 778 l 203 958 l 546 958 l 357 778 z "},"ų":{"ha":907,"x_min":42,"x_max":883,"o":"m 329 -14 q 168 21 232 -14 q 73 115 104 56 q 42 251 42 175 l 42 700 l 303 700 l 303 347 q 337 247 303 275 q 460 219 371 219 q 580 245 550 219 q 610 339 610 271 l 636 339 l 658 213 l 613 213 q 575 103 606 154 q 485 19 544 51 q 329 -14 425 -14 m 871 0 l 626 0 l 626 215 l 610 222 l 610 700 l 871 700 l 871 0 m 883 -260 l 744 -260 q 633 -232 665 -260 q 601 -161 601 -204 q 623 -92 601 -122 q 671 -33 644 -62 l 703 0 l 871 0 l 808 -78 q 800 -89 803 -83 q 797 -99 797 -94 q 800 -105 797 -103 q 808 -107 803 -107 l 883 -107 l 883 -260 z "},"v":{"ha":933,"x_min":-7,"x_max":940,"o":"m 626 0 l 304 0 l -7 700 l 285 700 l 460 254 l 478 254 l 654 700 l 940 700 l 626 0 z "},"w":{"ha":1304,"x_min":-7,"x_max":1311,"o":"m 496 0 l 169 0 l -7 700 l 264 700 l 314 447 l 340 197 l 358 197 l 417 475 l 486 700 l 822 700 l 892 475 l 950 197 l 968 197 l 996 447 l 1044 700 l 1311 700 l 1126 0 l 800 0 l 710 281 l 658 490 l 640 490 l 588 281 l 496 0 z "},"ŵ":{"ha":1304,"x_min":-7,"x_max":1311,"o":"m 496 0 l 169 0 l -7 700 l 264 700 l 314 447 l 340 197 l 358 197 l 417 475 l 486 700 l 822 700 l 892 475 l 950 197 l 968 197 l 996 447 l 1044 700 l 1311 700 l 1126 0 l 800 0 l 710 281 l 658 490 l 640 490 l 588 281 l 496 0 m 588 778 l 308 778 l 493 958 l 808 958 l 994 778 l 714 778 l 660 836 l 643 836 l 588 778 z "},"ẁ":{"ha":1304,"x_min":-7,"x_max":1311,"o":"m 496 0 l 169 0 l -7 700 l 264 700 l 314 447 l 340 197 l 358 197 l 417 475 l 486 700 l 822 700 l 892 475 l 950 197 l 968 197 l 996 447 l 1044 700 l 1311 700 l 1126 0 l 800 0 l 710 281 l 658 490 l 640 490 l 588 281 l 496 0 m 789 778 l 507 778 l 226 958 l 604 958 l 789 778 z "},"ẃ":{"ha":1304,"x_min":-7,"x_max":1311,"o":"m 496 0 l 169 0 l -7 700 l 264 700 l 314 447 l 340 197 l 358 197 l 417 475 l 486 700 l 822 700 l 892 475 l 950 197 l 968 197 l 996 447 l 1044 700 l 1311 700 l 1126 0 l 800 0 l 710 281 l 658 490 l 640 490 l 588 281 l 496 0 m 793 778 l 510 778 l 696 958 l 1074 958 l 793 778 z "},"ẅ":{"ha":1304,"x_min":-7,"x_max":1311,"o":"m 496 0 l 169 0 l -7 700 l 264 700 l 314 447 l 340 197 l 358 197 l 417 475 l 486 700 l 822 700 l 892 475 l 950 197 l 968 197 l 996 447 l 1044 700 l 1311 700 l 1126 0 l 800 0 l 710 281 l 658 490 l 640 490 l 588 281 l 496 0 m 939 778 l 692 778 l 692 971 l 939 971 l 939 778 m 611 778 l 364 778 l 364 971 l 611 971 l 611 778 z "},"x":{"ha":901,"x_min":-14,"x_max":915,"o":"m 301 0 l -14 0 l 247 339 l 247 353 l -14 700 l 306 700 l 449 489 l 463 489 l 600 700 l 915 700 l 654 357 l 654 343 l 915 0 l 596 0 l 453 206 l 439 206 l 301 0 z "},"y":{"ha":900,"x_min":-14,"x_max":914,"o":"m 196 -236 l 69 -236 l 69 0 l 272 0 q 321 8 304 0 q 346 38 338 17 l 365 85 l 340 -32 l -14 700 l 283 700 l 404 425 l 454 264 l 472 264 l 518 428 l 622 700 l 914 700 l 582 -28 q 494 -156 544 -110 q 371 -219 443 -201 q 196 -236 299 -236 z "},"ý":{"ha":900,"x_min":-14,"x_max":914,"o":"m 196 -236 l 69 -236 l 69 0 l 272 0 q 321 8 304 0 q 346 38 338 17 l 365 85 l 340 -32 l -14 700 l 283 700 l 404 425 l 454 264 l 472 264 l 518 428 l 622 700 l 914 700 l 582 -28 q 494 -156 544 -110 q 371 -219 443 -201 q 196 -236 299 -236 m 592 778 l 308 778 l 494 958 l 872 958 l 592 778 z "},"ÿ":{"ha":900,"x_min":-14,"x_max":914,"o":"m 196 -236 l 69 -236 l 69 0 l 272 0 q 321 8 304 0 q 346 38 338 17 l 365 85 l 340 -32 l -14 700 l 283 700 l 404 425 l 454 264 l 472 264 l 518 428 l 622 700 l 914 700 l 582 -28 q 494 -156 544 -110 q 371 -219 443 -201 q 196 -236 299 -236 m 738 778 l 490 778 l 490 971 l 738 971 l 738 778 m 410 778 l 163 778 l 163 971 l 410 971 l 410 778 z "},"ŷ":{"ha":900,"x_min":-14,"x_max":914,"o":"m 196 -236 l 69 -236 l 69 0 l 272 0 q 321 8 304 0 q 346 38 338 17 l 365 85 l 340 -32 l -14 700 l 283 700 l 404 425 l 454 264 l 472 264 l 518 428 l 622 700 l 914 700 l 582 -28 q 494 -156 544 -110 q 371 -219 443 -201 q 196 -236 299 -236 m 386 778 l 107 778 l 292 958 l 607 958 l 793 778 l 513 778 l 458 836 l 442 836 l 386 778 z "},"ỳ":{"ha":900,"x_min":-14,"x_max":914,"o":"m 196 -236 l 69 -236 l 69 0 l 272 0 q 321 8 304 0 q 346 38 338 17 l 365 85 l 340 -32 l -14 700 l 283 700 l 404 425 l 454 264 l 472 264 l 518 428 l 622 700 l 914 700 l 582 -28 q 494 -156 544 -110 q 371 -219 443 -201 q 196 -236 299 -236 m 588 778 l 306 778 l 25 958 l 403 958 l 588 778 z "},"z":{"ha":803,"x_min":21,"x_max":782,"o":"m 782 0 l 21 0 l 21 222 l 274 392 l 419 465 l 419 483 l 274 472 l 42 472 l 42 700 l 761 700 l 761 478 l 486 301 l 350 232 l 350 214 l 486 228 l 782 228 l 782 0 z "},"ź":{"ha":803,"x_min":21,"x_max":824,"o":"m 782 0 l 21 0 l 21 222 l 274 392 l 419 465 l 419 483 l 274 472 l 42 472 l 42 700 l 761 700 l 761 478 l 486 301 l 350 232 l 350 214 l 486 228 l 782 228 l 782 0 m 543 778 l 260 778 l 446 958 l 824 958 l 543 778 z "},"ż":{"ha":803,"x_min":21,"x_max":782,"o":"m 782 0 l 21 0 l 21 222 l 274 392 l 419 465 l 419 483 l 274 472 l 42 472 l 42 700 l 761 700 l 761 478 l 486 301 l 350 232 l 350 214 l 486 228 l 782 228 l 782 0 m 532 778 l 271 778 l 271 971 l 532 971 l 532 778 z "},"ž":{"ha":803,"x_min":21,"x_max":782,"o":"m 782 0 l 21 0 l 21 222 l 274 392 l 419 465 l 419 483 l 274 472 l 42 472 l 42 700 l 761 700 l 761 478 l 486 301 l 350 232 l 350 214 l 486 228 l 782 228 l 782 0 m 558 778 l 243 778 l 58 958 l 349 958 l 393 900 l 410 900 l 454 958 l 744 958 l 558 778 z "},"ª":{"ha":317,"x_min":28,"x_max":289,"o":"m 289 732 l 207 732 l 207 776 l 204 785 l 204 833 l 201 840 l 201 847 q 193 872 201 867 q 163 876 185 876 q 132 873 142 876 q 122 854 122 869 l 122 853 l 36 853 l 36 856 q 70 920 36 896 q 168 944 104 944 q 259 918 229 944 q 289 840 289 892 l 289 732 m 113 728 q 51 742 74 728 q 28 785 28 757 q 47 823 28 808 q 108 842 65 838 l 206 851 l 207 810 l 129 800 q 118 797 122 799 q 114 790 114 796 q 140 781 114 781 q 186 787 168 781 q 204 813 204 793 l 210 813 l 210 775 l 203 775 q 175 739 197 750 q 113 728 153 728 z "},"º":{"ha":306,"x_min":28,"x_max":278,"o":"m 153 728 q 61 756 94 728 q 28 836 28 785 q 61 916 28 888 q 153 944 94 944 q 244 916 211 944 q 278 836 278 888 q 244 756 278 785 q 153 728 211 728 m 153 806 q 183 813 175 806 q 190 836 190 819 q 183 860 190 853 q 153 867 175 867 q 123 860 131 867 q 115 836 115 853 q 123 813 115 819 q 153 806 131 806 z "},"ß":{"ha":992,"x_min":69,"x_max":978,"o":"m 326 0 l 69 0 l 69 585 q 117 775 69 694 q 267 900 165 856 q 531 944 368 944 q 758 912 669 944 q 891 824 847 879 q 935 697 935 768 q 883 554 935 608 q 703 494 831 500 l 703 481 q 910 411 843 475 q 978 244 978 347 q 905 67 978 133 q 665 0 832 0 l 382 0 l 382 235 l 632 235 q 697 248 679 235 q 714 300 714 261 q 697 351 714 339 q 632 364 681 364 l 382 364 l 382 578 l 606 578 q 660 588 646 578 q 674 629 674 599 q 663 667 674 653 q 617 689 651 682 q 513 696 583 696 q 388 686 428 696 q 338 653 349 676 q 326 588 326 629 l 326 0 z "},"æ":{"ha":1356,"x_min":21,"x_max":1343,"o":"m 953 -14 q 743 22 835 -14 q 600 139 651 58 q 549 350 549 219 q 599 545 549 464 q 740 670 650 626 q 947 714 831 714 q 1157 674 1068 714 q 1294 558 1246 635 q 1343 368 1343 481 q 1342 335 1343 350 q 1339 301 1342 321 l 719 301 l 719 433 l 1150 433 l 1093 351 q 1093 376 1093 363 q 1093 400 1093 390 q 1060 489 1093 464 q 942 514 1028 514 q 822 486 853 514 q 790 386 790 458 l 790 319 q 822 219 790 246 q 943 193 854 193 q 1049 208 1022 193 q 1076 253 1076 222 l 1076 268 l 1338 268 l 1338 251 q 1290 114 1338 174 q 1157 20 1243 54 q 953 -14 1071 -14 m 276 -14 q 88 38 154 -14 q 21 178 21 89 q 44 269 21 229 q 118 334 68 308 q 247 367 168 360 l 563 397 l 575 249 l 317 221 q 291 213 299 219 q 283 194 283 206 q 299 173 283 178 q 346 168 315 168 q 472 177 425 168 q 540 210 519 186 q 560 278 560 233 l 579 283 l 600 147 l 581 147 q 523 61 564 97 q 420 6 482 25 q 276 -14 358 -14 m 790 349 l 549 349 l 549 404 q 522 472 549 457 q 424 486 494 486 q 324 471 351 486 q 296 411 296 456 l 296 399 l 35 399 l 35 408 q 83 570 35 501 q 221 676 132 639 q 428 714 310 714 q 631 676 550 714 q 751 567 711 638 q 790 399 790 497 l 790 349 z "},"ǽ":{"ha":1356,"x_min":21,"x_max":1343,"o":"m 953 -14 q 743 22 835 -14 q 600 139 651 58 q 549 350 549 219 q 599 545 549 464 q 740 670 650 626 q 947 714 831 714 q 1157 674 1068 714 q 1294 558 1246 635 q 1343 368 1343 481 q 1342 335 1343 350 q 1339 301 1342 321 l 719 301 l 719 433 l 1150 433 l 1093 351 q 1093 376 1093 363 q 1093 400 1093 390 q 1060 489 1093 464 q 942 514 1028 514 q 822 486 853 514 q 790 386 790 458 l 790 319 q 822 219 790 246 q 943 193 854 193 q 1049 208 1022 193 q 1076 253 1076 222 l 1076 268 l 1338 268 l 1338 251 q 1290 114 1338 174 q 1157 20 1243 54 q 953 -14 1071 -14 m 276 -14 q 88 38 154 -14 q 21 178 21 89 q 44 269 21 229 q 118 334 68 308 q 247 367 168 360 l 563 397 l 575 249 l 317 221 q 291 213 299 219 q 283 194 283 206 q 299 173 283 178 q 346 168 315 168 q 472 177 425 168 q 540 210 519 186 q 560 278 560 233 l 579 283 l 600 147 l 581 147 q 523 61 564 97 q 420 6 482 25 q 276 -14 358 -14 m 790 349 l 549 349 l 549 404 q 522 472 549 457 q 424 486 494 486 q 324 471 351 486 q 296 411 296 456 l 296 399 l 35 399 l 35 408 q 83 570 35 501 q 221 676 132 639 q 428 714 310 714 q 631 676 550 714 q 751 567 711 638 q 790 399 790 497 l 790 349 m 824 778 l 540 778 l 726 958 l 1104 958 l 824 778 z "},"ð":{"ha":972,"x_min":28,"x_max":944,"o":"m 457 -14 q 133 78 239 -14 q 28 325 28 171 q 69 495 28 429 q 188 592 111 561 q 368 624 265 624 q 553 581 488 624 q 644 468 619 538 l 661 468 q 619 589 656 528 q 526 710 583 650 q 401 826 469 769 q 261 931 332 882 l 614 931 q 733 847 674 899 q 840 725 792 794 q 916 569 888 656 q 944 382 944 483 q 890 169 944 258 q 728 33 836 81 q 457 -14 619 -14 m 472 240 q 589 247 549 240 q 644 271 629 253 q 660 321 660 289 q 646 376 660 357 q 592 401 632 394 q 472 408 553 408 q 362 401 400 408 q 310 376 324 394 q 296 322 296 357 q 331 258 296 275 q 472 240 367 240 m 921 775 l 296 667 l 272 782 l 897 890 l 921 775 z "},"ø":{"ha":858,"x_min":6,"x_max":851,"o":"m 429 -14 q 216 30 308 -14 q 72 156 124 74 q 21 350 21 238 q 72 545 21 464 q 216 670 124 626 q 429 714 308 714 q 643 670 551 714 q 786 545 735 626 q 838 350 838 464 q 786 156 838 238 q 643 30 735 74 q 429 -14 551 -14 m 429 217 q 549 245 518 217 q 579 350 579 274 q 549 456 579 426 q 429 485 518 485 q 310 456 340 485 q 279 350 279 426 q 310 245 279 274 q 429 217 340 217 m 851 628 l 97 -29 l 6 72 l 760 729 l 851 628 z "},"ǿ":{"ha":858,"x_min":6,"x_max":851,"o":"m 429 -14 q 216 30 308 -14 q 72 156 124 74 q 21 350 21 238 q 72 545 21 464 q 216 670 124 626 q 429 714 308 714 q 643 670 551 714 q 786 545 735 626 q 838 350 838 464 q 786 156 838 238 q 643 30 735 74 q 429 -14 551 -14 m 429 217 q 549 245 518 217 q 579 350 579 274 q 549 456 579 426 q 429 485 518 485 q 310 456 340 485 q 279 350 279 426 q 310 245 279 274 q 429 217 340 217 m 851 628 l 97 -29 l 6 72 l 760 729 l 851 628 m 571 778 l 288 778 l 474 958 l 851 958 l 571 778 z "},"þ":{"ha":929,"x_min":42,"x_max":901,"o":"m 581 -14 q 394 40 457 -14 q 317 181 332 93 l 276 181 l 276 342 l 303 342 q 322 267 303 293 q 378 233 340 242 q 475 224 417 224 q 572 236 536 224 q 622 276 607 249 q 638 350 638 304 q 622 424 638 397 q 572 464 607 451 q 475 476 536 476 q 378 467 417 476 q 322 433 340 458 q 303 358 303 408 l 276 358 l 276 519 l 317 519 q 394 660 332 607 q 581 714 457 714 q 755 670 683 714 q 864 545 826 626 q 901 350 901 464 q 864 155 901 236 q 755 30 826 74 q 581 -14 683 -14 m 303 -236 l 42 -236 l 42 931 l 303 931 l 303 -236 z "},"đ":{"ha":993,"x_min":28,"x_max":999,"o":"m 360 -14 q 178 26 253 -14 q 66 142 104 67 q 28 322 28 218 q 65 503 28 428 q 174 618 103 578 q 349 658 246 658 q 481 634 426 658 q 569 566 536 610 q 613 464 603 522 l 653 464 l 653 331 l 626 331 q 608 388 626 368 q 551 414 589 407 q 454 421 513 421 q 358 411 394 421 q 307 380 322 401 q 292 322 292 358 q 307 265 292 286 q 358 234 322 243 q 454 225 394 225 q 551 233 513 225 q 608 261 589 240 q 626 321 626 282 l 653 321 l 672 189 l 629 189 q 548 41 613 96 q 360 -14 483 -14 m 888 0 l 643 0 l 643 225 l 626 243 l 626 931 l 888 931 l 888 0 m 999 658 l 489 658 l 489 853 l 999 853 l 999 658 z "},"ħ":{"ha":981,"x_min":0,"x_max":944,"o":"m 944 0 l 683 0 l 683 297 q 650 398 683 371 q 526 425 617 425 q 434 414 467 425 q 389 377 401 403 q 376 306 376 351 l 344 306 l 344 432 l 390 432 q 433 543 401 492 q 522 626 464 594 q 669 658 581 658 q 824 622 763 658 q 915 524 885 586 q 944 385 944 463 l 944 0 m 376 0 l 115 0 l 115 931 l 376 931 l 376 0 m 510 658 l 0 658 l 0 853 l 510 853 l 510 658 z "},"ĳ":{"ha":689,"x_min":42,"x_max":647,"o":"m 303 0 l 42 0 l 42 700 l 303 700 l 303 0 m 303 764 l 42 764 l 42 931 l 303 931 l 303 764 m 333 -236 l 308 -236 l 308 -44 l 335 -44 q 374 -33 361 -44 q 386 6 386 -22 l 386 700 l 647 700 l 647 44 q 610 -126 647 -65 q 503 -212 574 -187 q 333 -236 433 -236 m 647 764 l 386 764 l 386 931 l 647 931 l 647 764 z "},"ŀ":{"ha":606,"x_min":42,"x_max":606,"o":"m 606 369 l 344 369 l 344 563 l 606 563 l 606 369 m 303 0 l 42 0 l 42 931 l 303 931 l 303 0 z "},"ł":{"ha":558,"x_min":-14,"x_max":572,"o":"m 410 0 l 149 0 l 149 931 l 410 931 l 410 0 m 572 563 l 57 335 l -14 481 l 501 708 l 572 563 z "},"ŋ":{"ha":893,"x_min":42,"x_max":857,"o":"m 543 -236 l 518 -236 l 518 -44 l 544 -44 q 583 -33 571 -44 q 596 6 596 -22 l 596 353 q 564 453 596 426 q 446 481 532 481 q 331 455 360 481 q 303 361 303 429 l 276 361 l 254 488 l 300 488 q 338 597 308 546 q 427 681 368 649 q 579 714 486 714 q 735 679 674 714 q 827 585 797 644 q 857 449 857 525 l 857 -4 q 817 -144 857 -93 q 708 -215 778 -194 q 543 -236 638 -236 m 303 0 l 42 0 l 42 700 l 286 700 l 286 485 l 303 478 l 303 0 z "},"œ":{"ha":1418,"x_min":21,"x_max":1390,"o":"m 429 -14 q 216 30 308 -14 q 72 156 124 74 q 21 350 21 238 q 72 545 21 464 q 216 670 124 626 q 429 714 308 714 q 643 670 551 714 q 786 545 735 626 q 838 350 838 464 q 786 156 838 238 q 643 30 735 74 q 429 -14 551 -14 m 429 217 q 549 245 518 217 q 579 350 579 274 q 549 456 579 426 q 429 485 518 485 q 310 456 340 485 q 279 350 279 426 q 310 245 279 274 q 429 217 340 217 m 1000 -14 q 790 22 882 -14 q 647 139 699 58 q 596 350 596 219 q 647 545 596 464 q 788 670 699 626 q 994 714 878 714 q 1204 674 1115 714 q 1342 558 1293 635 q 1390 368 1390 481 q 1390 335 1390 350 q 1386 301 1389 321 l 767 301 l 767 433 l 1197 433 l 1140 351 q 1140 376 1140 364 q 1140 400 1140 388 q 1108 489 1140 464 q 989 514 1075 514 q 869 486 900 514 q 838 386 838 458 l 838 319 q 869 219 838 246 q 990 193 901 193 q 1097 208 1069 193 q 1124 253 1124 222 l 1124 268 l 1385 268 l 1385 251 q 1338 114 1385 174 q 1204 20 1290 54 q 1000 -14 1118 -14 z "},"ŧ":{"ha":586,"x_min":0,"x_max":565,"o":"m 565 0 l 382 0 q 177 65 251 0 q 103 267 103 131 l 103 821 l 364 821 l 364 304 q 380 249 364 263 q 440 235 396 235 l 565 235 l 565 0 m 565 282 l 0 282 l 0 467 l 565 467 l 565 282 m 565 514 l 0 514 l 0 700 l 565 700 l 565 514 z "},"ƒ":{"ha":797,"x_min":-14,"x_max":811,"o":"m 64 -236 l -14 -236 l 26 -1 l 76 -1 q 163 5 135 -1 q 204 33 192 11 q 225 100 217 54 l 310 586 q 451 849 342 768 q 771 931 561 931 l 811 931 l 771 696 l 722 696 q 635 690 665 696 q 593 663 606 683 q 572 594 581 642 l 488 108 q 415 -97 464 -22 q 281 -204 365 -172 q 64 -236 196 -236 m 708 349 l 125 349 l 167 582 l 750 582 l 708 349 z "},"¼":{"ha":1174,"x_min":42,"x_max":1132,"o":"m 374 465 l 193 465 l 193 733 l 57 733 l 57 874 l 82 874 q 149 885 118 874 q 201 931 179 896 l 374 931 l 374 465 m 293 0 l 42 0 l 832 931 l 1083 931 l 293 0 m 1132 88 l 613 88 l 613 231 l 840 465 l 967 465 l 881 315 l 861 315 l 810 261 l 810 247 l 1132 247 l 1132 88 m 1056 0 l 875 0 l 875 465 l 1056 465 l 1056 0 z "},"½":{"ha":1214,"x_min":42,"x_max":1172,"o":"m 374 465 l 193 465 l 193 733 l 57 733 l 57 874 l 82 874 q 149 885 118 874 q 201 931 179 896 l 374 931 l 374 465 m 293 0 l 42 0 l 832 931 l 1083 931 l 293 0 m 1157 0 l 694 0 l 694 75 q 728 176 694 142 q 815 228 761 211 l 961 272 q 984 283 978 278 q 990 297 990 288 q 981 313 990 308 q 932 318 971 318 q 879 310 893 318 q 865 279 865 303 l 865 265 l 686 265 l 686 286 q 714 378 686 336 q 799 447 742 421 q 944 472 856 472 q 1115 428 1058 472 q 1172 310 1172 383 q 1134 217 1172 250 q 1013 167 1096 183 l 868 136 q 869 131 868 135 q 869 125 869 126 l 1090 153 l 1157 153 l 1157 0 z "},"¾":{"ha":1268,"x_min":42,"x_max":1226,"o":"m 303 465 q 106 510 171 465 q 42 638 42 554 l 42 653 l 222 653 l 222 644 q 234 622 222 626 q 290 618 246 618 q 348 622 336 618 q 360 639 360 625 q 354 653 360 649 q 333 657 349 657 l 236 657 l 236 763 l 315 763 q 338 766 332 763 q 343 779 343 769 q 333 794 343 790 q 283 799 324 799 q 232 793 242 799 q 222 775 222 788 l 222 771 l 42 771 l 42 775 q 109 897 42 850 q 299 944 176 944 q 467 912 411 944 q 524 822 524 879 q 498 754 524 781 q 413 721 472 728 l 413 714 q 507 682 471 707 q 543 604 543 657 q 515 526 543 557 q 432 481 486 496 q 303 465 378 465 m 399 0 l 147 0 l 938 931 l 1189 931 l 399 0 m 1226 88 l 707 88 l 707 231 l 935 465 l 1061 465 l 975 315 l 956 315 l 904 261 l 904 247 l 1226 247 l 1226 88 m 1150 0 l 969 0 l 969 465 l 1150 465 l 1150 0 z "},"_":{"ha":528,"x_min":14,"x_max":514,"o":"m 514 -185 l 14 -185 l 14 0 l 514 0 l 514 -185 z "},"-":{"ha":668,"x_min":42,"x_max":626,"o":"m 626 301 l 42 301 l 42 524 l 626 524 l 626 301 z "},"–":{"ha":869,"x_min":42,"x_max":828,"o":"m 828 301 l 42 301 l 42 524 l 828 524 l 828 301 z "},"—":{"ha":1539,"x_min":42,"x_max":1497,"o":"m 1497 301 l 42 301 l 42 524 l 1497 524 l 1497 301 z "},"(":{"ha":485,"x_min":28,"x_max":471,"o":"m 471 21 l 339 -100 q 229 6 285 -53 q 128 134 174 64 q 56 287 83 204 q 28 465 28 369 q 56 644 28 561 q 128 797 83 726 q 229 925 174 867 q 339 1031 285 983 l 471 910 q 390 788 421 840 q 344 688 360 735 q 322 588 328 640 q 317 465 317 535 q 322 343 317 396 q 344 243 328 290 q 390 143 360 196 q 471 21 421 90 z "},"[":{"ha":454,"x_min":42,"x_max":440,"o":"m 283 -83 l 42 -83 l 42 1014 l 283 1014 l 283 -83 m 440 -83 l 42 -83 l 42 131 l 440 131 l 440 -83 m 440 800 l 42 800 l 42 1014 l 440 1014 l 440 800 z "},"{":{"ha":526,"x_min":28,"x_max":499,"o":"m 499 -83 l 457 -83 q 228 -8 303 -83 q 153 186 153 67 l 153 269 q 134 326 153 310 q 67 343 115 343 l 28 343 l 28 588 l 67 588 q 134 604 115 588 q 153 661 153 621 l 153 744 q 228 939 153 864 q 457 1014 303 1014 l 499 1014 l 499 760 l 450 760 q 406 747 419 760 q 393 706 393 733 l 393 640 q 344 510 393 547 q 217 474 294 474 l 217 457 q 344 420 294 457 q 393 290 393 383 l 393 225 q 406 184 393 197 q 450 171 419 171 l 499 171 l 499 -83 z "},"‚":{"ha":422,"x_min":42,"x_max":381,"o":"m 381 0 l 42 0 l 42 267 l 381 267 l 381 0 m 150 -231 l 54 -231 l 54 -69 l 142 -69 q 178 -60 167 -69 q 190 -19 190 -50 l 190 32 l 381 32 l 381 -18 q 320 -178 381 -125 q 150 -231 260 -231 z "},"„":{"ha":831,"x_min":42,"x_max":789,"o":"m 381 0 l 42 0 l 42 267 l 381 267 l 381 0 m 150 -231 l 54 -231 l 54 -69 l 142 -69 q 178 -60 167 -69 q 190 -19 190 -50 l 190 32 l 381 32 l 381 -18 q 320 -178 381 -125 q 150 -231 260 -231 m 789 0 l 450 0 l 450 267 l 789 267 l 789 0 m 558 -231 l 463 -231 l 463 -69 l 550 -69 q 587 -60 575 -69 q 599 -19 599 -50 l 599 32 l 789 32 l 789 -18 q 728 -178 789 -125 q 558 -231 668 -231 z "},")":{"ha":546,"x_min":56,"x_max":499,"o":"m 56 910 l 188 1031 q 297 925 242 983 q 398 797 353 867 q 471 644 443 726 q 499 465 499 561 q 471 287 499 369 q 398 134 443 204 q 297 6 353 64 q 188 -100 242 -53 l 56 21 q 136 143 106 90 q 183 243 167 196 q 204 343 199 290 q 210 465 210 396 q 204 588 210 535 q 183 688 199 640 q 136 788 167 735 q 56 910 106 840 z "},"]":{"ha":489,"x_min":21,"x_max":419,"o":"m 178 1014 l 419 1014 l 419 -83 l 178 -83 l 178 1014 m 21 1014 l 419 1014 l 419 800 l 21 800 l 21 1014 m 21 131 l 419 131 l 419 -83 l 21 -83 l 21 131 z "},"}":{"ha":533,"x_min":35,"x_max":506,"o":"m 35 1014 l 76 1014 q 306 939 231 1014 q 381 744 381 864 l 381 661 q 399 604 381 621 q 467 588 418 588 l 506 588 l 506 343 l 467 343 q 399 326 418 343 q 381 269 381 310 l 381 186 q 306 -8 381 67 q 76 -83 231 -83 l 35 -83 l 35 171 l 83 171 q 127 184 114 171 q 140 225 140 197 l 140 290 q 190 420 140 383 q 317 457 239 457 l 317 474 q 190 510 239 474 q 140 640 140 547 l 140 706 q 127 747 140 733 q 83 760 114 760 l 35 760 l 35 1014 z "},"‘":{"ha":422,"x_min":42,"x_max":381,"o":"m 42 700 l 381 700 l 381 433 l 42 433 l 42 700 m 272 931 l 368 931 l 368 769 l 281 769 q 244 760 256 769 q 232 719 232 750 l 232 668 l 42 668 l 42 718 q 102 878 42 825 q 272 931 163 931 z "},"“":{"ha":831,"x_min":42,"x_max":789,"o":"m 42 700 l 381 700 l 381 433 l 42 433 l 42 700 m 272 931 l 368 931 l 368 769 l 281 769 q 244 760 256 769 q 232 719 232 750 l 232 668 l 42 668 l 42 718 q 102 878 42 825 q 272 931 163 931 m 450 700 l 789 700 l 789 433 l 450 433 l 450 700 m 681 931 l 776 931 l 776 769 l 689 769 q 652 760 664 769 q 640 719 640 750 l 640 668 l 450 668 l 450 718 q 510 878 450 825 q 681 931 571 931 z "},"‹":{"ha":361,"x_min":42,"x_max":319,"o":"m 42 569 l 319 750 l 319 483 l 215 433 l 215 414 l 319 364 l 319 97 l 42 278 l 42 569 z "},"’":{"ha":422,"x_min":42,"x_max":381,"o":"m 381 664 l 42 664 l 42 931 l 381 931 l 381 664 m 150 433 l 54 433 l 54 594 l 142 594 q 178 604 167 594 q 190 644 190 614 l 190 696 l 381 696 l 381 646 q 320 486 381 539 q 150 433 260 433 z "},"”":{"ha":831,"x_min":42,"x_max":789,"o":"m 789 664 l 450 664 l 450 931 l 789 931 l 789 664 m 558 433 l 463 433 l 463 594 l 550 594 q 587 604 575 594 q 599 644 599 614 l 599 696 l 789 696 l 789 646 q 728 486 789 539 q 558 433 668 433 m 381 664 l 42 664 l 42 931 l 381 931 l 381 664 m 150 433 l 54 433 l 54 594 l 142 594 q 178 604 167 594 q 190 644 190 614 l 190 696 l 381 696 l 381 646 q 320 486 381 539 q 150 433 260 433 z "},"›":{"ha":361,"x_min":42,"x_max":319,"o":"m 319 278 l 42 97 l 42 364 l 146 414 l 146 433 l 42 483 l 42 750 l 319 569 l 319 278 z "},"!":{"ha":489,"x_min":75,"x_max":414,"o":"m 378 306 l 111 306 q 108 385 111 333 q 99 501 104 438 q 88 628 93 564 q 78 747 82 693 q 75 833 75 801 l 75 931 l 414 931 l 414 833 q 410 747 414 801 q 401 628 407 693 q 390 501 396 564 q 381 385 385 438 q 378 306 378 333 m 393 0 l 94 0 l 94 246 l 393 246 l 393 0 z "},"\"":{"ha":688,"x_min":28,"x_max":660,"o":"m 606 486 l 442 486 l 389 706 l 389 931 l 660 931 l 660 706 l 606 486 m 246 486 l 82 486 l 28 706 l 28 931 l 299 931 l 299 706 l 246 486 z "},"#":{"ha":1224,"x_min":28,"x_max":1196,"o":"m 349 0 l 94 0 l 161 165 l 28 165 l 28 399 l 254 399 l 293 496 l 108 496 l 108 729 l 386 729 l 467 931 l 721 931 l 640 729 l 793 729 l 874 931 l 1128 931 l 1047 729 l 1196 729 l 1196 496 l 954 496 l 915 399 l 1114 399 l 1114 165 l 822 165 l 756 0 l 501 0 l 568 165 l 415 165 l 349 0 m 542 501 l 499 394 l 667 394 l 710 501 l 542 501 z "},"%":{"ha":1143,"x_min":14,"x_max":1129,"o":"m 878 -15 q 744 12 801 -15 q 657 91 688 39 q 626 217 626 143 q 657 342 626 290 q 744 422 688 394 q 878 450 801 450 q 1012 422 956 450 q 1099 342 1068 394 q 1129 217 1129 290 q 1099 91 1129 143 q 1012 12 1068 39 q 878 -15 956 -15 m 265 482 q 132 509 189 482 q 44 588 75 536 q 14 714 14 640 q 44 840 14 788 q 132 919 75 892 q 265 947 189 947 q 399 919 343 947 q 486 840 456 892 q 517 714 517 788 q 486 588 517 640 q 399 509 456 536 q 265 482 343 482 m 265 649 q 320 661 306 649 q 335 714 335 674 q 320 768 335 754 q 265 782 306 782 q 210 768 225 782 q 196 714 196 754 q 210 661 196 674 q 265 649 225 649 m 878 151 q 933 164 918 151 q 947 217 947 176 q 933 271 947 257 q 878 285 918 285 q 823 271 838 285 q 808 217 808 257 q 823 164 808 176 q 878 151 838 151 m 303 0 l 51 0 l 842 931 l 1093 931 l 303 0 z "},"&":{"ha":1074,"x_min":28,"x_max":1046,"o":"m 472 -14 q 143 51 258 -14 q 28 261 28 117 q 93 423 28 368 q 261 485 158 478 l 261 503 q 118 567 165 511 q 71 700 71 624 q 172 891 71 832 q 457 950 274 950 l 603 950 l 603 713 l 419 713 q 353 701 375 713 q 332 646 332 690 q 353 592 332 603 q 413 582 374 582 l 1046 582 l 1046 368 l 378 368 q 316 355 339 368 q 293 296 293 342 q 308 252 293 268 q 363 230 322 236 q 482 224 404 224 q 594 230 558 224 q 642 259 631 236 q 654 331 654 282 l 654 700 l 911 700 l 911 344 q 872 156 911 236 q 738 31 833 75 q 472 -14 643 -14 z "},"'":{"ha":326,"x_min":28,"x_max":299,"o":"m 246 486 l 82 486 l 28 706 l 28 931 l 299 931 l 299 706 l 246 486 z "},"*":{"ha":569,"x_min":14,"x_max":556,"o":"m 276 547 l 207 436 l 58 543 l 143 643 l 139 657 l 14 689 l 69 863 l 193 810 l 204 819 l 193 950 l 376 950 l 365 819 l 376 810 l 501 861 l 556 688 l 428 657 l 422 643 l 508 543 l 358 435 l 293 547 l 276 547 z "},",":{"ha":422,"x_min":42,"x_max":381,"o":"m 381 0 l 42 0 l 42 267 l 381 267 l 381 0 m 150 -231 l 54 -231 l 54 -69 l 142 -69 q 178 -60 167 -69 q 190 -19 190 -50 l 190 32 l 381 32 l 381 -18 q 320 -178 381 -125 q 150 -231 260 -231 z "},".":{"ha":422,"x_min":42,"x_max":381,"o":"m 381 0 l 42 0 l 42 267 l 381 267 l 381 0 z "},"/":{"ha":714,"x_min":-28,"x_max":751,"o":"m 251 -28 l -28 -28 l 472 958 l 751 958 l 251 -28 z "},":":{"ha":422,"x_min":42,"x_max":381,"o":"m 381 435 l 42 435 l 42 701 l 381 701 l 381 435 m 381 0 l 42 0 l 42 267 l 381 267 l 381 0 z "},";":{"ha":422,"x_min":42,"x_max":381,"o":"m 381 0 l 42 0 l 42 267 l 381 267 l 381 0 m 150 -231 l 54 -231 l 54 -69 l 142 -69 q 178 -60 167 -69 q 190 -19 190 -50 l 190 32 l 381 32 l 381 -18 q 320 -178 381 -125 q 150 -231 260 -231 m 381 435 l 42 435 l 42 701 l 381 701 l 381 435 z "},"?":{"ha":906,"x_min":14,"x_max":878,"o":"m 529 310 l 268 310 l 268 361 q 294 457 268 419 q 360 518 319 494 q 443 557 400 542 l 540 593 q 599 621 581 608 q 617 656 617 633 q 607 682 617 671 q 564 700 597 693 q 458 707 531 707 q 309 683 347 707 q 271 611 271 660 l 271 544 l 14 544 l 14 586 q 60 763 14 681 q 208 894 106 844 q 478 944 310 944 q 710 907 622 944 q 838 806 799 869 q 878 665 878 743 q 849 542 878 589 q 776 467 819 494 q 689 424 733 440 l 585 385 q 538 355 547 371 q 529 317 529 339 l 529 310 m 549 0 l 250 0 l 250 246 l 549 246 l 549 0 z "},"@":{"ha":1279,"x_min":28,"x_max":1251,"o":"m 565 -207 q 277 -143 397 -207 q 92 42 157 -79 q 28 335 28 163 q 106 641 28 511 q 328 843 183 771 q 671 915 472 915 q 989 853 860 915 q 1185 678 1118 790 q 1251 415 1251 565 q 1215 222 1251 303 q 1111 99 1178 142 q 956 57 1044 57 q 760 111 828 57 q 693 249 693 165 l 693 465 l 707 481 l 707 611 l 935 611 l 935 292 q 944 259 935 269 q 975 249 954 249 q 1011 259 999 249 q 1028 300 1024 269 q 1033 393 1033 331 q 998 579 1033 513 q 880 674 963 646 q 656 701 797 701 q 462 684 539 701 q 340 625 385 667 q 277 513 296 583 q 258 335 258 442 q 289 124 258 200 q 393 18 319 49 q 594 -12 467 -12 q 713 -4 657 -12 q 807 14 768 4 l 847 -158 q 719 -194 783 -181 q 565 -207 656 -207 m 533 57 q 429 84 478 57 q 351 173 381 111 q 321 340 321 235 q 384 555 321 488 q 538 622 447 622 q 646 588 604 622 q 693 493 688 553 l 731 493 l 714 367 l 693 367 q 688 414 693 396 q 668 440 682 432 q 628 447 654 447 q 575 424 589 447 q 561 340 561 401 q 575 256 561 279 q 628 232 589 232 q 668 240 654 232 q 688 265 682 247 q 693 314 693 283 l 714 314 l 714 185 l 689 185 q 667 126 683 156 q 617 76 650 96 q 533 57 585 57 z "},"\\":{"ha":724,"x_min":-28,"x_max":751,"o":"m 751 -28 l 472 -28 l -28 958 l 251 958 l 751 -28 z "},"¡":{"ha":422,"x_min":42,"x_max":381,"o":"m 78 389 l 344 389 q 348 309 344 361 q 357 194 351 257 q 368 66 363 131 q 377 -53 374 1 q 381 -139 381 -107 l 381 -236 l 42 -236 l 42 -139 q 45 -53 42 -107 q 54 66 49 1 q 65 194 60 131 q 74 309 71 257 q 78 389 78 361 m 63 694 l 361 694 l 361 449 l 63 449 l 63 694 z "},"·":{"ha":422,"x_min":42,"x_max":381,"o":"m 381 347 l 42 347 l 42 614 l 381 614 l 381 347 z "},"¿":{"ha":906,"x_min":28,"x_max":892,"o":"m 376 385 l 638 385 l 638 333 q 612 238 638 275 q 547 177 586 200 q 463 138 507 154 l 365 101 q 307 75 325 88 q 289 39 289 63 q 299 13 289 25 q 342 -6 308 1 q 447 -12 375 -12 q 597 11 558 -12 q 635 83 635 35 l 635 150 l 892 150 l 892 108 q 846 -68 892 14 q 699 -200 800 -150 q 428 -250 597 -250 q 195 -212 283 -250 q 67 -112 107 -175 q 28 29 28 -49 q 57 153 28 106 q 130 227 86 200 q 217 271 174 254 l 321 310 q 367 340 358 325 q 376 378 376 356 l 376 385 m 357 694 l 656 694 l 656 449 l 357 449 l 357 694 z "},"†":{"ha":778,"x_min":28,"x_max":750,"o":"m 518 0 l 258 0 l 258 931 l 518 931 l 518 0 m 750 508 l 28 508 l 28 722 l 750 722 l 750 508 z "},"‡":{"ha":778,"x_min":28,"x_max":750,"o":"m 518 0 l 258 0 l 258 931 l 518 931 l 518 0 m 750 208 l 28 208 l 28 424 l 750 424 l 750 208 m 750 508 l 28 508 l 28 722 l 750 722 l 750 508 z "},"•":{"ha":513,"x_min":28,"x_max":485,"o":"m 256 236 q 142 264 193 236 q 59 343 90 292 q 28 465 28 394 q 59 588 28 538 q 142 667 90 639 q 256 694 193 694 q 371 667 319 694 q 453 588 422 639 q 485 465 485 538 q 453 343 485 394 q 371 264 422 292 q 256 236 319 236 z "},"…":{"ha":1267,"x_min":42,"x_max":1225,"o":"m 381 0 l 42 0 l 42 267 l 381 267 l 381 0 m 803 0 l 464 0 l 464 267 l 803 267 l 803 0 m 1225 0 l 886 0 l 886 267 l 1225 267 l 1225 0 z "},"‰":{"ha":1685,"x_min":14,"x_max":1671,"o":"m 1419 -15 q 1286 12 1343 -15 q 1199 91 1229 39 q 1168 217 1168 143 q 1199 342 1168 290 q 1286 422 1229 394 q 1419 450 1343 450 q 1553 422 1497 450 q 1640 342 1610 394 q 1671 217 1671 290 q 1640 91 1671 143 q 1553 12 1610 39 q 1419 -15 1497 -15 m 1419 151 q 1474 164 1460 151 q 1489 217 1489 176 q 1474 271 1489 257 q 1419 285 1460 285 q 1365 271 1379 285 q 1350 217 1350 257 q 1365 164 1350 176 q 1419 151 1379 151 m 878 -15 q 744 12 801 -15 q 657 91 688 39 q 626 217 626 143 q 657 342 626 290 q 744 422 688 394 q 878 450 801 450 q 1012 422 956 450 q 1099 342 1068 394 q 1129 217 1129 290 q 1099 91 1129 143 q 1012 12 1068 39 q 878 -15 956 -15 m 265 482 q 132 509 189 482 q 44 588 75 536 q 14 714 14 640 q 44 840 14 788 q 132 919 75 892 q 265 947 189 947 q 399 919 343 947 q 486 840 456 892 q 517 714 517 788 q 486 588 517 640 q 399 509 456 536 q 265 482 343 482 m 265 649 q 320 661 306 649 q 335 714 335 674 q 320 768 335 754 q 265 782 306 782 q 210 768 225 782 q 196 714 196 754 q 210 661 196 674 q 265 649 225 649 m 878 151 q 933 164 918 151 q 947 217 947 176 q 933 271 947 257 q 878 285 918 285 q 823 271 838 285 q 808 217 808 257 q 823 164 808 176 q 878 151 838 151 m 303 0 l 51 0 l 842 931 l 1093 931 l 303 0 z "},"+":{"ha":742,"x_min":42,"x_max":700,"o":"m 482 136 l 260 136 l 260 794 l 482 794 l 482 136 m 700 358 l 42 358 l 42 572 l 700 572 l 700 358 z "},"<":{"ha":742,"x_min":36,"x_max":694,"o":"m 36 622 l 694 794 l 694 554 l 271 474 l 271 457 l 694 376 l 694 136 l 36 308 l 36 622 z "},"=":{"ha":742,"x_min":42,"x_max":701,"o":"m 701 518 l 42 518 l 42 732 l 701 732 l 701 518 m 700 196 l 42 196 l 42 410 l 700 410 l 700 196 z "},">":{"ha":742,"x_min":42,"x_max":700,"o":"m 700 308 l 42 136 l 42 376 l 465 457 l 465 474 l 42 554 l 42 794 l 700 622 l 700 308 z "},"|":{"ha":324,"x_min":42,"x_max":282,"o":"m 282 -139 l 42 -139 l 42 1069 l 282 1069 l 282 -139 z "},"~":{"ha":808,"x_min":42,"x_max":767,"o":"m 260 329 l 42 329 l 42 393 q 47 459 42 424 q 70 526 53 494 q 125 578 88 558 q 226 599 163 599 q 281 594 254 599 q 331 583 307 590 l 449 554 q 496 544 476 549 q 526 540 515 540 q 544 547 539 540 q 550 571 550 553 l 550 583 l 767 583 l 767 508 q 752 413 767 456 q 702 345 738 369 q 601 321 667 321 q 525 328 561 321 q 449 344 489 335 l 335 371 q 311 376 324 374 q 290 379 299 379 q 264 367 268 379 q 260 340 260 356 l 260 329 z "},"±":{"ha":743,"x_min":42,"x_max":701,"o":"m 482 147 l 261 147 l 261 794 l 482 794 l 482 147 m 700 -19 l 42 -19 l 42 194 l 700 194 l 700 -19 m 701 358 l 42 358 l 42 572 l 701 572 l 701 358 z "},"×":{"ha":725,"x_min":42,"x_max":683,"o":"m 683 301 l 526 144 l 42 629 l 197 786 l 683 301 m 682 633 l 194 146 l 43 297 l 531 785 l 682 633 z "},"÷":{"ha":742,"x_min":47,"x_max":706,"o":"m 515 656 l 239 656 l 239 888 l 515 888 l 515 656 m 515 43 l 239 43 l 239 275 l 515 275 l 515 43 m 706 358 l 47 358 l 47 572 l 706 572 l 706 358 z "},"⁄":{"ha":394,"x_min":-322,"x_max":719,"o":"m -71 0 l -322 0 l 468 931 l 719 931 l -71 0 z "},"−":{"ha":742,"x_min":42,"x_max":700,"o":"m 700 358 l 42 358 l 42 572 l 700 572 l 700 358 z "},"≈":{"ha":807,"x_min":42,"x_max":765,"o":"m 260 210 l 42 210 l 42 269 q 62 376 42 331 q 135 444 82 422 l 135 464 l 42 464 l 42 546 q 58 642 42 600 q 114 709 75 685 q 217 733 153 733 q 297 724 261 733 q 372 704 333 715 l 475 675 q 499 670 488 672 q 518 668 511 668 q 544 679 540 668 q 549 706 549 690 l 549 711 l 765 711 l 765 651 q 745 537 765 579 q 671 471 725 494 l 671 457 l 765 457 l 765 397 q 751 297 765 343 q 701 224 736 251 q 600 196 665 196 q 516 203 556 196 q 436 221 476 211 l 333 246 q 311 250 321 249 q 294 251 301 251 q 266 241 272 251 q 260 215 260 231 l 260 210 m 550 403 q 588 450 588 403 l 588 461 q 575 458 582 460 q 557 456 568 456 q 505 461 531 456 q 442 478 479 467 l 322 514 q 294 520 307 518 q 271 522 282 522 q 233 508 243 522 q 222 475 222 494 l 222 465 q 269 471 243 471 q 303 467 285 471 q 336 460 322 464 l 460 424 q 509 410 486 417 q 550 403 532 403 z "},"≠":{"ha":742,"x_min":42,"x_max":701,"o":"m 660 847 l 246 0 l 82 82 l 496 931 l 660 847 m 701 519 l 42 519 l 42 733 l 701 733 l 701 519 m 700 197 l 42 197 l 42 411 l 700 411 l 700 197 z "},"≤":{"ha":743,"x_min":42,"x_max":701,"o":"m 701 -24 l 42 -24 l 42 192 l 469 192 l 469 210 l 42 308 l 42 622 l 701 794 l 701 554 l 276 474 l 276 457 l 701 376 l 701 -24 z "},"≥":{"ha":742,"x_min":42,"x_max":700,"o":"m 700 -24 l 42 -24 l 42 376 l 465 457 l 465 474 l 42 554 l 42 794 l 700 622 l 700 308 l 272 210 l 272 192 l 700 192 l 700 -24 z "},"$":{"ha":950,"x_min":21,"x_max":929,"o":"m 625 815 l 382 815 l 382 1069 l 625 1069 l 625 815 m 625 -139 l 382 -139 l 382 113 l 625 113 l 625 -139 m 493 -14 q 249 22 351 -14 q 90 131 146 57 q 35 324 35 206 l 35 332 l 296 332 l 296 303 q 309 255 296 272 q 364 231 322 238 q 493 224 406 224 q 610 228 572 224 q 658 245 647 233 q 668 278 668 257 q 649 315 668 303 q 574 335 631 328 l 282 374 q 138 420 196 386 q 50 510 79 454 q 21 640 21 565 q 44 750 21 696 q 121 848 68 804 q 260 918 174 892 q 472 944 346 944 q 717 903 621 944 q 862 787 814 863 q 910 607 910 711 l 910 599 l 649 599 l 649 619 q 634 672 649 653 q 576 700 619 692 q 444 708 532 708 q 343 702 378 708 q 295 683 308 696 q 282 650 282 671 q 288 626 282 636 q 309 610 294 615 q 349 600 324 604 l 640 557 q 817 499 754 540 q 904 403 879 458 q 929 288 929 347 q 885 140 929 208 q 746 28 842 71 q 493 -14 650 -14 z "},"¢":{"ha":854,"x_min":28,"x_max":826,"o":"m 563 586 l 319 586 l 319 833 l 563 833 l 563 586 m 563 -139 l 319 -139 l 319 115 l 563 115 l 563 -139 m 435 -14 q 219 30 311 -14 q 78 156 128 74 q 28 350 28 238 q 78 545 28 464 q 219 670 128 626 q 435 714 311 714 q 642 676 554 714 q 778 568 731 638 q 826 404 826 499 l 826 382 l 567 382 l 567 393 q 530 464 567 447 q 429 481 493 481 q 322 456 357 481 q 288 350 288 432 q 322 245 288 269 q 429 221 357 221 q 530 237 493 221 q 567 307 567 253 l 567 319 l 826 319 l 826 296 q 778 133 826 203 q 642 25 731 64 q 435 -14 554 -14 z "},"£":{"ha":988,"x_min":42,"x_max":960,"o":"m 365 149 l 74 149 l 74 235 l 132 235 q 185 242 165 235 q 213 261 204 249 q 222 292 222 274 q 215 332 222 310 q 197 381 208 354 l 172 436 q 127 549 146 494 q 108 660 108 604 q 156 807 108 743 q 299 908 204 871 q 533 944 394 944 q 779 899 689 944 q 908 778 869 854 q 946 613 946 703 l 946 590 l 689 590 l 689 615 q 677 672 689 653 q 632 699 665 692 q 531 707 599 707 q 432 699 467 707 q 383 674 397 692 q 369 625 369 656 q 376 583 369 607 q 393 529 382 558 l 419 461 q 438 403 432 429 q 443 356 443 376 q 418 281 443 306 q 365 249 393 257 l 365 149 m 960 0 l 42 0 l 42 235 l 960 235 l 960 0 m 661 317 l 42 317 l 42 531 l 661 531 l 661 317 z "},"¥":{"ha":1121,"x_min":4,"x_max":1117,"o":"m 676 276 l 444 276 l 4 931 l 346 931 l 443 757 l 554 528 l 572 528 l 682 757 l 781 931 l 1117 931 l 676 276 m 690 0 l 431 0 l 431 440 l 690 440 l 690 0 m 504 429 l 38 429 l 38 643 l 314 643 l 504 429 m 1083 150 l 38 150 l 38 364 l 1083 364 l 1083 150 m 1083 429 l 615 429 l 806 643 l 1083 643 l 1083 429 z "},"^":{"ha":732,"x_min":42,"x_max":690,"o":"m 285 389 l 42 389 l 213 931 l 521 931 l 690 389 l 447 389 l 375 694 l 357 694 l 285 389 z "},"¦":{"ha":379,"x_min":69,"x_max":310,"o":"m 310 521 l 69 521 l 69 1069 l 310 1069 l 310 521 m 310 -139 l 69 -139 l 69 410 l 310 410 l 310 -139 z "},"§":{"ha":814,"x_min":28,"x_max":786,"o":"m 425 -14 q 153 57 253 -14 q 53 246 53 128 l 53 251 l 314 251 l 314 238 q 322 206 314 218 q 355 190 329 194 q 433 185 381 185 q 513 194 497 185 q 529 221 529 204 q 516 244 529 238 q 454 257 503 251 l 207 290 q 70 335 113 303 q 28 424 28 368 q 65 506 28 474 q 165 543 101 539 l 165 557 q 103 583 135 564 q 49 635 71 601 q 28 721 28 668 q 67 835 28 783 q 187 919 107 888 q 389 951 267 951 q 661 881 561 951 q 761 692 761 811 l 761 686 l 500 686 l 500 700 q 492 732 500 721 q 459 748 485 743 q 381 753 433 753 q 301 743 317 753 q 285 717 285 733 q 299 694 285 700 q 360 681 313 688 l 643 644 q 749 607 711 636 q 786 519 786 578 q 750 433 786 468 q 649 394 714 399 l 649 381 q 711 356 679 374 q 765 303 743 338 q 786 217 786 269 q 747 103 786 156 q 627 18 707 50 q 425 -14 547 -14 m 317 451 l 493 429 q 515 430 507 428 q 526 438 522 432 q 529 453 529 444 q 522 471 529 464 q 494 479 514 478 l 321 501 q 301 501 310 503 q 289 494 293 499 q 285 479 285 489 q 292 460 285 465 q 317 451 300 454 z "},"©":{"ha":1078,"x_min":28,"x_max":1050,"o":"m 539 -12 q 268 45 383 -12 q 90 210 153 103 q 28 465 28 317 q 90 721 28 614 q 268 885 153 828 q 539 943 383 943 q 810 885 696 943 q 988 721 925 828 q 1050 465 1050 614 q 988 210 1050 317 q 810 45 925 103 q 539 -12 696 -12 m 539 168 q 720 192 653 168 q 818 281 788 217 q 849 465 849 344 q 818 650 849 586 q 720 738 788 714 q 539 763 653 763 q 358 738 426 763 q 260 650 290 714 q 229 465 229 586 q 260 281 229 344 q 358 192 290 217 q 539 168 426 168 m 543 214 q 395 245 456 214 q 303 333 335 276 q 271 465 271 389 q 303 599 271 543 q 395 686 335 656 q 543 717 456 717 q 681 690 622 717 q 774 613 740 663 q 807 494 807 564 l 807 483 l 622 483 l 622 492 q 605 535 622 521 q 543 549 588 549 q 473 531 490 549 q 456 465 456 514 q 473 400 456 418 q 543 382 490 382 q 605 397 588 382 q 622 439 622 413 l 622 447 l 807 447 l 807 436 q 774 318 807 368 q 681 241 740 268 q 543 214 622 214 z "},"®":{"ha":592,"x_min":28,"x_max":564,"o":"m 296 451 q 158 482 218 451 q 63 569 97 513 q 28 704 28 625 q 63 840 28 783 q 158 927 97 897 q 296 957 218 957 q 434 927 374 957 q 529 840 494 897 q 564 704 564 783 q 529 569 564 625 q 434 482 494 513 q 296 451 374 451 m 296 553 q 394 567 360 553 q 441 615 428 582 q 454 704 454 649 q 441 793 454 760 q 394 841 428 826 q 296 856 360 856 q 198 841 232 856 q 151 793 164 826 q 138 704 138 760 q 151 615 138 649 q 198 567 164 582 q 296 553 232 553 m 268 610 l 188 610 l 188 804 l 321 804 q 384 789 361 804 q 407 742 407 774 q 390 699 407 714 q 350 685 374 685 l 350 682 q 386 651 369 675 l 414 610 l 325 610 l 299 653 q 289 662 294 660 q 274 664 283 664 l 268 664 l 268 610 m 268 738 l 268 715 l 317 715 q 326 718 324 715 q 329 726 329 721 q 326 735 329 733 q 317 738 324 738 l 268 738 z "},"°":{"ha":331,"x_min":14,"x_max":317,"o":"m 165 681 q 54 716 94 681 q 14 813 14 751 q 54 909 14 874 q 165 944 94 944 q 276 909 236 944 q 317 813 317 874 q 276 716 317 751 q 165 681 236 681 m 165 776 q 201 784 192 776 q 211 813 211 792 q 201 841 211 833 q 165 849 192 849 q 129 841 139 849 q 119 813 119 833 q 129 784 119 792 q 165 776 139 776 z "},"¶":{"ha":1101,"x_min":28,"x_max":1060,"o":"m 651 375 l 383 375 q 198 405 278 375 q 73 496 118 435 q 28 650 28 557 q 73 808 28 746 q 198 901 118 871 q 383 931 278 931 l 651 931 l 651 375 m 742 0 l 481 0 l 481 931 l 742 931 l 742 0 m 1060 0 l 799 0 l 799 931 l 1060 931 l 1060 0 z "},"™":{"ha":768,"x_min":28,"x_max":740,"o":"m 474 651 l 368 651 l 368 931 l 517 931 l 553 758 l 557 758 l 590 931 l 740 931 l 740 651 l 635 651 l 635 724 l 638 794 l 632 794 l 618 683 l 494 683 l 474 794 l 469 794 l 474 722 l 474 651 m 243 651 l 125 651 l 125 822 l 28 822 l 28 931 l 340 931 l 340 822 l 243 822 l 243 651 z "}," ":{"ha":194,"x_min":0,"x_max":0,"o":""},"Ẽ":{"ha":900,"x_min":42,"x_max":868,"o":"m 303 0 l 42 0 l 42 931 l 303 931 l 303 0 m 868 0 l 113 0 l 113 235 l 868 235 l 868 0 m 847 351 l 113 351 l 113 585 l 847 585 l 847 351 m 868 696 l 113 696 l 113 931 l 868 931 l 868 696 m 342 989 l 168 989 l 168 1058 q 178 1131 168 1094 q 220 1191 189 1167 q 313 1215 251 1215 q 366 1209 336 1215 q 435 1189 396 1203 l 482 1172 q 514 1163 500 1167 q 538 1158 528 1158 q 560 1167 553 1158 q 568 1193 568 1175 l 568 1203 l 740 1203 l 740 1135 q 709 1022 740 1067 q 607 976 678 976 q 543 985 575 976 q 481 1003 511 993 l 417 1024 q 386 1033 399 1031 q 365 1036 374 1036 q 347 1028 351 1036 q 342 1011 342 1021 l 342 989 z "},"Ỹ":{"ha":1064,"x_min":-21,"x_max":1085,"o":"m 657 293 l 399 293 l -21 931 l 303 931 l 443 710 l 522 579 l 540 579 l 619 710 l 760 931 l 1085 931 l 657 293 m 658 0 l 397 0 l 397 442 l 658 442 l 658 0 m 419 989 l 246 989 l 246 1058 q 256 1131 246 1094 q 298 1191 267 1167 q 390 1215 329 1215 q 444 1209 414 1215 q 513 1189 474 1203 l 560 1172 q 592 1163 578 1167 q 615 1158 606 1158 q 638 1167 631 1158 q 646 1193 646 1175 l 646 1203 l 818 1203 l 818 1135 q 787 1022 818 1067 q 685 976 756 976 q 621 985 653 976 q 558 1003 589 993 l 494 1024 q 464 1033 476 1031 q 443 1036 451 1036 q 424 1028 429 1036 q 419 1011 419 1021 l 419 989 z "},"ẽ":{"ha":850,"x_min":28,"x_max":822,"o":"m 432 -14 q 222 22 314 -14 q 79 139 131 58 q 28 350 28 219 q 79 545 28 464 q 220 670 131 626 q 426 714 310 714 q 636 674 547 714 q 774 558 725 635 q 822 368 822 481 q 822 335 822 350 q 818 301 821 321 l 199 301 l 199 433 l 629 433 l 572 351 q 572 376 572 364 q 572 400 572 388 q 540 489 572 464 q 421 514 507 514 q 301 486 332 514 q 269 386 269 458 l 269 319 q 301 219 269 246 q 422 193 333 193 q 528 208 501 193 q 556 253 556 222 l 556 268 l 817 268 l 817 251 q 769 114 817 174 q 636 20 722 54 q 432 -14 550 -14 m 313 753 l 139 753 l 139 822 q 149 894 139 858 q 191 955 160 931 q 283 979 222 979 q 337 973 307 979 q 406 953 367 967 l 453 936 q 485 926 471 931 q 508 922 499 922 q 531 931 524 922 q 539 957 539 939 l 539 967 l 711 967 l 711 899 q 680 785 711 831 q 578 740 649 740 q 514 749 546 740 q 451 767 482 757 l 388 788 q 357 797 369 794 q 336 800 344 800 q 317 792 322 800 q 313 775 313 785 l 313 753 z "},"ỹ":{"ha":900,"x_min":-14,"x_max":914,"o":"m 196 -236 l 69 -236 l 69 0 l 272 0 q 321 8 304 0 q 346 38 338 17 l 365 85 l 340 -32 l -14 700 l 283 700 l 404 425 l 454 264 l 472 264 l 518 428 l 622 700 l 914 700 l 582 -28 q 494 -156 544 -110 q 371 -219 443 -201 q 196 -236 299 -236 m 338 753 l 164 753 l 164 822 q 174 894 164 858 q 216 955 185 931 q 308 979 247 979 q 362 973 332 979 q 431 953 392 967 l 478 936 q 510 926 496 931 q 533 922 524 922 q 556 931 549 922 q 564 957 564 939 l 564 967 l 736 967 l 736 899 q 705 785 736 831 q 603 740 674 740 q 539 749 571 740 q 476 767 507 757 l 413 788 q 382 797 394 794 q 361 800 369 800 q 342 792 347 800 q 338 775 338 785 l 338 753 z "},"Ĉ":{"ha":1069,"x_min":28,"x_max":1042,"o":"m 542 -14 q 265 45 381 -14 q 89 212 150 104 q 28 465 28 319 q 89 719 28 611 q 265 885 150 826 q 542 944 381 944 q 810 897 699 944 q 982 761 922 850 q 1042 547 1042 672 l 1042 524 l 750 524 l 750 547 q 706 660 750 626 q 546 694 661 694 q 399 676 451 694 q 326 608 347 657 q 306 465 306 558 q 326 324 306 374 q 399 255 347 274 q 546 236 451 236 q 706 270 661 236 q 750 383 750 304 l 750 407 l 1042 407 l 1042 383 q 982 170 1042 260 q 810 33 922 81 q 542 -14 699 -14 m 471 1014 l 192 1014 l 376 1194 l 692 1194 l 878 1014 l 597 1014 l 543 1072 l 526 1072 l 471 1014 z "},"Ĥ":{"ha":1039,"x_min":42,"x_max":997,"o":"m 997 0 l 736 0 l 736 931 l 997 931 l 997 0 m 303 0 l 42 0 l 42 931 l 303 931 l 303 0 m 871 350 l 110 350 l 110 585 l 871 585 l 871 350 m 456 1014 l 176 1014 l 361 1194 l 676 1194 l 863 1014 l 582 1014 l 528 1072 l 511 1072 l 456 1014 z "},"Ţ":{"ha":960,"x_min":21,"x_max":939,"o":"m 611 0 l 350 0 l 350 931 l 611 931 l 611 0 m 939 696 l 21 696 l 21 931 l 939 931 l 939 696 m 547 -335 l 396 -335 l 396 -200 l 551 -200 q 560 -198 558 -200 q 563 -192 563 -196 q 560 -184 563 -186 q 551 -182 558 -182 l 396 -182 l 396 4 l 528 4 l 528 -50 l 547 -50 q 667 -88 626 -50 q 708 -190 708 -126 q 667 -295 708 -256 q 547 -335 626 -335 z "},"ĉ":{"ha":854,"x_min":28,"x_max":826,"o":"m 435 -14 q 219 30 311 -14 q 78 156 128 74 q 28 350 28 238 q 78 545 28 464 q 219 670 128 626 q 435 714 311 714 q 642 676 554 714 q 778 568 731 638 q 826 404 826 499 l 826 382 l 567 382 l 567 393 q 530 464 567 447 q 429 481 493 481 q 322 456 357 481 q 288 350 288 432 q 322 245 288 269 q 429 221 357 221 q 530 237 493 221 q 567 307 567 253 l 567 319 l 826 319 l 826 296 q 778 133 826 203 q 642 25 731 64 q 435 -14 554 -14 m 364 778 l 85 778 l 269 958 l 585 958 l 771 778 l 490 778 l 436 836 l 419 836 l 364 778 z "},"ı":{"ha":388,"x_min":64,"x_max":324,"o":"m 324 0 l 64 0 l 64 694 l 324 694 l 324 0 z "},"ȷ":{"ha":344,"x_min":-36,"x_max":303,"o":"m -11 -236 l -36 -236 l -36 -44 l -10 -44 q 29 -33 17 -44 q 42 6 42 -22 l 42 700 l 303 700 l 303 44 q 266 -126 303 -65 q 159 -212 229 -187 q -11 -236 89 -236 z "},"ţ":{"ha":586,"x_min":0,"x_max":618,"o":"m 565 0 l 382 0 q 177 65 251 0 q 103 267 103 131 l 103 821 l 364 821 l 364 304 q 380 249 364 263 q 440 235 396 235 l 565 235 l 565 0 m 565 486 l 0 486 l 0 700 l 565 700 l 565 486 m 457 -335 l 306 -335 l 306 -200 l 461 -200 q 470 -198 468 -200 q 472 -192 472 -196 q 470 -184 472 -186 q 461 -182 468 -182 l 306 -182 l 306 4 l 438 4 l 438 -50 l 457 -50 q 577 -88 536 -50 q 618 -190 618 -126 q 577 -295 618 -256 q 457 -335 536 -335 z "},"⁰":{"ha":586,"x_min":28,"x_max":558,"o":"m 293 451 q 151 481 211 451 q 60 565 92 510 q 28 697 28 619 q 60 831 28 775 q 151 915 92 886 q 293 944 211 944 q 435 915 375 944 q 526 831 494 886 q 558 697 558 775 q 526 565 558 619 q 435 481 494 510 q 293 451 375 451 m 293 621 q 352 638 336 621 q 368 697 368 654 q 352 758 368 740 q 293 775 336 775 q 234 758 250 775 q 218 697 218 740 q 234 638 218 654 q 293 621 250 621 z "},"¹":{"ha":358,"x_min":14,"x_max":331,"o":"m 331 465 l 150 465 l 150 733 l 14 733 l 14 874 l 39 874 q 106 885 75 874 q 158 931 136 896 l 331 931 l 331 465 z "},"²":{"ha":542,"x_min":28,"x_max":514,"o":"m 499 472 l 36 472 l 36 547 q 69 649 36 614 q 157 700 103 683 l 303 744 q 326 755 319 750 q 332 769 332 760 q 322 785 332 781 q 274 790 313 790 q 221 783 235 790 q 207 751 207 775 l 207 738 l 28 738 l 28 758 q 56 851 28 808 q 140 919 83 893 q 286 944 197 944 q 457 900 400 944 q 514 782 514 856 q 476 689 514 722 q 354 639 438 656 l 210 608 q 210 603 210 607 q 211 597 211 599 l 432 625 l 499 625 l 499 472 z "},"³":{"ha":557,"x_min":28,"x_max":529,"o":"m 289 465 q 92 510 157 465 q 28 638 28 554 l 28 653 l 208 653 l 208 644 q 220 622 208 626 q 276 618 232 618 q 334 622 322 618 q 346 639 346 625 q 340 653 346 649 q 319 657 335 657 l 222 657 l 222 763 l 301 763 q 324 766 318 763 q 329 779 329 769 q 319 794 329 790 q 269 799 310 799 q 218 793 228 799 q 208 775 208 788 l 208 771 l 28 771 l 28 775 q 95 897 28 850 q 285 944 163 944 q 453 912 397 944 q 510 822 510 879 q 484 754 510 781 q 399 721 458 728 l 399 714 q 493 682 457 707 q 529 604 529 657 q 501 526 529 557 q 418 481 472 496 q 289 465 364 465 z "},"⁴":{"ha":547,"x_min":14,"x_max":533,"o":"m 533 553 l 14 553 l 14 696 l 242 931 l 368 931 l 282 781 l 263 781 l 211 726 l 211 713 l 533 713 l 533 553 m 457 465 l 276 465 l 276 931 l 457 931 l 457 465 z "},"­":{"ha":833,"x_min":42,"x_max":626,"o":"m 626 301 l 42 301 l 42 524 l 626 524 l 626 301 z "},"«":{"ha":694,"x_min":42,"x_max":653,"o":"m 375 569 l 653 750 l 653 483 l 549 433 l 549 414 l 653 364 l 653 97 l 375 278 l 375 569 m 42 569 l 319 750 l 319 483 l 215 433 l 215 414 l 319 364 l 319 97 l 42 278 l 42 569 z "},"»":{"ha":694,"x_min":42,"x_max":653,"o":"m 319 278 l 42 97 l 42 364 l 146 414 l 146 433 l 42 483 l 42 750 l 319 569 l 319 278 m 653 278 l 375 97 l 375 364 l 479 414 l 479 433 l 375 483 l 375 750 l 653 569 l 653 278 z "}," ":{"ha":194,"x_min":0,"x_max":0,"o":""},"\r":{"ha":833,"x_min":0,"x_max":0,"o":""},"€":{"ha":936,"x_min":14,"x_max":894,"o":"m 894 0 l 622 0 q 356 55 469 0 q 182 214 243 110 q 121 465 121 318 q 182 717 121 613 q 356 876 243 821 q 622 931 469 931 l 894 931 l 894 696 l 622 696 q 492 682 540 696 q 422 619 443 668 q 401 465 401 571 q 422 312 401 361 q 492 249 443 263 q 622 235 540 235 l 894 235 l 894 0 m 746 283 l 14 283 l 14 442 l 746 442 l 746 283 m 746 486 l 14 486 l 14 644 l 746 644 l 746 486 z "},"₹":{"ha":844,"x_min":42,"x_max":817,"o":"m 804 0 l 447 0 l 253 183 q 182 231 214 219 q 107 243 150 243 l 42 243 l 42 458 l 282 458 q 348 466 326 458 q 376 495 369 474 q 383 556 383 517 l 383 849 l 644 849 l 644 574 q 622 451 644 506 q 547 366 600 397 q 400 333 493 335 l 400 315 q 497 276 458 304 q 582 206 535 249 l 804 0 m 817 501 l 42 501 l 42 694 l 817 694 l 817 501 m 817 738 l 42 738 l 42 931 l 817 931 l 817 738 z "},"̈":{"ha":625,"x_min":25,"x_max":600,"o":"m 600 778 l 353 778 l 353 971 l 600 971 l 600 778 m 272 778 l 25 778 l 25 971 l 272 971 l 272 778 z "},"̇":{"ha":336,"x_min":38,"x_max":299,"o":"m 299 778 l 38 778 l 38 971 l 299 971 l 299 778 z "},"̀":{"ha":628,"x_min":-117,"x_max":446,"o":"m 446 778 l 164 778 l -117 958 l 261 958 l 446 778 z "},"́":{"ha":628,"x_min":178,"x_max":742,"o":"m 461 778 l 178 778 l 364 958 l 742 958 l 461 778 z "},"̋":{"ha":931,"x_min":93,"x_max":951,"o":"m 763 778 l 499 778 l 610 958 l 951 958 l 763 778 m 357 778 l 93 778 l 203 958 l 546 958 l 357 778 z "},"̂":{"ha":742,"x_min":28,"x_max":714,"o":"m 307 778 l 28 778 l 213 958 l 528 958 l 714 778 l 433 778 l 379 836 l 363 836 l 307 778 z "},"̌":{"ha":742,"x_min":28,"x_max":714,"o":"m 528 778 l 213 778 l 28 958 l 318 958 l 363 900 l 379 900 l 424 958 l 714 958 l 528 778 z "},"̆":{"ha":575,"x_min":43,"x_max":532,"o":"m 288 764 q 110 819 178 764 q 43 958 43 874 l 43 964 l 225 964 l 225 963 q 236 926 225 936 q 288 915 247 915 q 340 926 329 915 q 350 963 350 936 l 350 964 l 532 964 l 532 958 q 465 819 532 874 q 288 764 397 764 z "},"̊":{"ha":372,"x_min":39,"x_max":333,"o":"m 186 756 q 80 789 121 756 q 39 878 39 822 q 80 967 39 933 q 186 1000 121 1000 q 292 967 251 1000 q 333 878 333 933 q 292 789 333 822 q 186 756 251 756 m 186 854 q 219 860 213 854 q 226 878 226 867 q 219 895 226 889 q 186 901 213 901 q 153 895 160 901 q 146 878 146 889 q 153 860 146 867 q 186 854 160 854 z "},"̃":{"ha":701,"x_min":71,"x_max":643,"o":"m 244 753 l 71 753 l 71 822 q 81 894 71 858 q 123 955 92 931 q 215 979 154 979 q 269 973 239 979 q 338 953 299 967 l 385 936 q 417 926 403 931 q 440 922 431 922 q 463 931 456 922 q 471 957 471 939 l 471 967 l 643 967 l 643 899 q 612 785 643 831 q 510 740 581 740 q 446 749 478 740 q 383 767 414 757 l 319 788 q 289 797 301 794 q 268 800 276 800 q 249 792 254 800 q 244 775 244 785 l 244 753 z "},"̄":{"ha":660,"x_min":83,"x_max":576,"o":"m 576 775 l 83 775 l 83 961 l 576 961 l 576 775 z "},"̒":{"ha":915,"x_min":275,"x_max":746,"o":"m 481 958 l 746 958 l 615 778 l 275 778 l 481 958 z "},"̦":{"ha":576,"x_min":60,"x_max":531,"o":"m 325 -278 l 60 -278 l 190 -97 l 531 -97 l 325 -278 z "},"̧":{"ha":461,"x_min":175,"x_max":488,"o":"m 326 -335 l 175 -335 l 175 -200 l 331 -200 q 340 -198 338 -200 q 342 -192 342 -196 q 340 -184 342 -186 q 331 -182 338 -182 l 175 -182 l 175 4 l 307 4 l 307 -50 l 326 -50 q 447 -88 406 -50 q 488 -190 488 -126 q 447 -295 488 -256 q 326 -335 406 -335 z "},"̨":{"ha":363,"x_min":50,"x_max":332,"o":"m 332 -260 l 193 -260 q 82 -232 114 -260 q 50 -161 50 -204 q 72 -92 50 -122 q 119 -33 93 -62 l 151 0 l 319 0 l 257 -78 q 249 -89 251 -83 q 246 -99 246 -94 q 249 -105 246 -103 q 257 -107 251 -107 l 332 -107 l 332 -260 z "},"̵":{"ha":993,"x_min":242,"x_max":751,"o":"m 751 658 l 242 658 l 242 853 l 751 853 l 751 658 z "},"̷":{"ha":586,"x_min":0,"x_max":586,"o":"m 586 563 l 71 335 l 0 481 l 515 708 l 586 563 z "},"̸":{"ha":846,"x_min":0,"x_max":846,"o":"m 846 628 l 92 -29 l 0 72 l 754 729 l 846 628 z "}}}
